<mxfile host="app.diagrams.net" modified="2023-01-10T07:39:26.520Z" agent="5.0 (Windows NT 10.0; Win64; x64) AppleWebKit/537.36 (KHTML, like Gecko) Chrome/108.0.0.0 Safari/537.36" version="20.8.3" etag="Xl5p6kWxEx0JM7_5ZjUo" type="github">
  <diagram id="8SAH-qvPupBvlwPlh7a5" name="페이지-1">
    <mxGraphModel dx="2263" dy="719" grid="1" gridSize="10" guides="1" tooltips="1" connect="1" arrows="1" fold="1" page="1" pageScale="1" pageWidth="827" pageHeight="1169" math="0" shadow="0">
      <root>
        <mxCell id="0" />
        <mxCell id="1" parent="0" />
        <mxCell id="icxB6pZpVLlcg9UYm4ng-81" value="" style="rounded=1;whiteSpace=wrap;html=1;shadow=1;arcSize=5;" vertex="1" parent="1">
          <mxGeometry x="-700" y="590" width="650" height="230" as="geometry" />
        </mxCell>
        <mxCell id="icxB6pZpVLlcg9UYm4ng-6" value="" style="rounded=1;whiteSpace=wrap;html=1;shadow=1;arcSize=5;" vertex="1" parent="1">
          <mxGeometry x="80" y="40" width="280" height="480" as="geometry" />
        </mxCell>
        <mxCell id="icxB6pZpVLlcg9UYm4ng-7" value="Structured Data&lt;br&gt;Raw DB Control Area" style="label;whiteSpace=wrap;html=1;image=img/clipart/Gear_128x128.png" vertex="1" parent="1">
          <mxGeometry x="120" y="20" width="200" height="50" as="geometry" />
        </mxCell>
        <mxCell id="icxB6pZpVLlcg9UYm4ng-10" value="" style="shape=datastore;whiteSpace=wrap;html=1;" vertex="1" parent="1">
          <mxGeometry x="140" y="80" width="40" height="30" as="geometry" />
        </mxCell>
        <mxCell id="icxB6pZpVLlcg9UYm4ng-11" value="" style="shape=image;verticalLabelPosition=bottom;labelBackgroundColor=default;verticalAlign=top;aspect=fixed;imageAspect=0;image=data:image/png,iVBORw0KGgoAAAANSUhEUgAAAMgAAADICAMAAACahl6sAAAAmVBMVEX///8AAADz8/NNTU0UFBTKysr8/PyAgID4+Pjr6+sLCwvm5uYQEBCZmZkcHBxjY2M1NTWxsbH/pQDg4OAhISEmJiZbW1vAwMDa2tppaWnGxsZBQUEtLS1TU1OPj4+oqKh8fHyRkZFERET/rxz/9ePR0dF+fn50dHQ6OjqsrKwxMTGfn5//04P/+vD/tzT/8dj/5LP/wEz/znPn/DCyAAAGNklEQVR4nO2ZaXebOBiFsViFWAfMYgzYbolxaDrN/P8fN9IrvCRN0rR1PKdz7vMhEpIs7tXySpwYBgAAAAAAAAAAAAAAAAAAAAAAAAAAAAAAAAAAAAAAAAAAAAAAAAAAAAD4v/Lw97eHm77QYR/Q6edvXx4/ffr8AT2/AqumeONdvduHx78kNzPiDK4Z+QvzilPiZWkmk4evNzXCioXiakZY2bW5lRq3N2Je10jny978k5Gv/9xqs1/biLs4GXl8/PLtdlv9iRGWMfXHtlXqaHSzi7yqr7hz0YUYVIn3xIhs/flBNaZiT2Tqz2BX5wHzMrsc9KPDs4v+ftOII0rXXKZsMnPLys3eG2pJvNEOu1jm98Iwsq2qt+7jw6xBBoulLIjuiyk7Glns5E9tLztsmkQYbAjj5d4r47VsNnZC2yiL3Aqs3cFjVV8nxW+viKMRr18Hcii3hU/PC38z5CoNStWqilS+4U6fLGb8dlB6wnxx4r53ZiMSq9znsq9IZKYlH+Mumita5Ze5ln4K3FoGzSss7ZMRvSbOsvwpprRTrSay5zpdcJa9uLdlxWXBwjqcjTQVeY6ETZLzc8PaM5zOP73Hv84efWrkEjOkV7Rqu9Qkc9WTGn896tE1OR8pk8SxnqmR6W4CK7jjT4xcEA3GKnpW9gFGlmaiRytKlzSUciVoTTt7TeWhYENLjqaBRDaZ42TyPLLGu3liO9sWz43ku2aelcmo9WQU2675KCN1xvidryeAXucfDKMkBa4WuVU/y2gq2pJEjmq3DHVoc+ci/D4z0g6M9XoiXE4j4rtSvWifGfE4Z99lHXkbpPyc/NhIo2KKuCcjQ0qGNnMoCg4kfq32qidoA+WpVrZ2y2x+wWtGLNs4LtGFa9PA3FP8WlmXRrxDmyTmpGK2kxZJsttymeunzN0lbWlU+93Ypi+G6mdG3HOZZQsauIZ5NGqjHv6C8dW2WJLHoGznBRlESeva3utGGlK61S/RI1STINZcGPFcy+y6XdDJKQitsdsWVsylHrNtw26dh6ZM7ukC9CMj4aURvZStIcsvXj/WyWn3BqXeNjORPGheM6KVhtrIRMndhYDZyMHaywxvI9soo0Ko8B64sokfy+JV5NcysfP4pSl504iWPh18Ep2eQqZ2kdQTl1sjvyguvHcZ6ekney1gd65mu4bTclv3RrysaI7iZcbMaKBaSrz2xcjwphFBWmKamJGV56PAz0231NcUr5rq5nhK+Om7jOietOgqP1fbFkUSw8k8sdQrz0itg2fuGMmi9enEP2/E2JMWetXGyObgb411r+5MnIbMEdxhWenqyrt3GRHUoz+pcdgsztVpVB51DVanM5XVeSYtJrlVftnIeRLkVWVuWtt6KkRRO8wO4/WeHre68u4k8Q0jjo4RUbcq98ETI/ZRl22FOpNZ7hWMzCe3Wln8eFEpKGrytJFn5aRE5itV0GmNupsxXaWr140Y/byvguNA6eoyOuilJVgVuSdHVzBibI5GNko87ctFsgnDfaOkhHrG1tvVvLT8dHtUaPXj60ZYvDhxcdfKch0AxLhl4yw3tMprGDmuLX0JXi0XTyi4/lD2jyNbsPIYm9fDGzNiZO3xlh2v5+oyzJw6p7U1qdtnQMdFNjaMXcEIm+9CI0UYozzd4pWGXXkWRAXyhu7VR5PiLSMG3yaBL++fYZboaqeWIWJYJynn6VK2zpplL7jdRqnxPiNFID+LgsLrVGpNp7JgOdDSp+JgMzev9vpMX/hR2/NZ0Dxp45YK7taB7/tByHaql7UYlirVX04TdUbxyMnSPkwzQ9AsF56zz+Wsr3bR+j4yVTwcTJVV3zisoHjCCurE2b/4FeZUtqIyBKX8XKY/QzkV2+Lcvnfret+lp49WXm73db0JV3xuIVZpmspTZqBeHEZp5Zx7E/LbdtW1tY5UwTxJXKgbFk+7LtU9sbJz+4x+pgueJlfA+e6K8H3J20zqmuN30klFAcRaXUvbjdF7xTc3e7poq4/GPxN+vDVrmuq/FvTLZPE52vnFn+tD7uS0WFJ0Wxb9R/wr4IZ4wpbRzRZ/6vYAAAAAAAAAAAAAAAAAAAAAAAAAAAAAAAAAAAAAAAAAAAAAAAAAAAAA+Fn+BdDZacKv/JyzAAAAAElFTkSuQmCC;clipPath=inset(40.5% 4% 39.5% 1.5%);" vertex="1" parent="1">
          <mxGeometry x="127.11000000000001" y="119.47" width="65.77" height="13.92" as="geometry" />
        </mxCell>
        <mxCell id="icxB6pZpVLlcg9UYm4ng-12" value="" style="shape=image;verticalLabelPosition=bottom;labelBackgroundColor=default;verticalAlign=top;aspect=fixed;imageAspect=0;image=https://moorgatebenchmarks.com/wp-content/uploads/2020/10/client_logo_globalcoal.png;clipPath=inset(29% 4.33% 32% 2.67%);" vertex="1" parent="1">
          <mxGeometry x="124.22" y="133.39000000000001" width="71.56" height="20" as="geometry" />
        </mxCell>
        <mxCell id="icxB6pZpVLlcg9UYm4ng-13" value="" style="shape=datastore;whiteSpace=wrap;html=1;" vertex="1" parent="1">
          <mxGeometry x="257.5" y="80" width="40" height="30" as="geometry" />
        </mxCell>
        <mxCell id="icxB6pZpVLlcg9UYm4ng-14" value="" style="shape=image;verticalLabelPosition=bottom;labelBackgroundColor=default;verticalAlign=top;aspect=fixed;imageAspect=0;image=data:image/png,iVBORw0KGgoAAAANSUhEUgAAAsEAAACFCAYAAAC65yUnAAAAAXNSR0IArs4c6QAAAARnQU1BAACxjwv8YQUAAAAJcEhZcwAAFiUAABYlAUlSJPAAAPZHSURBVHhe7L0JgF1FlTde773u7L0lIGFNAjijjmSBcVyApDtBFhdIoo7LaDZQZ3SELKjz/QeSTtDvG1mSgMuMC1lg1FFZAqPs2djcSQdxZUlAkT29pLN193vvf36/c07d+zodSIBgkPtLTt9699atOnXqVN2qU1uuLAgZDCX+LW7+c+jZ/Ee6cS9fyqmrUMVr9YjhIT/yKLpfu4CsVF67Nj4c8lva6C7lSqEQVF7FUA79G99Od4YMGTJkyJAhw4GEV7wR7NHlcnotChXoAvJC2rAqSQMqX9YnZWlT5ew+UKS/9HuVwLtAHo0xS11p85/CrvW/oLvn0Ud47V7781Dq0MZb94bf8rq3cP5LwuOAMX9Ld7FhaBjQ+Ba6C0eNiO78qCN43SMQlLYbxVmSTNH0BWlQqkxiMuSZygPA0ygDuV8ynpjuKC8LqzdigPhjfhGvhY3n3RtVJtuXLuO1+Ojm0GX3QttWyQf1XFUuhR5z53DNIVdDqPnMJ8OQhefRnauv4XXXuh+Hbc1foTvXUBPyY1V2Ayb8Q6gecxzd+YYhyougx8Kqgi44byVhLq8/qCf2oFwWvzmViHvNkCFDhgwZMmToC3toIWXIkCFDhgwZMmTI8NeLV346hMVWYbVUY582yVMmPFr2BDmz7hFpbs0vbrmluNTaGXbdeBvdO9feK+476C61t8FsaNC2P+LOWeSlfewP2AyJUJDYSyZCWGjzxp+nDqiqHxL6n3Ua3dWN7+C139RTQlWtWkeBspl3c7mUAIAYXioOSzjk4xZpicWuDrfuCuUq00Z2YzTir4+4t6+6LXTMOp/uUns7r+DRo1OfGi6s147C2DeGoUsuoLu68cT4rPPyq3jdNnth6LZ4qkOP8kJURb/9x74pFBrfRnftgs/wGurrY7qBqBuwhdNiDgg/Hp55LUocBZMNkw0rMmCW5AwZMmTIkCHDaxOv/HQIa+jEIX/EnnJ6IwuN5KTRg3e8wYWGDJ2hnO/hdefyG8KOG29VtzTeYiNR/nF4XlCSa8Ebg2V9j8F4hNYQ3FuAO6AgoSAWgA1Vb0iKWC0240LjKVt8aFD2n3wq3QOnTw0DzZ1ONXx64zdv18qGnqTA5ZgCkhKThUkLxlPZ/OZS0yyAdHA7rvoe3e2zPhv9e4Mf0x6K1qDMSePSwyhII3/IeefQPah5Nq9AT1ubNHr/H927Vn6X16J0aPLWgC1Tet7RqZa/lrH1DeGgZV+ks3ryGbz2PPZ42Hnl9+nuP+X0UDXmjXRDWC4vvt5bHJw64SkEenvIkCFDhgwZMrwWkbUIMmTIkCFDhgwZMrzm8BebDuHmO/yMljwgPk+snOVcjzCqFsjujo6wc+lyurevuIbX8qOP0bIK4I2SWRRhAfXgkEw39labgwu7bKqFD6/vKxCSW2uxK0I6FLfAwirrUwDy5W5eq+A3r3Hnhd3cyMPoHjTjH8Pgc2fSnW+olZAtLSaLogRTiDIC3+YUt8etz/W9Mqzf6kzNioAVNzV9wsLYdvmy0DbnC3TnwbTJJJ+3uMEnmBWU5TKwcTzdNVdeHApHD6ebqXzkCbqfnvqJUPzVr+h24Ws+aXjI12j3LveEgTM+Qmfd4n8Pudp6unf9r1r4t8w8P4Q2m5YhvA1oPJnugdPOCgOmv59uCMFCi/pQkns+mQY6kEwficLIkCFDhgwZMrwG8RfbIi0dqQ6tA/lQssYepmy6n3JrZ9h5+bfo3rr0ylCShjBhu0eglRcbi2gN2n1s15VHaw2Q+55Un2NclGdV1moqeQt5L+FzkDVE5Rlxx2kICM7iw9NkyoQ2LPEkl2qIlW3IvlCSJrU0foGac88Jg86bRXfAjgkCfcenc+CXpkXDc4g84tQHXnaH8YnORusMnfu746ofSHj6Hna9yNvODD0WVj+hXIM2Tmuu/H+h3+TT6c5zeoVi17qfho6p/0x3T2urRKPvemPXd+4AIMOqESPprllxiTRs30o3fHQuvJzurc16ZYfGOhBAOlmFURrGkPnnhUHTptId5/ymdpJA7HH6yJ7kkiFDhgwZMmR4TcBaBBkyZMiQIUOGDBkyvHbwF7AEq9UQVkyAC75K2haHkS5aUuXf9st12sPWRZdy1wcAlk+3Jroxj0PcZt0tSfBxT2FahS1AcefN3WPvFxi7TyJ4Cf0BM7eCjaLFjbDjoi8hD913oQAHPl0CPCbL6PCuy0jeG1pH95ALdb/dwbNnhLLJi69bEEBi6cZNDQN7KifTJ/Qe47b42mfMC1uvXkV3oZRYWsmxydQt9f1nvD/UXao7P4CvhOdS2LFEd39on7dQ+EhkursFWFzGc915Hw+DLjyX7hzCa1ULf8eseWH7qtvpVg7wFqWhP5A+Syv+VtWr5Xxw87lhsFvO3a9HCzBelUF8niFDhgwZMmR4TSJrCWTIkCFDhgwZMmR4zeEvNic4bteKPz6ntJyPp5R1zpwXdrY8QDcskm7FpaXVzMU5MynaL/2L1V/RSljiAjQAtsy4bMossEh6chLdvvUHjH3CQiXytvqsSGuoPoE1NFqvU9Zft0ryic1bLZQSjmA1zuXUOluwec6FcW8Ktcsvo7t6zBsTy7m8Ht0QUUGtt2V5L2dze30xXLltW3hu4gfo7m75LeXgiPxJ7LmjDqdr2HKdl1vd+JZoxaUFvXUb3R1zvhi2rfwfupkM47VMqas83CJcddQRoWblpXT3a3xrlP+ult+FrVN1m7WuTU9Gnn2RI23KPr9b0lG0xA6Y8NbQsGIx3Xnhd/vKH9DdPvv/8jpo1uRQM99Oraurlz90+iVDhgwZMmTI8BrFX2w6hDeOELk3hLYuvCJ0LFxKd0FaWxWLqKxxhnu+7as3arulQeQ7PiTTGxzeuE1Cy3tYkvRkYdmLF4PHgAa6NxLZRrPdH3BAQ9kadTlrIGLPgoRXaepZ4zmdbrh8bwPu8kBHd6ge92Y6D7rvRvmtDVvsGuEdBRGWSQYQ2dpisB4cGCJoa/ywdDZ+TTenPPh72PmhpOHVLjg3DGrWqQqewiRMiW/z46F98sfp7rr/gRgE0pH3xWdoBNuUiiELtCFaM392RUCdK67ldcfc5tDdupVuNJhdNp7v2MnD90rO1deFugVz6B547ky5q/c5jWLlDXTHwzQkTVVH6sK52hVfCv0b3053hgwZMmTIkOG1DW+tZMiQIUOGDBkyZMjwmsHLawn2kGi8c4sv4G1t3DO3Ww4fezy0mkVx1/1mnRTA2uvblqUtkK9WJPvTKmj5taPYaAk3iyeywxfGFSEqWwTnFuuBsz8W6pbMpxt3K/YRdkFJVD3mrpLnPsWkfeZnedUpEGYpZRiK/o1vDbVL7cjjMX8nfpw/DziErjt/wmvb5E+Eoh2nDDNwtGRLaP5eNaduXEJ3v9F/xyseeWhbZzeHbVfo4sf0FnXYws73Uy6ZJRmL+wqNf0937YoloXqE7qvc/eifQvsU3ZKta8MDkl7lo5iSJ/c8FiCO+gV6ol36ZDsgvaDR4RZ5n8pxwMEzTtjzYpxMZ0mAJz7aouXP3ekg5H4qPEcMV/55FqVjgP75HtZ9PQc82DQqw1DgXh8sSAxF0QfVA2BP8UTEQJDOJD/7gnvl0lQ/GhEXc+K5j0p4Gdwdadm+GFTmhy9atR8Re5MXAPKj7+cJoj4gTCtjQAyDPKTSZS97uEClTu0/ON/ptDgq0ySInoW3OCIl8JdTgaXTWhFHxY/d07hbnBG7y0vjqcSe4wBemiwRbF/5kvDgS9LlnmRmX/XFqxHMy1g+TJ8rZAtZ7C6Xl4J0vu6tFFncomfw89J5qSyzAlUCRQWTmFyoD1CHRDbcD26Yuyx+4/M98Ij6qE/9SYXh76aC1nDjjyRP0t+wPX/PXloe9sXzy9gIFua80knHUbFPa5L2Uos2eJ9u+lDItW2nu5grshEFCGOhx+awYp+FVzu8YCKNABr5ntaiXD1L9VjiJL396nV3iEFLtHE6cMYHKsS7WwEQcMqIhd214Q+hbeKH6O5p28IrplZUe7bX14Qh83Wf4EFzZvBK4LEpqHO3Y+m3wtY5C+kuhv7yt4vuKklJT+SqJA1NnUYxcMHceBfTNYBcW2vYMvGf6GZj3PI4x0avp1u4tzkvVbWW/vlzwpDZeogI+Ope+3M6W6d+MpTadBqF3GXaAG+YVUu83b5bRT4f8iOOoPPgNd8NBTughHpracU+1elpJXrF3Gbl88CFzgEvmZ5VVHIogzEteiEsmYTc751sIvqR/OHR1ga/j/cSZwqJDvcJNjjtDTuABYhhIU/8hzyPHbI0c3jNf6YqU4dWeDEQIfPD/FZnwicqYdMTicP1pzd86k1lp7Zvv/uEdHDGG/Jjr/ICwDN/L3H2gqTV0+VhyU93VrwjN/UjZrD39Mh1QYUM9zdScfIq5HHL1fnX9NkDCK6PhKUbiFHf9aJIp5nw31r+e+dJZZnRMribPkRdSvQrgTxL8Rk//viR9ra3wOt9lAWPg49fTLivAvi30Pfk12+gyqCi8SO3++ok7gkmOvGL8NPhuVBTeWgiV17Mr+R7NKSk/OLQp8r66UVAXvcQknzVFkBE9CD/3Y1r3vS1pN+MsrTTXJ9TTba9QtTb3soV43aTEthIeEvuVcLv98aL7ninIqooY4IXKfkMGTJkyJAhQ4YMGV69eMmW4LQlck+tej9+F72gHSv1qOO2WfN45QIxewEWON9HF10WPyEsd8Bb4fYGlgbb7QFbOPjwKqYuYEEcUMqXpNOkkqweOzrUL7uY7qpxb+JVLRN99/LcjaB61t1D95bJ/xynLeTMegSL16DJp9Fdu/xLIVevp8ClgmCP0Dt17TM1r7avuFY41ri5a4N3K+Xab7wuOONODTZVIW2N7Gq5n9f2xmmhZ6tZpDnVI6U/ZhHE4sH+Z72T7vqlC3gtjzicUyKAjouWhm3NS/SHJNZjwaHVPn3CdQ5WAewsAQw+b3oY2DyX7oLw3H6uWrVrLv9iKNThPDwEZ+8DVjTSRy8fSPC8AlzOLk+Fpru3v1jkRQbJeymdcsBb4mHP8AhoMQcwdqMv5r1wE5InplRqqUjynmB8SRhu/cU7bgHAexXWgHTiAHklsoM/9iPNBpxWI0m+aljYOxwjGkQqTFp+jWf4dClVhG2O3Yfu9g7MDytLGsJLyAuAfl2OwJ7rT8QdSymtNRr3blEpe/QDpC1NLy7Ve4/dRruYPtMBWtaUOQ7hxvKvF0IYjOzbFblZMd3LHvR6TWDxRCA+cwIxwLS/5FsIRC9p9OEhfQvo870XAMLw4p225sXdmFxuRJKHr37sPlqE71zUB+ZPKr0ubAjr+cyeexpF2wO8bk3rFJCuc59P7nsRRSUkuN1Hp3q1xfwHkM7/OEKhQDgVdZi/h+u+MGZ+MY3Nv5y4FUWAP30p6SuAClH4VTInfX/fEd8W4dpQNBBvQxFtPt/2q78b2mf8O91e6UNQBWOHG5r5XFC55wN+yVD7qxdxnm8sAEmFzblZPpQm9/rNeD+ddYv/PR4EUTG8YYAIfciSHwgTepd0NFpnfo7uUr4nFG2uY/+ROhVgyOUXhIHvPYPuCtFKgceQCICDK1obP0h31/06pxiFzPOV+VOjUxUGLpoTas71qRTFULR0odG6fakeotE2V+cxo5AlGgeH/sjl5ENtDdGhy74c+k05he6cN2bbtoXWKTp3fOedv5D7+h6mTXinQQKRJKg8vEFTHnVoGHalbqFWaHxrKN7/K7pbGz8cetp30F1VVxPq119NN+cu96ociANZBZl+Y9BY5x0TC2TiRZOdDXUqEtFFxPniyCsLEI/9vUpRJA0nr14xk6WvYXO87+8i+9xPotv4bW5xpqqTiPQwYxqx/se1j/c0cuMJ5cGm23helySAOCeYt8zvboH5fYHrSaVA9hnOOiE/XkpeAPCX4tKb9vrYWE7H2Tf7SQgIL/Hj9xGHhrL/58xbukzekE+FzNKwB2kZ8n3PK3+RPy0tKR2t8JuGPafeqpPw4BhfX0xR5/oIz9PEv/qc4cYw0GGMObf3YHSWLgfT5/GleJHEVDR6XsWA2GJKPPmYRpWWbQox34RiwzVWIrinb2i5U/BxlCPeTWQZ/diVdXKqgWdREInI0/mUypd9QYqnGAZ+ehx70L9e7BEMSp0SRGWp31uoLO09uaREary4rCp52lNMCM91NO3ed5iMwJ+3u/j3RUs+Q4YMGTJkyJAhQ4ZXL16yJbhiWNF70Gysa8sbls+u5XqAQdusz8svve/9q27pHeTLbvOFFdh6v9JaL5XVOhqH617VsJ6I9TvQy/IDH7Cvri+SG7z4gjB4ztl04473pHw4Nz05n7Dn6GXtWH49na2zdA9dx5DZakEdiD16BdUNNbFnCmuc95Zxr2ejHlDS1vSR0NOmxxj78DOsv96bGzBhfBi6XKdqYPoDpgwAWCIXWnfR3TrnwrDzKuXJ87IQfP8GWPgxCqC/qiefGoYusykO9YMRKdG18fe8dpw1K3Q/9ie6cQBI3g/TQO/QhZCripbxms+oDIc0zwk5hCfYsfTboX2uLjAESnHHgVIo1KlVe+i6/wnVY/+WbrfacxrGAamCPuSN4W5Nd+8hwecDjIzR2ireXZXSiKHIw0QHAY0bkwiSmJQH1APJPs97tmb1jo8Wfe/1y7+YBgTrkSSRMQBYcIFo305b8agL9pt+lafKXR6MZ8CDEKH4mEdva4hXly/eItE3zOCr+WFBGzsRMUZ5UJkXgE7oAPSepysljxRKOF9ekK94LD8iI5BROowkv9WBcrcbE68QUnlWkb7K+y6/vthzKzaAdESLFetDc/YRNp4h5Q6ve/RO4j+ZwoEfdt9eS2KOtwx4R/3CT+WzvUdyXL/quYZj/IviuMXzxdn6DlyU2X4AvD2BL1Yf+oH6yRKelk3fupTWI9GN+GIiubQMXXuoU3sII4Hcj/WJ+0jz8MLAW8n4rGK3OsuuFWmlDLRM5+xsAKipfT4lkL75BF647kvicKTrcwS1WwipG4hrT3G82PrXB4vV+q38xW+lBJqk7kUgvoyEmQRZuOwBTvBqszmlUEjP7B57ziZRbNAkH3Mm0itk+HmVI8rGFAPJ9/lZ+br6ULdWT1zrP/ZNVBKgIpv7yHN48+kjnXP/I3QsvZJu5O3A0TqHeMjyJdKo+xu6o+KIRvi0h3SwO1dgGoXOmeUnzlpIUfEaakPd4gvpHjTjAwmfEohXQOVNT4dnp2oDtNjyG6mGNYaihaUVtLqr62pD7XKdqtD/rCYJKGmU7rK54+0z/j9ei3l5zzQZc3+9IYOtzfLcqULujxwuDfP/R3d140m8oiHfZlvD9ay6jVcAHKARTrckwBvE+YZB4aBf/ojuwqgRvGrFpTwfqLCsqMhPr5BZBZvecdjfK3LAdBB+Y+PQA8Nd88rdEsytee0fWLm/W+QamrvTH4MKOcb3rDEv5T9W6MKnrw9IvaH1SpxXLx87i7Pi4+PhApGnHqtfKsOL6dNLAgtDK28PUN50p8iNnUI443XfEPOnV37E+5Cxx4e75m33vABQ0ixleCcGmc4L3La88A+U+ItRyLOEk+TDnUbyXMI1hvb1g7SvSD58eq1MTyV2mz8M4DWvrHpNgyFE5h4mwzMv+FH58Xx+VPhNheFO6KAi1XFMHsb8BVTP1b1vSNVVffBQEe6LjuNARKWeA6ouSd2zm3zpwJ90/eRI3TO/2OHIakiTnfsBKuOGzvZdLnrlj3npU2/3CvJeWpcB8BW3e5RrX2zIe9HIw7/Kg3uFLKNb2mFJWpIG8Z7KfRQt2xn6S1Ot8WkdpOlVAw7iqJTXC8Wx79D4+qoL91XiGTJkyJAhQ4YMGTK86vHSF8bFFr20p5MuQNhx/R10tr/v47FVr3+t3W1WPyx8yptFDv2QZEgPw3vec/hrgMopvc9A1YS38jrshv8KuTpdAIdeXbI/Z6qP4j0jSlHvY3i37ez/Q3f3su+HcoOGUXvh3DAw7vkLqar/dO8qveCmdZZaSnes+H7Il22XBFiYLI8GnDmJ1/rll8adJHpj1yrN79az54bQpsczY89dzzu34sDONfBMXZRXv/KSkKuxdOclx236ReecZuFlFd2+l2GJPVvlBweAeC8W1hWfPlJ74Rxaq4HuX+pivo5z5sUjoovpaRTULssLkUtcSjS0IdRfqdM8+tkOGi/eKrOfoSKlhSNaNhzg1+7R+msJ6J0Ut01BEr3DSIdLtzorkRpVgFQdcZ9d6Jw9Z1BRB3E1Pyl1b9umls0HHnwmHD5cp6iMOgQ6aTubSFDuvWIKlqGCT3h0NoQ8LWrRSUUK0IM64Y5Hmqemc6Sna0CmiQW4V1h7CWMn4VeA/PAY0/mxt3kBaH4oT70tS6kgiXQ4eOa/H3qyI2zrVO0YfWx9yPHkHkHBNQa/9y29LxXxUyV5kPANfpyPhJ90WnTej0rV06+yVBnFI+kFSV7Cb1J/BZvOVc5VhY0PPUs3MObYg3jN4TkW9wo07spwgCQsuwJJQjT/UmUl/WhvwfcsfOiJw50absLbK52H+wuV8nIdTUaWmU4rH5Bx+lv4QqjQO3OijeP5itGiOHvARxp6x6cuIsbY5819A4LI2WJwximoqB/60H0Ab/huS8mUsoRPvh9/YNRHfzzf9LbdkYyWsST1IY+KcmIKy/YJXZWIaXpJkPjiAmiLTxLXV3wvCh5QjzQ6nmvUAxGK7W2hyjIJDZfeCYEJ3iuhKgnAPj3Ey5PoAwRe2EzcgxfODrU2RzcNPE0XNP/IVzSMbcuz9umfD9tvuIXu/o1vD0NXaOMtd9SRFcKLDV77vFLXWrXB+Vzjh0OXndSnhcAqkIaDQ92y/6Bz0Fmn8qqNKWcucXUuXCx0Od1o/KB6oFvI9a1Qp43nuhWXhAG2/VlFAd30p7DlfZ+gu2vDb1gQAOddobLACXC5EUfRXb/8YqZdkcyL7pj3BV5L0iD3MDDtIcoTPMY4yqHfxHfQXf+tL4V8Qw3dO1et5nXQ9PdpYg5QLLvlwfD4k8/RjR1WAJSptAxnnqrznI86tEaSkuhSVDU6NO+f26YyumfDo+G+RzTcPKYS5HWud7FcLU1SlWmRH359b8G0t/CKoKIOC/xjnK7wfvlwa/jOzX+ge+2v/szr/X9oZQMVgN90h3jkIdognjDukDDj1NfTfdLYw0WjfTqANZKF9pg+K0PNK1vkr7qdT344bEpMWTpKkX/MM7f0Qe/itBm5O37M4XQ3jh3O674iRkFeXC8TniDXvckLAPmheQH0VOZFX/KwNGEKyspbf0fnytseCutaNC90aorKFno05hht7L3/RJ0i9M/vPy4MG6wdZglsv6JSToJUxwf68quHVS533fcnkZf6wVQzn3qGjnTUJfsQN449JIwfeyjdkEtlEqwcdJbC1beobK667WFeWx56hvWFw8vY2GMPDtNOPYbuj53+hjBsiPPoedI7HfocpSjpkEn4D2u9fMNdD8Vysy9AIyVf0nwr5lU3cuVdEqe6J4w5LEywdDevvE/+JnHvLzRP15M+9ycgW/9Een/tOzf/Ljz0tB7Exbrf8j69lV7j6NeJHmg5TsoJwtNA7mx5PKy7/2m6US79O4wGmxtUxo8+UmSqdUCurAdIhRzKhvpdu/HpcPcGXc+CKV4eRilfFaqLyt+JY0fxOjHq5N5BU6Th3dnyBK/rWp6yjjDSJLpsc34xJdN3VerKF8JF08bR7YpJuVi6ceuxJ9WYde29T4TOzk66y/JBT74raQVVHvDM75fzXRKeTlWE7HOY0gin6OLIgwfSPf0M/S5969ZN4akntXNZTIXrcQEI13/7vPe9RZXV2x8+42/CMYdo3F6PmLpkyJAhQ4YMGTJkyPDawR4swdqqRxvZH7KX1MuMDCTP5bFZF7cc/67QtfkxuvWgC+1Zo3eVvHlgAelw3jDYRkvh88BFgeOHsSU0wV6QvgerUSLafCjYfr9Dll/G68DJmGKgfZB0D3NPE+M9pK5Vt4bWmZ+nGzbXWgtvwGSzrgIMT52cVmILgpzN7pYHwpaJH9Efbe3SSbP8zufD4HP1aOJBzbNDda1abz1u9CR9GkK+vT20zdC9iHfeeHMo2NGL3eznKXpCIVqRa1ZewmuhrkbCS9K644Zb6e6c/tnQ3dFKt1rkvJfmulMQmau79rxPhAELzqO7qn6Q/FW/bSKX7Su+R3fsrcIi6ulDT9KEAPkU6nTXiCEXnhcGztUpFd0bHwwdM3V3je4NulPG4NmfDLVLbH9rQZQH06FxQzKVq7H3P3x06ZR5N4Z1G5+hO1dUGVl2EJDn2sXvpnvC2EPkb0rHLIx19z8errhORwRW3bWZV+xawgWJgpwILC5yjBIwOfLQE8nvtefwCmkoAdA9da9reTpcdPUv6V6z4QkJzXvzzmwiT8SQWGakHrICB2uCW2lGHVITLv+0Til670kjeU2HASR5lSA/8VtJ2bThS6ShGA9rwfseN8Kw8DCi4BYWuZhowpGHqpW6edqYMP20N9ANuXicmpYUdmOqkueVt6rVccVtvxaZPUk3Mzt6kbwwmbvlHLmS98WnEnl5teUFn2ta0vVviw3pv//C28PDT22jO5rSBJCBL2pR66m6UQ6BoYOrw6X/qiMwM087Vv66jIQsHDr1NS2H6rSQ7Fn0i3JKp7j3sKjInm/t7A6XXqf7fX/n1ofCQ09pvRHM2gPgba9TC3Jx66DHMX/634fm6WP1B/Tc/Yp73Ua1qM28ZE344591L3GXIUZakroa1mZ1w/Ln1vWhgweFb/2bLsydfOJIYdv9KxO6ACmR15qNan2fdcld4bEndJSPB0eZtTIuCIzfk+cDwjWeLIp8Ee9prXzBjNFhgVlmq5u+Eb9j0FcHcspH89xaJpFHPhSeFnGl+POygnEEAKW1tEZH+F5pTJz7w2RkIyUXLQfqnj/9+Oe1VDev/EVYRIs5kFhxNcma1vmiR88XxsKrfhkWrtB6b3doGM3T1So7f/oJvDriSKjoQswiiXvtRrUsr7ztEakvdOpflX3ni/LPLd0lfIUtk7E43cMA+6XV+q330VjI5LEn1TI9/eL1Ug4epxtAGQK07leeubOU6UdV1AFplZiMKuWl/hyNY1/H6+rFZ/J6ytybpBxomuA3sfj2yG91U7dS8neddbVM52tvd8HkeMeSKTFuL5eVnGXIkCFDhgwZMmTI8BrAbpbg9A82tL2VLT9ii5sPdm/ht079JK/bV62Wd7VXTEuLmaz2ZOU8UOC9X7eoOFxE0TrB30kvw4HeV3LUM3xoz6x6zBvDsFXfoLswEpY4gVtnBQjJQ0nLGfGUt9pisfMW8bp15Q/CQNv+q/ba/wyFoWqFqgwFMP7Yq6IzWkm3ztTFdAD6R1Wj9JjjhisvC9VNalmrVAQNC+EX7/sNXc9iweNmtVLBFu7eIaPcUTqvqf7yBfH4Y+eNNgaTZ+eiL4cdzV+muzt0hYLJnbY+C9DDLYwcERpWqDW5evzbYpqKm/8UWifrPsjdG38r4euDxOIroVmXEfd8b+Z+jW8NBy3T7dlyIw8PO6+7ne6Os+eEYpvOf/JIoBcH2xZ2hQlvo5UGQC8379YncZfMOle59+r+R+PcG8L6FrUEu1UG1kATEbF6iVqCG8ckc84efbIjnP0f6+le96sno5y89w64xRG9e9d1zK/qyaue54u5aDEsrpnFK+xAUYclyLlfu5fOJdc+kNyv0FVHEi+eJ0HgfipAA2wjvtXi5PFqCV722QmhfoiWLdZNKSF4z78wcZkEby9a3ZQud7mSpKlg/Ele583aVypIDWamV+qwZT1krciHieO0fF+z8J2hfrCPiSBsey/vS0XSyIcNZpk9/z9/Gtba/EFaWXw7uNAvFIwP7JNdrjJ3Ua9VuSrRbZ2PCGtt+Q6zvjEy9YN4Ntr82UlzdBvA57btkLuaVlh8497lEp7Pn4UhqRz3+VbusS942YYbVvzbiWHa6WoBt6f8i/gwGxeoYvrtvnoSSB5bWaK2+n255SNxqE/UFcKXr9ORmfkrfx46tpr+yft+QmW+JLVZwfIeaYmWfYSnafS5gRdMPy7Mn3E83fwuWSTLb/1tmPUfqq95Kcglk3+0hLFsJHU3FukCPXLN5aNCyB+Nb+VnTwofO0NlExMCWFqX3/z78PGLtQyWUt8dlMHe1jPKwixakFv8HhGpd+0axZkKa8G00WHBDLVa5lEOjH8NW9/QomEJNiC+ZAEs/Gh4KA5uceM3zcpVzuYlYwTgtW4JrgyjNzQMtwRfKNd0vnvVAn590fCcr/44rLjlQbpF0KKbqneef6iXfM4s6quSrYBDuL5VK/bXL6/R9prLZePDrWHC3Bvp3t7RI99k5SMv5SiWU7Zx1J0XXSzntSz4PdU1OgVJHS4e4ncRbI4frdbYdYvfy2uT1Efr5RtE+PAEAB33uKV8o0wCSYsDfJhD7vnoSSUfeKJ8rpPv4ITjNG6p5HjZfToEfqV4UFEiIil09gCJcC/+8q4bbg1bJuuQch7LNIwDLIpTESM9SUE70IC09cVaWjxe6fQWWTIcJCm1xSnwg710gSFLUscfu4Kn4uLr9hvy9iKwa91PQ/vM8+ku2kERGLqvbT6X7sSnwrlKh4ebbbN0n+btK67lFcNangYcpDFkwWfozguPMX/EjxfGsn0Idq34UeiY00x3ue05VoD6Qz72NjaMQyoGG38ILw6nWeHrbtsetlqjtWv9T0Rp9ePKaTNRrlLo7INS8xkdshm46LxQZcc0I207btBG69Zpc0OxYyvdaPD6kKjvxMmpKraAoVxXH+oX/CvdA2eLrloDr2PehWHbFf9Nt374ldey5SumExTqh9D9uofvDmFo5TQRAF57bz7eK3v2G1DZr9/4FN2louZVjgXcMkg+TmsXv4vOCeNex2kJwJT5N4XOTpWNNiY13WhQAVygYGlCReN7PUOevoc0pWAFvLQ6aXi1dyofjfNuDC0P2lQNyRXmEdwSdlQ1L1cl6VTEMgZSd7pToQvTNGx0Vr0B6lMrxhxzcFi3VNNaOxhD1P5y0oivbvqW6J3lsd3DRyYObUuEvoCkLA1fY1mQbrQJHwXTq6i3uCo/Jwgfv/jGFLoB98GEWRodK6UhNOfrP6a7TT4+9CNAOfXGBvj3RhLuxylMHhQ+cBYL5Nm9Wjsk2AHF435MOj3jPqEfudZtO3nFW8Gm0GiZ0zRh72KPL92IiukQeKMcUw1uXKjTnpJpKX3BZa5AXeipkyarMK5lF0lyP+2in/OsE7XsVp2uE8qSr+5BeCv7lJ3UxxMfaz+gB/L2eKSnysv8mW8JF0zToWcsTGt5aAvdx39iVfyoFiV/PUzXVcgn54c7Cf9l6wxWids/zNQHixB1x+rLtAPaZB0kvLfqnk10Tll4e9QvlrH4nl57I+pfSodwzxsHqsMqx3TnzTtLzTP/ISz4mDa4Cqd8M1V+8DxKSaD+k85IskAUZdc7SOUqed/cgLEn/GgdglIXp+a8wng1NoLny9WnHGII3zt490sneer8tXQ/+mRroo+in1VWTjENAlD9s7KEhqrlCVTG2x9Ql+Id+h1+5Ek1+rzlE9eGtu3akWb94nHI+1XWiCyiW+u6J/nucbsxonLKTAryPSqjkypAW6tx3JF0r75U6+qJ85BX2sYpMHEaB84ByNkCT9YRrv/yL+qm6Xu64YsgWLcJoON+JgPiaxx3BN32ukk7Q4YMGTJkyJAhQ4bXEPq0BGubmY13tvaBovyIlgb+M7TpRP6nR00IxXZdoIAgY9+7oseKnqS22g80kMtevWtHcleBJ54K2LkL9guW0XKdWgwbli4MA6dPpRvw0Dws/vZejcTrnWksONvarMcHb798RQh2nG+9TafAMH4MQ3p5PgGeAdoD9r7bdRpFW+OHwq4WncLgdpeqMW8ItZcvoLt6wj+IEnhe6SXCLCkd877I6/YlV0nYavlI97TyI44IQ5ddSnd109tjWtMobrif1y0TPxp6bB9hcO4LbWjNMQtq9cgjQq3v1TvxbbwyeaaY2y5aHNqbr9AfgkTXxJcNF4I7AEPgAyboAp66FZeFgvAKFDc/Gtqm/rO6W34n/Vt/D9ZKt3hoGGkrycAZU0OdnXLHXqczRRgfrzAmzftRWNOiixi8V4yh4Wi5FaxbrHszt3eUwlnNuhiRiJYN0Q63HFl3Gj3+xAIo8jH9gCUoDodyH2fz45Zgeb1pzk10rvvVH+Wp5iuGs9yvGtg0Pi9rsB75cb4oi24VLpUkjjh0hUd+X3r+xpOfugZr5uijG+hes+Q9ocGmRjBejSbkJn1LkqL57ZYRWAPdus3RA+MNVnS3/sDy6cZGjU7DKJSSaQ9ujckVcmHhR3Xh1QUzUMboFEhYFs/yW3WLuE98ab28pR4QbrUvMmWZsAjlllsoYaWxu8k9kR2nAwgQVs9aHepETO73lDmiJ7boyzc2LUulBWMegCF9FyiLkueblPnep0eqFUb5hA7VDdatkB7+7gfDsMED6O4NY1W8m0uYTyzxvaH8jf3EdeF+s9LGtAovPqKAOs2tmRj19eHeHuioBm3ysnqGf0OYP21cWDgjWYTUNFenh9y14U/R+gbbZ8wX5xP6kirzbmenJSxOv0D5oFPKRzmMOkRHAR/+zod57ejcFY75iE5N27JVdNvqG4UxzfSn3UibfIFd/nL1clBxX27FKTtWZvx9YP7ME0LzR9XqmH/nlRAO3ZSMW5Ohc5bGaE2T5z4lBHcrRlJMR/PiIY6muLzFX6wXXmG8/JZgpEevWp5VXi/vdIgTUmWhFDaY7p8y++bQsV1Hb1wnFZhyoGVBFIEXTD1K1yc+BcinJhGSL8XVagl+59ybeV0LWVl9CJ1MdBh/9YdvIwlwRMqyOxd1B/WovSjlqIy6G064TWfweIJtS7fWvktNc28K62yBqL8OUL9Mt1HWvDpEul3/XfchL28PxQWFhNQzOa2j1152RmjstQ2dpTgBDmDAzZhuFCQhBA1xg9JMts6+iNTd3iZCk+dkSN4GgyD5jQIE8o/hgY5EqJIEu6aBIoROAQjzflHngKqOOiIMW/s90sCPTaX4PCTIDOT3WAhdRoLiuh+Tnhn7nrBVGr8gzD8dtnk9qb80fkGq8FAmrdg9PFcUoGfj78KzI04idbVgCFF91SyYSxrWcnPod/JbSbFSR2UVfcoHuLU9PHvCmaSOJStIaBwWJPUg/B143kzSwffdHKqk8QtCIxRpUwphx9JlpKePP5PUzca5ahjm76C7RCrlw+A500n1G25k49cbwEBZGs7PvvMjpI6FX5U7KgMQGh5sfPDDqGFjNw7QkMubw9B13yMVRh4WukXGoOeOf2/o2vgbEub5JemCfqPxJyR5owVN7o88nFQz7UNMF3ONMvNSwRLzFwG+Y8hHEHQXxO9YzIdi+MXD7aQZl61VOQnhPqZu6PQN3d8ChAYlCFMCMAQKwnAYKkCQlg+Vc1W5OsbtmPe1e8L6B/5EAhcBQ7FCGJbFPE2QVpQahssZjRUM65IkUWjkakNXNF1+g9AwwzQJEPyhoU6SsghCQ3vjw8+QZl2CuZYaB2JDfoGYSosT+6eCUJbRkAGlecOsVs9vyBQc4B/mSqPRBUJnQ6nIqSQgNC7nX91CasdcPgQJEn+Y/ws6+0vrSD0Sn9ediLpb/oAgf5QQlhLIQ2QP0uF45QplSMuRfPZcBvIb9TUIvjY/uZWE1dfo6LCzY8UHae2Rrx0I4UY9QvrROLMGmtfhDkxFQaeAJLxt69hFuvHux6iPIPVuEaUhPILYAYEuUZ/ET3wnhFkX/5h0/0PY51tiFkLjF4R6DyveQdBN13PsZOLyYB6a3vkHGvD04ZZHt27Dn6Wx9BSJ8oM/PEN+iAPkulNmp0/ThLnwrjPw5OUDeuO8YprEpqe2klbd/Shpxe1/CM9t3UXyhgGguYY6DE2YhGeExzC9xSGg7gt/ThGQifAFggxUl8W/XEAA5umCkEmu/yxDFhblaXJCB0M7GVqnOMUwUI8gLqESW0sUlpDKCLmVYR+Qyso26SBNmncTqXX7DtYTXld4HQhAY/nP8gx56PnNXW8kUBB9o3EohHy5/8EtpPUb/khi1Jj6KAT9cx3muhA8FEIn0+sQ6oVFhA44CMaE6Fng9TnqZedP7kpA+g3SkgveJSxXLgF+MnkoHxaHTtey9+UtfLFASWy4q/cU6he6DSmAJEAh1U0n+MqQIUOGDBkyZMiQ4TWF3aZDoL+PdrP90Na4AO11aYrTjXvFdT+h+9kmHeKBlcC8Sm+Au9PSzSEl9BgFHL4/gNvdaUF4WgCkB0C/Qa+wziiweKrqLD1ed+jyi0PejxVGj4smBLglzTFADyUfemz6yI4FS8K2y6+mG/cHzplGV93iC/VdwLMJVpQID0seC+2whW9tM+dIdHoqSr+xrw91V+rwff54PWlL+42eJ8g3DRsrvrtb7LjhiR8O3a06bSEmQzK+30g9Mapm+f8N/SecSDeQ6ImEY/tFd8xdGLpWXEO3awf6ab7grFCuCrmROj1h6MqLQ/V4P/lN+QJKG3UqxzMTPxjDrYLlItgE/hyWwKkcwF//Jj35rW6Z7Us88vCoizsXfjV0NOs0C4Ti79GyYfHR6mYJ5vaagpo5s0LNfFugKP865yyku375JeJb5Yg3YJVS9ys14qHxTTz/5rDuPhvmtrSy92vDokjfwUN0OOgZW/gAoIePkR8Ayc/Zjgj+Hgw7TWN0Je34MUdEqxLy2py8uuzGj9MhrnfO/hGtokBVuV90A8mQmPTsrRSdc7rq5aemjg7jjtWpDMK1pSSEjY88F1bc/AjdOMFri62Sxp6uvr8rLQa4pMJFom68SHcnee9JOGFQ07fwqg0SvPIE/wB2g3DLirhimmixhCVEkMuXwtZOPalt+c0PhtZt6nbdRjmK00SwewNNhCEs/de3h3Pf92a6YRUe9/Hr6H70Sd2fF4YO348Zoai1BOGCP3PnusJUW3R23DHIE817LEIGVFomC0EyPFsKS67RMuQLzAAvr/lyUpYALMwB5rzvhFA7RMO76pZNYc5/6rutneZX5KPjg+IUBfPToN534qjwA5O5PIDQ6MTTWGeaaLnPaKr8OK67d3P4x3+/jW7oV4+96MPxsE55WnUEQT2MOmxAaDxOd7o5Cns3W0TUW5qm5Zbx0zTm4DBhjC7OOV/SdpnJiFPAChoep234Lj5mEV/86RPD7Pe9kW7UzUuv1/2K53z1XuFP32OZ4olh4qXUIyqkYcw4/WheH3miI9zdYqdjxd0/EJxorpW9uiH9w8zTNb+HDNETLJlWswbDupZG1FeB77LDaUQCpNn18mQpz43jVEZfXLGBIw4AFnebk/C9ku/cYDsAwRLn8oRl3tKExX7jx2h4KD9eR3hYyOHnmyqwP/Hq3B3ihCi7qQtu58gBgHjBNSF1F757hNz3OsLTN/rYoaLfWhdDj7yuiFMnBazrrEx88apf8FoSnfKpRSixBStX+H5MOVl18e+Orov6pbxb2FZOEGR8jJGGlFLFRXmiR0cdqtNGp5/+N7yuuOUhqQ+1vQF4OS1I3I88qd/9lbdg+piGh12ZoJNAuq5eYFN9sDAw6it4MAvzdPnWjBhu5cnrEPFoITjkgQvV5eFwn1JwtzTOoHPnnXfyipT7aE2VCCdutSMveSZhZSEGnQ9YeGsPSIkFTUbAP8slEXa1CXXIgnPjbghauBwQhmtDIjpH17qfhrazP0t36ZHHQs4az3XLLg4DppxCNz4zasIHTOnTkEBdZ9Hw3blyFd1VtTVhgDTcgCELZu+WjWnWELo3gncsXR465uhWbElq4VXzbNDsc0KNpJeoV0UCsALVV3Z33/fr0HG2NhgxFcPEJNzrR6GIDyMZsPCadWeKXN2QRHqiL9suX0an80OFt8Co1FZAc/LBydcpL4MXnC9hql6yEyLItXeG1ik6P3KndNySvHS5ih/GnNyvHqkfxwY7iKTQ+DbJL1293z7l46HH5sE3LFscBs58H92q6YpY7i05+xtN2B3CD1UwoJLz7yQ3HPeaqShysw86JKiTn8Q/edV8mWKNrUv/5W1SYWhllZeGYKzcBBVptQ/DxLk6Dxg7VfiWWvSXKldeF4w99qCw/PMn0z366GG80pvlG/RJQ1A+PQRs6zZlvh5nveGhJ6Si1vmnvkMAGgneQIDKHOnzMb/7QdVTIP0xsDRTAMYnBg+9gceGkHU8kRY8Azo6pbE/53/p/uXDdqyqvJ/sUCDlx1ZoTxg9PNxuW9QtWvHz8MWV0ggXJDsBwKF8gGe/D32fa41nfGRranzuMcqmevKKnHUPhS1gfnggIZy1QOV1450PimyUJ6/2Mb3Et7OcfNKocO0iHOIjwHOTE1K01A6n+OwVP+W1iB0HTBYsjpZszA1uu2E63RRp5MmuhOtG0hEFXBeP/cj3JJ+1jCFdtsNT7CigMVzKa32C826W/ovq0fTTj43xIH3emVW3BuJxJBqgjaU7N2hjCdMh/DuGd3R6Xwgfs+Ndl3+uUXhyJAYjHEF8ETpXAhh7kp1lxIeFMX6czkXc+Ehr2NKh8zvR0Ijza1nA1L36sve+4BG6noeeToD6bJnhaa78Lgn6KAfaelFfaId/4aqf071QGsoA9c34xC9v8F8oDcALbMs1DIV7QyfGVxHxK4tX5+4QY8K6DVqfYMcEz6EefO+s0Yd8zfVYWkRfG63Be+W/jed15OuGxLwXD5V5YHkPI8nZF+s3bcUtavhC2vw1dv5Nv+a9703h4k+pwYtTMexDoKZObZck9RBgz+WHy0vh7+Geuh14z+shfWbP5cGaFt356JR5qG8tPNHddP0D4JtXXqvznAm7Lw8oJwBxxzrAnldykiFDhgwZMmTIkCHDawC7N4K958CGs7S60VoWYqPZ7u9cd1/ouvNuEo7qA8ECUpCeCkjb2mpfg9kav0FuXTlggZ4Peg0g/BSChRB2FxKsBEIDBw8K9Wu/TRrY/Bl5Bj/qU3sqKgEPA3CRds5uJm1p+iAtwKB+Y98Uhrb8kDRwyqnSs4FVB9KTNzDMwKEGDRche7jljrbQPuGfSDtXXBuqGt9GOnjDLWHQgtkk9sYsTf6iddYJ7EbRMfNzSrS6Whqkp5UfNYI0bO1/k3B0cK5+sJL4coLf7atuIbVO+mDY1fJbEqKBFRlUKneRqkceKmF9m1S/5IJQqK0jwU+5bQcJh660Cy8g9npBol8eH4dyuEtFdyhMOCkcdN+tpEGzpzG9oJ77f0fCriU71t1LkoAoP9VFhIsFNFiOgoUhEq7Q4PPOCQe13ETKiSxBO5Z+K7Q3fYjUw4M0oMeF0HoRdqjQVFK2UXZyAe1nWHayR4sed7rXncciIZEPd/OQMlhVzJNgBYZ24x9W0DswxLnssyeTrl14KunoQ2ollZqD7Px7hCCHxLnhoVbS2o1/JmEjdlieQdjz0fME0y+OP3YYac2SM8LoY4aRaJkGkX2VLYCDCEB41zFieC33PAaNO/ZQTocA0QogBCswFtiBUFLSi5I87HT59vzDiILzqQegeF5CMcRJz1gQItIQqh2SD/8+fQzJyxeGEouSDhAMwq5rCB+1IOi/b39Yn6X0A9MJuNBOiAuzjI9l/zYhXPavbyXRCmx8uGWPQaAws66wG3QgTca/+O/o3ErK56tp5QQh60FqzUFdlQ9nvmOUxCthgVA2ypCJ8C9hfOzUvyXBGkuLLJ8pn5SfubduQ15CblorGhcG/cXFjbQC46fwCpIwrr7pYdKjT20RGdsQvoQDS6laSzWBWMQ45pga0ubvfCRMO+NYUlr/1Tqq8alb44Alyy2zDtHWmCfQIVr0hdQqXybNOO2NJMhCuRAS/mj1FWoae7iwKjIBUWdEh4TcagZgmg6otaOb04RAmi7lDbxWiWhBTSkrcKy/e8H5TEPzDiM/Sb6qD5UF+KcFWAja6beRWNcJcMIDWZAGQ17qbtc1pgv+haS0SYqsxDJu8CVupCuVHxn2FlXhiut/TYLulEpSrwght2J5w72C6KwQphOsWfJuEo6RB4lWiCfVKeRnGlwAyQzKh8eeaCNhFM1H0rzcQd88vne94xi5h/Kg7zF76Ts1Ou26weda9gFrBUo4YFyRuBIwXQwPhHAMElGV6BkIiuo6imlLUR70j0WosA1rrUuldh1EnSq/lSd8k0Rf+R7S7HbhXvCCzcDBPASij4iti5ZK5Pg46YcGRFiFhkT7e6gGoyDU1/5HlA4SbUDmywUEkaiiyG8RkJvK/T0UaOcZVbZj0HF/R6p77Meh/4S3k9CwT8JLxAmXs9G14Xfh2ePfReq84moSGnaDpMEFGrbhptDvyMNJaZ6ZaQhWCFkFwue0a909pKfHvjt03f9rUu3S+eHgNd8mhVGHiT/MIVKlcUY0p7Qw4aQ10HNNHw7bV/yAhDR4xTn4vFnhdff9L6l6wokkeU2AlCF/VZag9jnNoX3KP5OKbR2SNglJCPx6Q2CIpBPUsOHm0L9RZCfE8Cx9XRt/HVobP0DasUqHb4FkdTKgShsaBkuDfCEJ6c2POpwEvrZd8U3SsyIbUJHbsSnPOOHGC1pZGkvx4yKN+vprv06qWzI/FOUeqGPqx0ntc/4vhwhByBPX5vKmx8OO5T8gKRLZaOL2L0x0yhc+QKyEoD9oFCb34KdHGnkgAtvFCOl2Ukpzph4XZp7+RlKsMORFlGBQGsiO6Edw1a0PkXwHB1Q83ihlw8L+Ie++9dnxpPpB/eWB3BPCHGrOowb7YBZEmDzjbwXmuYHWSkN62JB+pIK07EB6iln8LEtlpzsY/PDezTFsDhXGuD14id8rTfiReEFMixHSi7Rr+nOhrmYAyfVd40Ilqx8fK3bypxh3Bnjsia3yDM8tb4RCXhrO1rhEZ2/BjBNIM0/9G4lMnoMgazDKuMWNcBm28sw8kv8k/aOgfxwaIg2ucrdcUV+hgSv3hTQtmrYRhw7hb5CGLTIkhTBUZAxKAA/gy3gzeKPfCVWrV69+z+PTW3IFSXA3/PRhUr44kI1DnybgH2bMVQfV1/QL1y86jcSt2cAKCOFHN674jfoMwFArGoeaV4DrNn57uv11EHQX20uBYl0BWZsb/zw8/E67I8TpOwlxjrTQiOGDpcxKfqPjJbcx5YbTbiRDvHGz9Nr7Ix9uCMAPBE3iM+Vf3UrIKx5exJ0+JG2ME/+1XgfcLzq3vMXbWk9E8ncNmAPs+Qby8p3ehpEvRsSAY3xAy4PPkdZuQIf5CdL6lsfDupYnSWs3ivu+J0j+fE3Ln8QP/MnvDfJMriCcoJYO+0AFdGJvgUOGrr9nEwmlifohVOI0Jv3+oe7AFAgQpufshlR0vWP2eg1F68hDB5OiEKWseLlj3YSOsNAVmAqFgEDUe5O5/EH7Dv8cjM/Lnfzw7z8S4XqOsF13I3ozmoKXN+qoXECVLyAciUWidaNNon8gIOXGqySt39xHhgwZMmTIkCFDhgyvGfSxMC4NtNa1nYyGs+8c8Oy4M+S3tsS1X3BgwS27MDBoP1n4R3eKlsAEuIehW7r5V9OKHor3D2DNrJmri61qLp3Pq0LDwtACrTmABOLxoa/T0Xw53dsWXZHEXa+HX9RefmEYPO0f6UYWsKdPJEvhuEepr7ps1U2zO7/w5bB9yQq6qya+NTRcaYu3Rurk+D7hHS4IRLDj+jtCuy1eK2MHCMhGUH3c6FB/le6qgAM1Ej70PVrGzF1u7QhbpuqCMywaMwlIqrk8gu7CqEND/ZV6qEX/CW/hNXo07FipK+XbZi9AN5hulZXJw1bBojc5wHajGLZsSSiNHE43WW/XRTStM+aFXTeoFdkPT4hDIwLccSnDPWCyHtlYv+ziEBp0AVhXy+/C1il6iEbXZj3GEUPGMU20qumKbtyrGoldB0I4eNNdMWyHymv/o3JhnKZ1T8CoEixcAETUYNa9h7/9kVA/WBde7clyEQ1DokfptDXO+yGvd9+nPGAf4LxtrVGuQu9d/U477fXhW5/TxRs5kZbXIX3HtmfEKkv4bLaVzYuu+iWvzAQbxsVYhA79YR1nv7BllZbjPcXn+UcDpCWP92IdIW+aJyTpiys0zvkWNyxjFDAAy57VQxgqH33MULq/8r37aekDPB05HDFrCwlhwVswcwydWADWbeHBfuNyLJa7QqGgh1OUelQXsTexW/pRZ2PBDwBJNM3W/Fn/wJ8lDJWN7xyAuH1D+3VL3hPG2yb2rI4qBGVlaKLWPZiK5Lse6KihAiIov8DhCCYhBp+4S6GqaRndsES5bDi9xfTO9XLs3wwNk9+uu9TQIukrXCDzPoERtEqZTxp7WDhprO58ggWdd9kCqiQl4E3kbf7XLT2T1wljDok8Ay4iLAZtnK1HUkMvkR6HSjyEk4/XKQ6Y/uIHAxRKVZJelT/iq7LEFiXdZ9uuKYfZ4k7UO74biH4zUmkyPakdXCX6pjvujMFUI0CCTAy28oPTT+S9vHxfODK2Oxau0HK18KrnX9D1QovCiJTAGs83XdzwpMTt0oaENN0Yp/CRZU6HIaT2t+8j9nx2dVsr+to4xqaNeEak8GpcGDf66IPClAW3042RC+yERJdUvr7gF1NuptmuCkfZwuV9BcLa0r6d7q9cqzujcE9gk30P06lCRVqbbOcf7gRiO+ugrMNSDNDaK4D+9li9UJD66OQxqotNnk+AhFfK6S4zovG8uhz6Aqz+wMS5uhD5+VBas+8Hs+w55gwZMmTIkCFDhgwZ/kqxmyUY1i3vNdON5r6hbdY8XjF/FHYcwP0eSHALE6zU3spPz1vxBON5wXoiSKv3DvE832Bbll12Yeg/8/10R2uC+HNLmPbIPcR86Nmgvaq2s8+PlnN0marH6BY7dSt0z97qsW+Ud7X3hDl6FjThoYGb4hrdn7PtnM/xWt70p1CzRC3SA86bJTEqzzjqluEIuNWIbWGDuWjqCqFzkVmmF1wm/TbrVcr7tQs0Xwc1n8ffgKbL31Qg3d0bH6S7fcIHQleH7uuH/iO7hQLslVu7UMMbfCHCM1gPmpIzv60z50ZLsEL94ClsN0DZto6rnT877p/MbajM8oH51m2Trff3GE698XTrc8xB8m1c0LMu2HZq9ZIP/SbbdlAS1w6zrnfOXcg5toBv8wWO3OrC+Uy2iAAWlYLkI/C6+252EZiVAA677mfsiyUYOeSMoXTMef9ouhd/CpaM3n1iCcutMRVpQRyJ36qJ/8lrqazWSeQ1LDoArZMWxvWLJoXJJ+n2c1wY5SadXnr2wjBdknD//JSOHoz60Hd45do/t06gaktZblpvnEl37WB6orsyi5TPirlqkqlen+Dizy6/5oEw92u6xZBbm6skDl9sCKNNySwmM09/U9j8lO51ua7lcdErjafKzHPQMz+qF+XPjclxqzQB9c7rC+5prJ5cL/M4kQ8WZbgl3p6159CNNOG4ZGD1/Y8jMrqTWkFqPts2bc0l7wqN4w6hm/HRhTjMIchN/BavONKa81gFPncXQPL3xRLswDzR4z9xA91ljCSYL6bTLdwmNy5sy5klvNyVlE3y5OnqFr6SGGilF/ixyvOnnxAWmPXulHk/Cut+qRbDMvLBLLPySyLTOFdfase7mpW1N9a2/ClMOl+Pn1XTtcWNReOWbycdr6NXM099Y/jkf6yhu0uiwzG3ACyg5gxVpepo2ccevkD6U40t2HjKFtxydRmwrBn/4836tvgz7wjHjzKrMJ9ZfYjg7LXeeDktwc41opo4V63ld254WvTV+JeU+yiHHoetb+SC5nGZFnDNV4xg+H7may99T5gwVvXV+Unj1WgJRh5ftNJGlnCMvH2Dcjkci65y0a0CVXbxW7O3sHoGOnPl53Rk9eOX3M1rKGHNgOqGrn9RwDqMs2IBX0irkK+01XElG43RBXAeB9oQGsrIQ2rC4k//A92TTxwVA9e3/Y2+8YpbglHhl6VCBaGxgiwHlTvaw84bbieBf4zogZDkA41gmgch8yBkkG6wjgzGBH8UAslAUSwdlvXMgp986Dfu70LDmu+TBs74gNxBtiNkBd71uPCeL1rbuvDy8NTx7yF1S2MYSgAaMHNyGLr2eyQ0fkEMBxUZtDglR0q7bSupc/aisOWUD5OKra2keglj0OxZJLAMZQXhw4nc0hyTdKKCEcq3bQtbpnyC1LlgKQkNxX7j3kga1nJ7GDz/PJK8wcLhlarLztOxfel/h9ax7yQV27dKnCJDISShetzfkg7ecGsYfIGEJ4Tw+AeEhivo0T+HZ8edTtp51fXySCpAxpJ4BfJNbyUNa/khadCcGfJM803YCztXrCK1TfxQKP7xjyQUT9dXX6SlwzsYeukKg846Pbzu0btJ/c96Zyi3bie1z5wX2ufOJ2Ghh+8uUJDGAQhxqmSFUAHZAtAhzbMlvTeT5BEEpXQAg9N3nCRFJ7/5dSToPaSXJv2gylUI5alywSwCg6xRfnThlS8ggzL2SOUNgidfjXvWSTqEHcEGx/NVf33DdRSl9fDhQ0g90lgBIbcSPuEZvEJvqsN9Dz9H6jfpypCf9C2lpquUTrkyFJr+i5SfuCyhU74p/r5OyjV9MxTgT+j8r/5MAgfvEqMdPY1GDOIHcQEI6hehM98xglIipeQPfQUR+PgLQbf9uFIAUyJA9OVl2k9xAbDvsxCKFmo7kC5WckqB+SkeGb/VPfBjxwsj+ITP6FUgzyMpWMcKv37YyotDEl7bti7hBI1fKWWSd66FQBkHegi5HpVy/eCLVBB9w/4u+MdyK7oHQucfaQBV7gaBBIES2RQlr3y3Az0WGf7FLWFCjUBa8yBAvJGSh3rlM/eL9/wBwvOwfdHkWe84Mgyq70cCpAtESgMNP68bXd/Js+kA0hDLARvqxg/KH9OWD3dufIL09+dcG66+5Q8kdD69PmeQLwD42Rt/zwflVoBGnJV5HDqk2o+zAyQdosA8dEUiw1HsPI69KA1eITz3RVWadgV+elpfGUC2+xePPb1D9BvlGdMKMV1F/0GxkkVrkJOIkenfN5TL3SQs4n39IbWk9544ghTyOD5eSjanu6Eu0vocZ/5U5bpIgOtlFToksR5xJPW59h9VLzc/1R6mLFhNmnHpOjwg4mLqvyBeKe3JkCFDhgwZMmTIkOGAwW6NYPavpQnPCejy2zueXdfewWNrQbAO9N5H8MCC9g5h0fBtPrhfaQ5b0kiP27tR7F1JijVBIX/0UaTBF84JhdZWUve6n4eda39C2rXux6TudfeEnrU/Je28/pbQevy7SJ3Nl4msiiTYMQbPmEoa8rEPhp77HyB5GF3rEeYvSPy97qekXatWh6fHnU7afsXy0G/8O0iv2/wzUqFucAyjuP7eUFr7S9Ku9RLWeuFHaJeEs33V7aRnx54uYd5GcutK9aypoeGyi0jl1i2he72kSahLwivK+6Cdku4epFOofeonSJ1z5kvPUHrskFkMrRT6N7411CyeTyq1tYWuO+8xkjQKL6AdV32f9NS4d4eujb8jwULjvV61nSDP8qFf49vDQcuWkKqPOoKE3iTCBrWfPYdTKUA9bR0MB1SE5U2yHuT7e5brhoSGVd8k1a36WsjV1pG67/91eHbi+0nbV35fNKWaBAsiRghAGNXUkU3RJFOZ/seNDsPuu4mE0/O6N/+RhD2EY69Y1Il0IKIsMoYVSAgYWjeQBHuU2rq07JCYhuS3lyX27vG+EKwUaseS90XeIMlQ8aeERWq+d26uhPy1PWIZvVoJ9hkIl2Hjbf03cdyhpHIZ1gt5BN6lHGKhBgiWSwzVgWBbypfkb8qSgfcwFAhSezJ+w+qCsFTnmbfR8grLnVI5360ksoVFFoQaYOyxw0iTTx6hfAnB6oGkM/mw2sG6A92jdScX+sGSaBYYJNGtwuDFFdKtxIBaGmG9zEnYwjlGKVj/aBzQ57TFFkkA4WQ9HsErkVTJDRCE5mUJFmUPBBfoDUglBMYgN+hEwsvewmULnXJdRHa5FQo+HLSqy1XvqAtHNBfKu0iwevv2f1XyLzHHCm/COIl5p+TgFmC4CuH75nUPgBFQTtkSKhSUfLQP3JlYSPgNwjP3q3K0MAQxbGOoobY6LDt/Agl84tsE0nKmo5WYCuN65yMbefDco4QpFLAVgkol0T2NVgBuDPbxRm5Ov+ROEo5DhkTxjwl4BRDrGwpa8wf1CKa84R/VUIoVqxZhqkfqChA/CkJ418sVSgJfEEpl518NHnmqVf6irEKjkPdJOwv5yH+cvgRdUX3dF3gdBz3xkail//IWUt0Q1EOqptAlLNoEod7DNC+d6iXxm1724PsqvJAf5C8opX+o2Rwox/IqCccfL1xxH8l19C+JPnaHQMNGhausaUKenfLPoUcaVQAygoXI3AcckIsCpqQP9lDwAKQCfhxaMQNQP08f1ERXaKKhAECJcB/ABxODA0C1uNCUADQEVV4UaOfDY4MvjwM88AMLsMArf3jnoDXfpbtaGobAlkn/yIYzoB9vfQ/xabWOKpSDonTjadWY4+huWHkxrztW3RF2SIMdwACk57Hmu4eHxoCuPMcaVQAdCJcXG0SolQQuCwCNKE+Ln+kPVJkfzH1EY4CQ6KqkkAE6PKb3c7lqSbvGjaoAqG48STolukPGzl/9Vj/gAhYuf09+uT4OmPJOXmuXX8rDOAhpWOxYfi2dnXMuCqV2ndOMRrge5yzhiewLqKgFnm40SOqa59I9eP65JmV5vu4nodXmI3dLWHWrltE9+KyJvDKBrwBe9O4QUqmtWthE91knH8sr4c/hVHHyXuIULdAvLvM6N0nnU+c4/QH+0Mg0/aMIVA+Kq2cyj4iK8PYNUU/QUvDgJn5dr9QBlXsutyuUTb/A5x2L30P3KSIvh6eDHR8cCCAosuHh6UNjRtMCuaHyd6DsA3GnBX7FlTcMf7d8XdcSjDmmIZwyR+eLrmYjxPPIJZAKl40idXLo0+5jKDjJN9zXdKFhBGidYXGDz9U6JxhBTbLjrNdCRyRMwHnHOz53ecYZbwojDh5Mt69EB9CB8GkrC1foPOh8rr/w4fx7ejzuF5iX58OfbBSpc80DT4ZTztN8wRzpQl6Pw8acSJeByxncux5pB0DBeaWqcCyzDgz96j6riE4jxBzMBR/VHTQwl3dtyx/pRj64zqe/Hb4af8Qh0olOhe3zlB99qj1cJR93R8wrueo8yRAm2M4ba6mHGsbKmx8JZ1+sw8O6K4a+CC32OeE+XxZwljAnO+od54jre+TddQbTXHCV377OYcQhQ8Lm7+quRIok7DT215xgzP0G2jp3SXo9rcKnfytihYP3jGn57rgMVHXUz/GvP1gabq7Hu6fj1TgnePPT28Pym35Ht1SiwqeVcyZc46YuW52079D48M1et/i9dI8fo3PVNz7SHprsKPj2rfLllfoTKGKHKssrNKG1i625UCgaH1a+qGfW4VZvlj9SBmBYjW7L54e//SFeRw7XtTp9IdsdIkOGDBkyZMiQIUOGlxl9WoKx6hrIY0jC2slP5I7mFaC1hc8E1gM9kOCWoso2Pqwn2ivJj9AV6gMnnxb6n6UnrvQfOxqbidKdBoTjKfTFC1XeuzG4ANG5cUsDhjZ1aA99oXz4s8nvoHX/w2u/8f8QdC8+eS7yto5WEpjgz/mjxP/36a6a8FZe2xo/Gvo36p67gxfMTnqmEke0yHJvYeX1uVM+FgadrKsyBzbP5nV781JegcG4Z3EipDgygZ6n/di+UHeVwJSQoevUMo130lkfrVuSFr+vF72f6BQvRJJP6jdJusjDfnQ/pnv1FtfdGzquWK7u+7Drhr0LwVmEVQ11YchytXYPPPM0XrEautSq+yG2zvti2LVc+ceQvA5uSkjyOiwvdKeKQz/ohKBuxZdC1eg30Q2rytaFKr+O5svkPV3cUsx1hyEzPkB3ne3dHBVnP2PfdodIygSs6P/yfk3XFZ/CSIO/a34gilQa4iiAXNw6h2HaqibdMSAU1GqBKkUt9NBC2A00vOsWvTNMeYctjqMFz3lJeNobeBaBhU1P6B7Rx3xMywkMJM6blwEAPLX+8Gy6G96zTPjTMuyrmkPJUyfA+x6Gmn/VLQnPST6rc4A8UrcDC9h8VGjUYTXhl1+fSjf2Yp5oOzSs2/i4/NWYdAGVlv9SQXktFyWEvO3XjPtc1IkfiYVS3/c6SPMMLLq1DNbh7rWJRWRSKu6YFLOQY7SHp5lFaBiYLhCt5HKrZJanvNVpoadaWFKG3OoJ4JUXtAS7nqXqipaHnw5vOUd3DkC42Jmb7rLIwr41kXd5z+NWC7nyjDyuMj+wlvsoEvTBRQc7FtA8/R/ChWZ9mzT3xnDnBtvj2izsAL5/JUtcLuZPZd3vwHN/ls8LT7a/O1CwEZKTbXeItZe8VzwpRxg5fOBhHeGa+5WfhPXYwUOg9VCvuKSuj+WuR0pVQZ/nSnpMN4ApGEXT6YKbf0UO8bmI5Jvn664AOB1yT3hZ9wk2gCvXYUzP8ZFQ5GeP8YcUuZ/0t811hlZcG/3AVJi+c0PxarQEY1Ry0Yqf0o3j2XGqIJEq/8q/3X9eCfQF5R8f4jsu1ZGxJtthA/nQsVXrm9n/+ZOw4vbf0w3lwWmcCp1+pE7hKdaTyhx48yoV6hfbBeIXmy0QaIeZHGedprtmXfm5Cbz2hf1tCd69EYxfli64d6y6jc72qZ8M3ZYL1XhgFe4BOR0iwjNOeB5xjDQaP0V3v5lTeMV8F9NB8YkqUxVKRZC8G2Fppnws2bo1mQsMAtUrCosWXqAkjeCRdB20WhvB1RPfIX4TRY5SZFAa91P5UdyhAuhvjeDnJn6Qc2aBIdIITsfnXwnw4x+MLU0fDAMmqP9BqUYwhnyBmgvPExlofPyImnKmK4ptzV/mdfud94aD13yPbiq9V8jg3tzOD4B5oH7oCMIDdIWve3L5GPw2g9K4K/zY850rrwltcxfRnWvtCP1s6gMan/kG3VjeymQotfwmtNvWfl0tv5fQNFxM7HCAR/+NPBvSPIfumvkiG0D44aEigtaZnw+7bryFbnxa/UOLXTIKRx1GN3afeCWxL41g1wsAw7R1Q3TY+eHvfjQMHZx6KPA8I8Rv0rjETxUw7k2cp8Pt6zZohyUdB+aoYmoAMO20Y8Lyz/lUEUFFfr844AMDLLSDK9DR9Q8V4I29kcMHSxo/SHeB23y5H2WCzXZPH8ul56s0462RCN32Dfw5dG1+0hV9+mNw/vveTPcln35bWGAfwYtW/pxxpYHheh/6Rh20YLp2vnBceN4aU9DQHnutIC2GHvPvcWsDWN2Yo9f8Mf2oQraT5mkjeO0GbWAB2GKLkEZfwXab0IaShSFu37oLDTV1yf2Y71Lq7Wa6zOPeCzeCFWjq+nAvgN03ADa65SmAsHvHc/yxB4f3YDW7QKdoqQetv43/Cn0VHfRGvPk9efRhoXGcbiE2qaKxBKhwoUfuv2ThFkRI3qAEvCrD+gOfZgfeNT/0lwPH3AJrlrzbUif886/5kXc2Pa1b6d1w9+Ohfes2uh2Yb48dFOgWPec0FQH06fEnttJ95W0PSZhmDDFAfi47dP5n2SEc3/rcyRb/7tgfh2VoPlonElMMXTQMKpFB0tB0GeJdTROnIlp4nJbifvpIyKvysIxjhob3X6gHPhXR8fK0pqYWQuemvUvzcOTr9u2wDC+/aGyfc6pOgTsCRycDkkFJHSjfum076UQjdOPDz9CNOi5f1E46D7xAJ1WQK1hnXZ61bdNpFFff+vuwpdM7sJjHrmnokX86B16+2YOxHkXaNT/8GK99IZsOkSFDhgwZMmTIkCHDy4zdLMH44cMNmLi+7SI99nbr/CXyV71i0VTZh+l6WTX2B3zoC8BiK+/p+pF7XOdoE7PVEmO9NentDD7zFLoHrbgsFOqT4ycJ6cVUWBm8N0mrQZKu6EcvKqOKXmUKzmrqJkJ7Oj+K7qFrdFP//mbNfT48nj8qDDdLcKHxbbxuafpAqGo8ie7aBZ+Wv4klxdMNyfhUgy1NHw7VZgmuWaCWzR0Ll0gvU9M3BAdaGM+wavuKZuVfw9jWrDqwc/2PudcxEK1fgPTG8S6AmBOke98K9u6TrnzSs069WRE2VrsDsFan3LtadPFA68QPcZcGYPC558jL+u7OVdqbbp1xfsjZoR4c3o09XYnNeRa3H39cc903Qr9xOkXAZYijlFvfpwctlB+RHrG9B+uSawmsMVxRLzhosx5wUj0i2Vifb1i6aVdzNvBbb8d7+4qJc24Oa1se0x82JQFHa6atVIklQXkE8BwWAWDO1OPCZf+qow2VsLyghUadtOa7HEXe876iw3eLr/8Vr7D++sJMTDso5rWuKJT6hZ9/U0dhsGuCl2NYpxx9iyDRh3R5a9u6Mxz9UR1Zae/U+NQ+az6KpTjdYcZpbwjL7cjm/MRvxLRESPqSWwhLf6WtRnRHy1OltQ1I+03jke98OGx8CKu+Q5gy/2aRu8o82WMXcWm40KEF03T6UvMMPT4ZwHQiH9SvsMjbNeqQAOH6qBY8NNmx1usrrJ0KWLZ91FxFpXz4Ub69kSwYhKQ1jnSa8XjvLcEpviW8qfO1zK66+xEJx+Kh3lXKdOjAgeEXV55F96hDhogWKc8FKV/RZg0+1KV3Kn4o/NbEuT8K61qe0h+Sbs9jlA+f0lZlpnr8TuuO8w+d78F8GHO7tZi8mzW/0Yad1yx+d5qNCt76YHOfsPSa+8Pc/9LyGEclhOG40FHKxIRxOmK1ekkvPlLYH9Mh9jtMeK4vTfNuCuvvUysiRy6snmG9Y2VvwbS3hwWSBgLv9xLIF1b8Mlx41Qa6OQUhp9PfCsVuyW+VwcJp48KF00+gu698bb56Q1i4XOXJ6tbzBZ5NUZpnqgzPnfp3YdiZV9GNcp4eEUGdDmBh3NST9Nty7aJTxYfykZRD/DZ3qvykLesob3gGGJtkxRcB+9TRlwJYj8d+4nq6OSIXp4/1ErLg+Sy4680S3CTlNKZrD3iZDsuwPxCI/Nm1+scknFqjG5pwYE7kJ8L1grWfUZSPBoYGQWn41j9QbuxUAAKfaFCBBk5/fxhy/TdJVXXaACZgwkcDWFJiSWU41AYhPTXIHoiyQLlUwZTohgIJMUvsPcLeo/LaKz5HZl+h5UXT7VEwrXIF4VQ4NNS8seY8wV/0g4KPilzIt4grcihK0itEPygQQpBa6kUB8hekN8uYAySBg3jf4gPw8dEPkL+DZ/gPfoTAF/wyKPkjpFNp3L+GG8M2wreH3x+WULstf/qPfRNp2Jrv8VARUNf9vw7ts79A6phyDqnU0c46h+02RI6GKBujkJkGOGDOx0PdhptI/ca9AREQO5dfT2obd3rIP/I0CcDqdZ4mJ/JAlQFCWlBpgbrX/JzEpBg02fBDRl4W+NZJqNDxkQOhogRhTmSpILojhPnp+KCDqNvULMw3w1CWpmDx9RvDspt/Q6qECR08Iy7EKQEhbZq+fPjo6X9D8vzT7dJET3mCGYbBdPN7TCE4+5I1pPatXeIPB0yIP3sP5Ej3zaMOgQ+53dq5k9R0/o9C69YeEvyDUCIxTAwqV0kzDeVPaPKJ0skxRYCvJE64ofkoI3IDhF9SmYKwy0JxzSxSec054Zffeg8JnYYoU+MNO2L4wQho+Ph2Y6vu3Rzee9KRpJGH1KfqLdRB2hH3sFAuFl31M9KyW21OnoAzMqzc6DcU+itlWtyUG5/LPZZjnV5Fb7ivXsWNfLf8RMNMiPpTEF0W0t3fuklBdMPThWjBIwgaA9KyrPG9FHi44MllRB31QptOI4wzQh3bu6TBfDupTfQIJ/WB4InehPAHnTV22ADEgbhCNykN7ApSLXIAIR40GkDQVw1NvhTYJk0IvDo/6lcJz9wvp8oYwY+HjXh8BxIHecGrIFycZwT1AnCdT5eV2e9/M5hR8rwWxfIywaIvuhdX8P8VAlsxglCq0VkDcY0COnZC1Gn5qIDit1MA7an4ngri/FcgB+PfLhKmJkUdgN7gsRByIuaGxEtCPSB5QCoiv0SPhFDvFIQfkNflWD8w+eSjSAzXiM8LEj+NHMVw/V1/Jp19se7WotD81vgt75FscZE3+ePbVao/1EESvsmI7EphZycb6cI7Qi8WY445OEwceziJU3kQphDrOWMPeQF6PiR8JPnycuL5Y8+QIUOGDBkyZMiQ4a8QuzeC2exGE10fdd/5UxJ6m9JXIOmWlNJbAL0CqEKs3kOBFdp6D0kvGKtjteeOxT4DJ7+TVL/8S7SgqBVF/otX7b1bL52WEfQu1HqSdJms5yWk3RUlDDKC+Nv8QhQOWp/kL4j9MbPAIq4XA/QUXcw9Lb8llTc9xp6U9qa0NwnCTwdYU85AkIn60akTIs3Nm+PTCkA2eiHSbkCHweGwZ7ga2W2RAB4Ype4j65h9An8HN3jBPTxIwfPWN4TXBGteIcs9iuqxfxsGLzyf9OzYM8K2y79F8vQnNjHkCiwg4hbKjzwyHLTmv0m1l13AqTKgcmsHF7+B2mbNIcFiCvs5h/iFZ1gVQFgw62mhLCFjoeLGX5GQrkooTxUyegmA/oK0DCj8KGvu4yoRqQrnQjEPqzr0QHRTvFOc8tCP9oVQP37pPaSz/2Mt6TlbGKHQ8hKHySzjEPXoY4eRJo6RXj8X/8BiJmWBVpR86BF+QHBveLCd1DT35vCrh54leVgkDFXCkix5RBZxC3lu/x5/qjOcMueHpJY/bJGkSV4iT6NuwCIracRuD3L7iMPqSGeeOJJyIMkDl0FSr+C26hz4jOHJv1wZ1mq1ao875nUkTB058+RjSA4MU+ZKSrA4YaoJ6Ma7H4VESNNPw36zllhYZIQkV6KFhklBfgid/aV7ONUE1LYNFky13ORRn0CeQolVOeGfQQivIPDsowSaNuSJEIYmQbBgFiU+oaoe6IbpTwnWUvULmYIvULekB5QrQC56b9+hfKmVVvMbTM889Q2kkYfUCL8YwofErK6HlCBfISys2fiHdtLIj343rLjl9yQAWQli/WL5rem2OIMeigPAC6gs5btHEgLSsqxjiUC+3E+ppIerqNxRXpw0H/jc/PI9CwPhJWHD6o/4Eygvpmvg03lOe9oDXHddf4El1z4gD1SvkGoQLOrIJ1C+KFohH3CQ6sdfD/y7blkSJhx3qPyGLKEDqbSKn1K+mvTYkx3yTPxDPiKg5FupuPHeP3LhKqmIeqM/SV/QMvToMzvMt8oYpHmKcPLhh/c8yl1GfKcRP4wJ9SMOytHDcvCdlnckr86bPJqEkiwaT4JOYNxRSdJjh+SsvPnX4f0X3k7a9EQHCbGk64JYfuRHQXQWhAeYIgdSP4xC4heehWghlp/K8YvDxoefC2vu+xMJe1pXS9kFMWSLJ2BE1XZP+Ushye0MGTJkyJAhQ4YMGV4j6GOfYO0VAKXNj4dnR+mCLO1/WJtZuhS+QOKVAHqsmI9Kt/SmtO+iPAG4U7J5XlX19eGgR3SLqnJDrfTa6JReHqw6yr/PE/M5rnQjKBMFetZ2W67aj9IfesWpZ9574PuwzAjotCcQa7QwCXdP5tVitC8L457MjQr9Juv2XztX+bZc+VCzULfwGjL/M/LX4hPyHKEV2/bObG36SKgeq1s1dT26idfi9WvCwGZdJIfFclEG+GOB4GJiCtsW6T7BXevuTRbG2TOCsjUnpZX0uqM8+BfvwQrlctHeqcNVipf4gslWHnI+Ldx4jy5AevW2D/CTQ98s99W/6wZ60WqRRC84F/rP1pO0aufPDjnbTg0+i5t08n3r+2aFrg2/pttUjtlunXjhN21BEbfxhHnbzpPv4zx0zQ94BZA2f443KtwuaI9wL+FyPmXezXH7Ky/O1OEYXD4MG6gWXFgUY7kR3pNyLDIqq4WsYPlTzPeEKW/Xrf1G/83B8lzlqJYSjZsL3+xkoQljdNuqU2bfGoq2ZQ7mwNHaKABrvjUXLn4S48zTdA/tT7//TeGEYw6im6YcY63loSfDytt04d/KW38T2raq5QB522NWBFpLBOmT07C92A++oPtPTjlxVExrYdI35ZnqpS/go6XU4sN+luU1n9QfvGf5Le8kC0BzYf1G3ZZu0mxdeKZzSBVe1wCNY4fbKWGKkf+kZegx2+MYdZTvdYv5gT2wJAu0/tAwwfuUkzUvjju2IeRhRRHEMgHmXX9KxbDAFyvJLWwVBazd+OdY3mK1j3dMuc8+/fU8UQzgqVQSDgDrmi+0W7CihdccLI2mJx4mADbK+3BinI62ITyMaNAZfnT35nDmAt2aMw0/PhZ7FXsQSKCOBIRw9CE14d0nqQ7WD66OPGMEKI5gWBZNkDyZYAvVJs69OazboIsGdX6kyha1mlsFZ9q2Yke9zraT6oXHnt4Wlt/yIN0qL5UNLJCcPy1otAVpaxafEdbbQjxubaiPKYs0z/GBIa0PGIWCzgLIy07bTu2y634vMSc6A+B7iT11FcUw5R26SPu6L5zKa1/whXHNV+vCuHQeKzS8A2dhnKTZ5OzfjEUr7g8Lr/453VrHJvKERRXoEb1YfK4uCJ5z1hvkgdVJdorf1Tc/IsGqX9G6RA65fiHfo3UP1l1c+q+69/LcKbb3soh+3ld0vu7i634t3x46JaykzsUtdWEPdTu586RkZGnqhbdxPQEheZyDBRrOfFfkg/WMLTjjntqCiWOGh5PHqK4BZYsc77g+Q7+ap2m+bX5aF44vv/WhWK9Ah2P7xQvmXsJ5+/K194fntpuVF3It6TcBx5v3YLRCUD9Yt+hsvXE6r33hld8nOIXutT8Oz0z8sP1CqfOKBMtZ1K2DLvsXqOh91wIO/Fnh99WS4MAbfQ3LLgmDpk+mm4KP7An/XhHYPQuSUKcWnl0tfwjldj3esVo8dZviJJUOlK6KbmxM7w0kfIi9gZEG/Dw76SN070sj+M+5IyXtOrxWPV5Xn5Y6OkP/s2xfXO72oDyhjJvOEq6I2Fe4a51Nno9KnQt1zbqjwqAFc3GDbjyPhUu8urvzIm0Eb7/+5lC3ZAHd+IDZYmidFpBqwMX9RaXx6Z0Qfw51w+ppukVaedvdvgeBpCopl0+6fai5DTmnOjQYQrJ82zL1U6FoR3u7X3RiquxwlJqVF4cB403uEp4nu+uGm0PrrM/TXW7bSh4BzWGko1oqMW3o9YgOeacIFYp+rCC6ZFqCN66Hb7kfDBDQESs9gsq0vlRgn+A7N2pF4RUs4khWQ3eHJZ/Win7Rig2hdYdWQBwixFC4AEU7aZDwQp69aY+9af1DqkfVasJ0pxhFz+pZvH72Kz+JO0UAXvGCp6gPIitr68lzixANFStMXDBkOoP3/T1drW/hoQFsPLkuchGlxXfmyaPCDQsm0Y1bFkvINX2d+aWwFwUx/0QAXpmioyGfH3OLzjv/cmvdBpX5O+fqIQ8ag3rg3sLGx8Rxh4Q7LtMjStFAaXlQd4o4/pN6hDc+OP7xxep9q2akfhPtijIQfyYndl5cO+14ceSZ75CD90reEJX7yUEdTyT7zLpAcWXZC+GOxWeGprG6dy6gPgEcXaFhV09axivqXsoabgsKAIsv1Ah27wg/usUR1UDcMy/RRsjKWx8OVZZFXtYwiOwfaFy9HON95wXc+n0k2cN2PZk/44R4WAYawXdKB8Fh4qBsPLzVS87ktYlHzLoHQIWwVjpEk+aoHjAuk7PnJTDeGiZoBF+0UnccWLTilxVy9GxB8rwO66sxoun236lIwBuGuwU5a7xpQ5xOvrfsc3pA1Aw7CrovvPoawUinSczkdd/DreGt51xDN2SMmhtAY9bBKQH2kcH3vWIhHMAPq5Ur/nUkOsjwendK8cjyAY1Ur+NQcv344FwP2g7qbv3hDF7rpPPm8bR37gojP6K733RsSxZUlqCgVi+gjvE6yXfCQSe+on5zv6KT+OYq5Cu6Rg1Cd7aoAQVT1FgXARKu87GviGEIXG9UrzWtqMOTzqUflnEyr30h2yc4Q4YMGTJkyJAhQ4aXGX1YghMr284ly8Iz8/4v3dWprV3wQtJLeAXa0ehxGZs6hKtuZxxDSLmRum/eIY/clWZOYOb4gOV1FoZ5gFWm3KbDSB0LLwtdy7QnX9z6bOyRQxber/GTr7yXD3DoyXqE6P4lPDF0utEz8mGufbEEP5EfEQaeqz3E+qULeX2u6YOh3wTdJ7hmAaZDGMiCcYpur3UEn2v6cNhllmBsKQbkRxwRqmwv3BocvUyXBUHLqoA/NG87m/UY4I5FX5PbKk90kPPRsg77vLpxdYnh6kOmldvb6fNCTvIkxgcrtLo54WWUnq508HX/xWthDIaqLFFgOPY242SVsG3RkrB1gVqtPY7Bc84OAxfo9JHq2tqK9zrmqky3LV3BNADo3cfpAh6whJVYY5Lh13Saeuc3cFhxU+Q5nfoKyCsezB797BEaz8R5GM616RAelpQRlz2sX6sXqyWrdftODrMByCvqr7mjRcH4x1QHH+lhz92GsOjbhqYBXZYld9d+XK8S5jvn6BD86g3PhLyZ3ygfswDAfhzfizzjmfqF9cKP2eQCKS//JclvK4fgoCdl7QawlGTs64fRvf7SM0JtjY6kKDTu3KRv8ApEC7LosssCSCzB4ItOApYcAFsNrt/4LN2N827gNRT7hRwt1eKvhMU0qlMn//1RYe3Ffoy3cG3pXXnzQ7zOunRttD5iYASLqAiRBxbkALAYYUQJoEXe8sjtNdBLt0Jx3/TV/0I3kD4xLpG1XrGFG6Z3AesWvztMcEtwqkyzvvT3Jn6d14Lkf3r6hwPhv5Al2PNYSlWK/zJlqj/MgiY4/p+vDRse0lE5B8ui1cGc6mS6qHc0bOcd4H3TGbeEL5x+Qpg/TS3BE+b9MNxpVn2EbaJh/pXyqj9rLtX845QG9wBocJxOMfH8W+nOl7qiTPHYdXe8nVC3/rL3hEW29+yClb9MrPK01CVI62NvqLw0clj9aB0EJKzkpD+7J889v0cNbwgPf1v36sboqbG/G151+wQjfa6P/n2WemPUR3Tq0ean2sSP5gnqOa97qkQGPqUqLw988ZoIlRfd81nDRVnBIjaCx2SbU8LClAgA1l0A04mSsgtZ0ykOkZvpA/ibYicfXrdQR3dVYdQJbHxEdb9x9k2h3U5iAzBtCihKWcEUHiC2iySMKqtn8S1L1AsMqwy4cHm1Tvla26InfU6ae4vc17Dw/UjgzO8dkilvhVTcegV4CqfJa/N/f4jXEcNTW9j2wl/AEqwFA9Td3h4GiDBAuI+/UTSszFWg+x+qiCAdEgTb+TBw8rtImDc7ePKpJFbCoqpKAlSoQlAQpCBpMgF5HiEMws4L4YS/JfUbf2LINb2dVNX41tCv8URS9YR3kAY0vkUaom8j9Z/w9tB/vFyFcJwxGreg6vFvDQOa3kbqP1obnPsK8Dxw6hkkzvMVQgFG4xLETe6dmDkoYJJCyZZEAqUwSOQDGrrhJhIawJQTSOLwIIiKHwrs2wliw0peAtU2zw2HljYpFR8Lh5UfIR1eeiQMl3ugYa0PhP5nvpOE4y5JUkDQIQAVpZKoqqsn1S7593BI+VGjR0L/MW8itS+8nMS9Q5lGISuoCnxKjY48MlTXN5Aa1n2PVLt4QaiqqSUhXaW2DtKWxg+y8QtSGWAyC3jSxoY2OFTPSCYwNIB972aICaUFhCFa36kADQRQ8Y9PyhPljXz3BQkE4YD2Hc5bKnDTgVyQBhmuQpjHimN2QWedODJcu+g0UkMNmqJaKvLyIShJixDk4WK+rPOWy2P1u9xlHlRzSAuEMlkl4YNEKCRI5HsXvYt0wt/US00sYbJBK/HIxwXUwy+IxgO90ko3JXPUmhjGE8JBEZhXCcKQn/PMEEzmvjfoCccOkwbLe0loAKMR7w155DPz2j5wAKJJKmiNG1ntgNOyHgHIb/2HOsVXfPuOEPl8Nxu/oFAQXvNKbOFiqgIIr0o6QdPOOJaEocCG2moSDhIuiAxBiDLhT4dOQdA2HN7AAxxMtvh4edn0oUaHp5tpN3IZcucHCRuUHsbU+l0iJtk9gacfPEGOaVnuPVTObPIhShDDMfnjPn4KrbvkvTzoBORy4ZxtecxclTz31fsIKKYTgSI9nibkgZCnlSGIP1CVxI2GDIjvWrr0sda7GMIGMU7jDYTfID4zv3gvCUPDBSEeEDwgfhD5NN4I4xn3Xe/6IpQLd2OaCLNLCOgRWYB855d8ESUF4ZfCpZ+SBiveF8LlrwWUielPrKgkL1Z8dgIJH0XXE3w9USxZNDHNzeqZsuhSwN7mQthFQ3fSgNw0XExNYjlD/kCmtkG11IASkIQhhGl/IHynow7wfbkBl90DDRtcFRb/yz+Q0vA4gNFHDyOtW3p6GDqkigT0SHAg5KnXQzBMgKqkbvIdSfAtQC0OglEk1uFIswHGKBBu+zcD00/hXwk87T25gqEuiu02NLrzStgxZ+7kMaSjhg8h/SWB3MmQIUOGDBkyZMiQ4TWFPhvB6BGAYBvrCd0k/PYWPnoz3uN+JQDzufdQEOPghbNJDdf9F6ln429C9VmnkADlUsl7Jz5USIBv8l4Kg5deSMLJYwet+S6pYd235Yrf3wtD1/xPGLb22yR/jlX/B637H9LQdeJnndwDrf2u+FOqX/+d0LDmalLdkos03n1GPsAwB8KQFwjW31K+m2QdfwV7W5ZWSRfSBkKyq8e8mSSPSOjl4T5J8jKNaCGqUA19szD22HBwy49INfPPY16QMAQseUMSdD3wK1Lr2PeEHTfcQcLgHEiHlJT6N54Y6jeuIuHIY+cJfGOBAhfWSbwgcmkJIH9R/yxeIey9mBv9ehIt9DwuGnvOymtCXS0PhKdHNZJ2rf+pvCPvg6RrrIPziA9uTX8e8Qtp3BoI4vSePHu54hMEDp0nteNI7/thLLaxvGAgCcC5U+J4sYBsIXssU1ObO0/GMqsE8htHyvJYWYln8klHkjZ8fSp3LgCVRXZuyU0gcqBeSTpR9kzU3OEjIi+xYwBe0gjrglkY3Grxi69PDuf943Ek6DGsVqB8vlr4Uou7Wxx0xwaVl+/oAUCaWAwJSls5oUtufTtzwkjS7YvPoIUbBGaxgBdEfZY4QNixwkcjwD8IthLfI7cSyEnNPk7DsB/gEtZxkIP3RMAg7CnqgB0wDdVoEOy+PbRyrrnsPSTkBSxOIMpG/JEQL2MAFUKPxAsCu2S5gm/xjOiNBc9D7EkbLUHyG1RiPJpuytbe01c1PrrtvvtlmMIUaF+BEEGMD2wLIRRPq5V2oqa2isddgy7+zEmk+poBfJckMjAjnLyblM00NC0OjZD3TBgss25ll6zyEyGxj6za0LRuAO0JeOZ+8Z6HgfA8bK8fGCffAcCPQn8niGncA7kOU4+t7Ka/Fc4D9iZe/rlG0hScyCdhM67eEb6KgTrC05WUmYLtAjI8NE87XvIA+Syyx4iN6W4pL7UDRhOE8E6hWCR53Yn6LMpLlAwWXhDqKztokeUIOYp/qJP4jZN7rjXCnOSX6CWoJDoiz0AXf+rEMPLQOpKXR4kk5i/fQ/BCOH3twe98iHTWySPkntb0LH5Wr3k54AiehYG05vOobyVdkka3zEo0LixRG+FXKC1DlgWwTkp0bm/I2yxS0XoRk0CEXxsxm3HG33KfdZC/85fEHmLXzNj5q1+LbKUi4MplSZD9w6dfWCe9WGg1qMqDSg//ICtH2l0UKVbV15IOWntNqL1wNskVp7jpMWmgyUdWSKEVHaosZCxIPxJKUByS/IpIJQUpc7BChceUZ/BcCQ0XQbhXVE3JxuzJh3JfgBC8anV54a5/iIjIm/iWKwg/Y+Uof2PhN69wO/hb/lL95b+HoTIzD+YotjwSnh33HtIThVHhybzTMfzttGXMWaSex/5I+VGGsaCigtZ7XevvDc+OaiKl3/9z7thQ2vBb0uDmc0mUoPGjWYW0gQS4IVR+bFPID6sjRZSrwrbLl5G2jHtvKLe1kdLAtnuQk1IMLlaUBD5eIPgxNxsOcsfJw4g6x3lbFi5eNaT1klmRBLBvkEYSqJzvJ2mQciTkFSEjtA+j/k6gJTcfjjqkhlt3gdYsOUMq12NJCaBvCp0GIrokhI9DHFZnGZT08SMvVT4byJoupk3yaPGn3kG6bcm7wsSxh5LQGEC5BvlHqIjhMuELpBu54wr5aZpADNLK/YjD6uLUjuub30lqGDKAYbOxkYLqtBKQ5lUJuokGlTRcxC/eZggSKXxpnikvgB5YIfrHIUj5jfCNV0BX/OOPlNVUQ1njcmBoU4chxx5bT1ojeXHV+eNJJ487XMpJt5J48npLO/T6rpcDcOmNXa3bIEvhGjqCDg4+QkizfPRBnn+Afxj1l0JlpXoSJz8KPB8qkdSplAECAr+p9wi7r6HCs9524Cdvpe7Dp70W5k79W9JD3/1gaJ55HOnogw9i6kHsi9O/kgN1DTqC3GHIMgvTfxysnwzUG4uQZZjMiL7bB1yB+5qP+lR+oVyIA6TPNF8QXtQPq/fwLXJ+dPst9Qudjg0I8u/x9E2uw2k5exkBnXBMA+kOKdvTTzuWhLg1bCHwap57FZeEV/dL/+BRZVA5Zcwgv63KEUC+ab3f/wC3Sla38qbwKLRgxvHhys82kuqHDMQTAvrqB84A3mFxGTMxFsaU8SOoe6DGMUdwbr7umCPvsoKREieRcpqiyMX1oUoavmVMlxHC1n3XLTqFNOu018e8chlTb/E+w7CyTHeQuq1AumbhO6XOPoM0U/I0LzyCvPxD1zxcbXhLaWMDmMEQrEIsHruwOnPZMSznx2Wxl8RZWkJapysNHdAvLPnU20lXfvbEyGCss+Sng25/DncK3sF7OYEUZsiQIUOGDBkyZMjwmkJOeqqVjW38kpY50Dbhn8L2u39CNy1N7C/wh3SQ1G139hpJZBqH2n+9ZY+hAmuXSw+taL2zQWPGhJrrvkZ31cgjpedApy5mEzwz7oxwWFlXWnMhXIopjw+30u4IZcO6A/4jDXlgL7oFOG05iIEC6YDlvvOJfXq3TNz3fYKfyB0ZGtZ9l+4BJ+uOEK2TPhSqGnUifQ32+I0Q3tnLF6T42DLxH8X/O+iuvVB3k9i+6Cu0EwE1F54nSdQXcMdfhW3Y+0hYOAjsvOHWMGTJfLr3J9CTrWpS+fgejiJ04cnd0EWDpNnl3Dr5k1GuA2foXtHtMz8fdqzSVduwoLllN76/H4GpM9VNuj8vetSVcVYo3kvClbf9Ljz+hB7d6X1qHsNpeooiPt32Yxw5HJv9e5ziO8pDrlbun+tUC85dLY+HjamV+bkCLI8SXhFDrOo3H6q5wBFYOEP3sgYLnieA5xstcfbehodaw9W36eECd9gerb998LlorUjvvAHXCPIdwqQxh4aPnqZpaRS3m7A4dCmgFcPShykhfkQu4CEuWvnLmG4qGyARx1vi88JpY+mGXPy+TgPRugr3NtthF1fd6ock4F1/rtZwYMQhg0X+b6Abtyy4BKmblc9LkhfqumfDo2HDw33nBa8SH/ICQH7EvBBAPwDoSFo/eEW5MhlCR44aPohupCNV9CJPzSt114B8HgsDE0sffgO457sF4HX/uiB7MEBMd6zv9xIWRlL+JVf8noR7n8nl7g1PhrZOLQfY+QDHZQBY/e9lARZboHHsoZx6Aqy46cGw+RnNS+gORj3oFub9venv1BGSEYfWVcQNfQM2PbE9XH27fo9yxYLoo3pK27i07ElYp70x3Cm8Amvv/1OoggkOyPVI3qm7lE/0Z1+Ad95zsh6GccLRuksK4DqMoXIdexDgW+mQ5zE6SbcfBLP+fts/mZZGdcIa7DI6+c2YTqX7H/Ox+zG58JsU7+0/pEUV8wd3Lf+YT5b3jzzVHr54lR76suquR8KWHbbzVRHfFdtNxg6gOOvEUeG8KTrC3Hh8soc2sMyO6r7p7kfDdffqYT4YkwBKGL0pqXyPGj4gzDxNy/+57xsdGgZbftNkqzx5vYjS4aKD09NVoQviF+PyQF48d27VNP7yId1FYf2vnpIs1LJWJT67rV7g9Cvbjxzh+T7Zf3xSD5tafpukxwu9IOZ3ZGjvgOkiQClXFcYcU0M3DgHxslKZsN3vsVzF51LPPrmVzpW3PST1i/rXaWfKYPyGSZ22YIbvVAJ/KqMXwm6NYPzwtG+Z+KGwa602gqFMvp2Vfs5TzO8LooZqLPjo4SQvuiV2jxvu+vN0M+dBSy/kVQFzvca5a91PecW2YYeV7WQVIB2FuTn05x+8qHh4bEJNpQO+nA/8MPYE5ncPBTv9Hvj3Sru89qfhmRdxWMYT+WM4VxmobtSPcmvjx2IjuLYZW38pT/7hB3AHhQNobfxwGNCkp9kMWqAHZGxbuFiKhhaGWpw610daPBSgc8ESXnfdeW8YtjY5BW3/QXkHksIONn0bLJy1roWcO1e0dtD97FDpLC27lO7tV3xLrxt/K741H1C+kw9cIq/9BZyu12+CFUoM46gLCZDfnsaXwIcmhfrpuqadSkDC9WFSxO234deKvFciDvfi0ErL+JOHHgfqAgfC9fKBSlYhlb8HVhlFJXaPMLR26gfpfml8jzxUVw2POKRG9ECBz0cMGo4YvsmTjVm9ya2D0nx4CxstMrvvU4NUbp5Wic2G3PqMQ6C1kD5IeEN8qfy09yBuFxllH3/ohb+iPuC2hoH7sXqWd+wtvrenvACQHzEvpKHj+YN3KvQD6JXWJC8F/kH0ehPw9OFjhOX1Dt/dAPdSaUnL3EOxOy8NqcBS3FXKwNmQBmW6fgTIg2/7iQOJ7NsGfy5S5KuHx+kvgnQ46s06IZyaosB9b4T0NXSLZ36/gnfqVyWf+wwEaPx72PwZ89Ie9gKeuk5pZ5VO4Sh9L8nX2PBI6V9at6PohRIf+xFgc7eIUvLUZCjgzxnMFcNz2zSvfiOd8EMxP1dw9HA9nQ27LXgdgfLuwSCIxA0d0HhaHtJtE9s7i9IAbKC7nts06vO0cQllL9EDZYjtkBSvXh6RN17f8Lk10nvk64a1HoDXEJp9lsCShGfR4T03Xmg8VnNV6KI9l3Lu+tD7O/HCsLgJj7z3vRR/AC96T1Nqz9nW0jLWIzWsf0WZJUkB51/eUpbtmYX9Atg7XxkyZMiQIUOGDBky/BVht0ZwbEkL0NtDD8V7KbrUCq107RG9GCqhZyXkq6hpZECrXYhtfBw5KzRs+ZK4cwOHduFNCL2TnnU/I7XOOp+kPTTlE8G5Z1xgiKAxQnrAKR8KcZpXgT7hU+lZoVerPVv9TaK4hHAPPWsh9a8Uh+4F4MkXP/Ac/hcF8ISJC8WwvfkrpK71d4e8hAfCc+fJ0wDiKnpJNKgHlhnjtdTWRtq57sfiX5fc4cWY1oT9ShQkDBDjegXAXqiSr8bV9MF6LcS8QPqFxL39y1eSMCC8de4CUtfG35Fw7LUussIQHsSQJyGE/U6xp+r8p/HS5YnwfdjdJeb5DlXwRQTUfPMLvlB+8Q+ALUDtARpOmnoDFgFaBfAcv3kzccMapoQbWqYRLmLVmBPgFywWJOGAi7gEDUOqSDi04ahDBpDgGSWctQ7cRukFnlGekAcWt2Fo2e9RMligIRpPSxj40pS73LC3r7NcYb1jGhSsD62ssM4xd6HcRZJYkzSByrpoCby4X9Z7ElaaEAdSoqRlmff5bvJOGum8AGk4SrjEvIA88Fyot36AXD9cR9yvPSSphKKk+I/7IKsvktcR+jTx72HAVxL2PgLvCNlFQkK9Bf4Yc+QfJH9IdHv2Y2GQ3uZ9PkN4uX4koCQ8gsiqga9L3oEc/j7DIGABViuwxwEeveyBW+fbHbjv9ygPI8qL4TrtOyoXPWu5wk7Z/NDyY5uEn/hUvvnNEsJ9J9QT+KflVAnw+4B9XiRdcgdXIaudX1x+vxiQlUq5qTwNzBhhBiTwxVsYSRwm9Q3o5DHDw7HDB5G0pYN8Qh2hcsEx7Z4+xOMqmNb3scccREL9VT9kAInPvC5g7ArqB8IiIXx7mtZti09qL+ZYkmv6LYTmeR0RQSe1Vy8uFwleU8KbTDsJbiHEHp/Ljd3C3Wto3NzbXVxJCHZf/sbvjkYqfnFX+VQpqF/9oWUMNVqUOd5hWEkcPGo/hqehKBDunoGYKpF6t1xfIxHblkvCpGcCqzlReNC+AkPTIOwgpLsISaKtkdJ/7HGcLgDqP0NPuALwCSi3bSVtnfuF0Nr0QVJp02MkVN6llt+TwJELBfDCiFLqm0m7vumKUBM2yF5k8Y4KgEzRfxEo8fiY8oMq8JzBbwsDFw8DWzK9GEDm7VM+rrToMhKUAc0K/EvzrHIUBRYCfIsXNCB3bfwV6bmx7yV1rftJKMiHEKQfZqRXeEcaDFCuGLZtyK+V+isAsIL0II0u2zREps5az8Y/8JQ4PSlOPo9tnSSvdFCJ4cMAqkjrKwDke4wPzDpepugRTBKU6TBWmwthar3LCBVCuvKDNClReYgOE4j5XRkg34sQp8tU3UYxNOQXmoH6ofDDLcCTxiy6Jr+cNH8tOuoeXfIQjCufcXcVyX+kAP+07Aq/QhyiNXi4GNorYwqAEEOBFwQvD70u4LxQ6LKQapnwh84ithfg0HmKNwH0JtGdpHHjeeuNKVbSEg9JfCR+pQaVm1qfaNoA10vc8/zBe4mc8Qv+taKPkNvpvNDfSL/yXpEXfMGBNCb6EXVE5Og6ovLFfXiQsCh7RIErfssv8iXyl4sTfpMgE/PL2xYGwvOw9xl4R8guQshj5Rlg2EI+dQpguoxw2/PQ/TI8eQiCn0T68KuEX2V8L4SiXqIDgfcZTgKkt/I9jU9DtnvyR1l2meof3zILSNKFOPYdiM31wBtynJvq/KeI+Wkgr2AX/DPPjTT7wKbISt7BuxKqp4XxiAedLuIehQya3lcInjZjRaE/mD5TVrghJSV5xWWe7iS4LFhjKIrcZUUcQtQhAzTH34u7Q+B986vlUPKBYSX6oO8o4neCUBnTk/GBaU0oWfinclciPN0eMIOxdAhc531OPkD25A/J6gqFvsdsdj72Ec4bqwqLIx0O2FPNBM8SHylqHP14GGzYphCTinBTb4C4JsJeTGQJPH8anv9phgwZMmTIkCFDhgx/hdh9YZz89N7broWLQ3vzFfpD2svoR0d4S7vy9X2A9VKkST/ozHfTXbf84pCr3/0M6V13/SR0TPss3cVH/yxcaI/GV+BieK9+xcV0D5z2jwlPeK5dGnYVnFN2WgXljq2ha+NGdYsH9E0AhKd7/YkbYcDyK3C5aM9Ggf4dVtwq8tyvD6DxwF7o2vjb0DlHD8zYt90hRqrhQVBvi9p2rf9ZqOIhEFjUdp4817i1j6hpBQfoIQHPNX04dK3XxY1JVudDDRfVYYcJPfSCkOcIhcDFHmz7gu0OccdPwrD1/0P3/oVlEOD5BxhrSHFp46/pfrZR8rttG904YEH72cgyW+XLXq7pGv9qeBbUfsWwdd8P/cbbKn2Wl937nMwrz4AXyRTDUGclLFwd5k7KQUTqxcowXF4uTbjlnumP9rJTabF4kgB65V+6PMb3YK2qBC2RdpNRxHDT4clNWlfhFvJnvsAC7yVMM+0A0x/5S1ARXzrddh9FOL7G+NS5ZzivSLe6YO11u2E67Ip0wb/D4+Y/jVCtrYrd8wLo9X6Ff0WfrMvDtIxiHcd0pMI0MG4ilQ6Bv4f0ez1UCeS33u+Tj73BHhOyBzk6KA/14zyQz3SZsLAp8SjTvnnuk41ouVek3/N618OlCptXsmb843sR4/bRxpcBzi/AEGMWiiMlA/enUwASC6gCL7nsEr8Mb7cIBNFD5Xv7C5zyEXRaikN5s28z5ap8cG8FL/jYIaMP9jjKItht9NOCU/H0kW+JcJnPhDzyp5SL/Ug5E+zpuYcF8GY6nnQa5UIFU75RXjn9CUi1h/hNoAuwsCALR/LwJcGaQ8Jaig/hM9YXzrukI8oQbHqdhMyxMFCPwnoP9Fmf41G8J++ny/fzoI/sz5AhQ4YMGTJkyJDhrxu77xOcwtb5S8K2i9QSXGm32VNv/4URQzEL5pDFzaFm9tl0o0fsPehS+7bQ2XwJ3duXrgCndKN75UeqJnv6FUO/s95F5zDsJ5zq7bgbnQztLSIo7fGgN7K9GXNJQ2hfiG3AvHeF3kHSA/S5NDh+FcCBxb7VVqmMjTuMZ3Q5onUaNgWTEfYMtF7qvliCnx11Uqg+63S6a80S/NQJ7w51l+mWcQMmvzPpPQncSpPOm7YZnw/bV+pew3XnqZx3rv9p6Df5VLpr5s+OvTImydyWOv7d1oy5yPLeXRvCQauV//0KibxoPcF4Mh74UqbCzlW3hfZZn6O71LZF+Lc8Lov+mLvK/GI5gcuDc6Sta5rk9P7D6x6+KxSOPpJuxJrkVII93d8XsLdv7op+rXfDeWIZFlJYfHYbVproTL2X3BMp9dWb7m2lsheiHunFAElbGHD6w1TZjBHCMpXmP85TS99LuxN4SnRExIHwFPpU31XLmz1z6wdfcv99x7E7kvABLe96T+WZCs/TWCEcfV5pSQLS4SovsPbE+YkVXi3gXvmRzoukXgB6pY156XK2OXUE6rw+4jPAW9QjQd95L9jL8PYGlfXb7jICPLp0XabMmqzNbyULeJaWi4VdyomKWoj+mextGUyh72T1DhuQe6b7at3SN/FXvzSQVF/v7SWiECwd5F35hpU30TWEb37E7a/1BS4ctS3xKtKJ1/2GXKOY3FEx+rMfgWgiY55uidfuacvCfohf447tAvePplBSxhK5eJ4gFanbSSAC138H59im6pa07qZHBhJ3EpiPIO9WJ6Try5TTRxIqbhp0LMnC4QJP8yOI7RODlhkPC6h8vrfwtOqIgn13INuYRgk3xSNBGUVnJXr7Bfbgv+LeHgOsRJ+NYL+xfemy0D5nkf1KNSbodtN5WmgvjFx9Pa8HXft1XqtwmECKyV3r7+a1Y/r/Cd2PPko34PHlpMFbjkPdyumQ5n8NWxfpXrbDH/pJyI3STa3TadfvtvFqygRdcz/FzX8KnWhsw40pElbZcfNyWx1cbXthcoK8AYthuu1jncdK45IWGaw89QZcubUtdN+vG9bvSyMY0yham3R/4dCqG8L3n/GBUL9cOwe9lTRWoBCLJay0+bHwTNOH1f3on3jtN/q40LDuv+nOW35EWOarbDS97bP+jdeuzX8MB6/RBvX+hhekkuQL0L3uZ6HziivpLm34tchcGS0wByyx6BxZBYJpKkC33PMODVQ92SfY3tmPOLT8kPCW6EqsAxi1lxvkYdq9D6gIT3XQ49tjA1aQfi0p/amPY0X5MN7knk8RqtAvVnT24Uj57R0n4HkKsC6xuDc+orq9pbM7jD1G9bFh8ID4YdktKHtPh8yU1z6iI9JpTfOXngIAIG0F2ysWnpPGUsJz6jNagcpyp/mgNYOC78QfKjHApcbX1Ekkw5uuxQJ6SvivyAtAfntnXfMj8ZsE0iPBpPQD6J1XFh46oVg4C+BoXzccuF9NRfKid0IYt4VRFln4UcM8HttkXRHfviCV1nSjIrkvsk8N6XpHGvH6FLrYyJF3MBWPEL1Pp8ShOmDxVPDufpLnqhu931XvG+0wj7atui/x6GMbQr3oN8AiF/nXphqd/PvikDSs0qE4b7gmMupbjsJHDCMtL9dtuZ+Sc3Ifi7f+UuhDduTZ3IIkf9SfArwnaXl+uJZDRKJTFgyj8AeOPQiCcnW9E+Yq88hhfPYumylEPoRiE87C0nQqc2yr9VXu8MoewiZe6PnzIM1OWhfttvHnSOdFKn/MM8qwn3mQtDl7wfzye5VEEu+/UDrSHGTIkCFDhgwZMmTI8JrA7pZg+eW9p13rfxzaGj9KN+ydJWuJ56X35D3qaAGQJrgfdQori48iwbf3Ngc0vSM0XPdNunP1eoQkejseX8ecZlqfCRzvF1mT973HJPfyIw+n08OqHveG0Dbz83Sjl1G/XIfv8bYZA9jcd4tN0vKXdPSycAB8z6PG/bQbkN/Oc+/HUR7yy92ldT8Pz0z8AN2DztUpCXVLL5AHxsnzdkU0AcXNenxlYeRhEqq+wB6VyQj7/aU6mBFp/sqb1KqaG3WY+LVIU34reo2APXt27Bm85hrqwzC3BMszTx/sKB4M7jgf3et+HJ6dqFZoHwrB1m7YDg/A9IQqs67rFBOzZEkCsGcnEOWJvaL9njx3KxSee9z7E5Yk7dGaxRB9Wy8TVSwfmq4c9roWDN9yP6/7DcbU7K/eGzY+0qo/Iqd9AzpT8ikjkozamoF0jzm6jsf7ApNPHslr/WB5lipAUQZC6R6+P0iXicRzKTy3TS1g/3vXY+GGH+vJjnfe90Ro3baTbnuDSMIthAljDqF76olHh/ecpDyNHD5QfCv/8FlRTgW97216Sk8TXHnLQ6HKwu7Jd0s8mu58WbfgGXHokDDj1L+h26fUOP70RBuv37zj4VDdoxEVU6eQVVu4Rw6vCdNPP5ruktQrqCeBcq4qniQ192s45bKSaeiRazEs4Us+rSc8VoAJUydQGYLC722UuNbc/xTdWzt2VKQnysYraKmDJtjxwSNfNzhcdbseAb0vYPg2AiaFONQO0tO2Jo49LIw5dijdaoNWbv17AJ2K/As7PVb+eS6UsVexUM15jzoJIG276ygQt32SvHDd3PyUHsG6ruWJ8NgTeiY16qY4MpTHSKOGUlWuDocfosdIzzhDj+oGX4meJzqwdevOcN1df6T7xh8/Eu5sUevvc9s7E5mbX3yJylZXNInszzzxGLonn3hEGGnxsT6nK4VU4pDi9AwYtWgCe2vV7I0kLUjXupan6fbjk/PlncK15iuQ49SlEBpHD5dyqt9jyIXfJP6wtCKvzL1w5S8S2aW++8q78l0Q757frg9a5+o9aEzZyiw+n3k7mpiPTacXfEwXIy9akY4P4XibBVOL7L0otxCGSX138jgdRT7ORqQ4euF8VuS9wPJDR5HUnaQpeS3DgY3dGsH46U2a4qN/Ck+PegfdVD+rfPCGv5RUUEmWY/vlsp1R3SP/6s6bSfeQJQvii7o/pvxs+U1onXE+3djz1Y8DxPSFONc2VUlhGkHDdTqVwhsbmH9b+qOem/3kyHeEYWu/TXf/CcnHpJzrklTZNApnHkhrqt1Pz5vyiqE3YmHfw3PK0dKIObhbGrUxmB+lc0QPefiuGHe6MgV86A5Di5jTChQqVr97PiBP6CTrSVLwXP3rffsYpyrIxC/CsQ9YquJlvC16Fv4z43TP5urG40W2eoxzOt2Mw2QH4MMFdN8pjf+mf6TbP0/9Tn57qFk0l27wiZQDPBDFKink567H9Cz2nc1f5rXn0T8Kn/Zc3kE1BmhDo+88eDkBnQa6ReD+6UaaI/+Ql+l8vwnH87q/j5jWmEM4Zd6PwrpfagcHHQsFdEPd6SKODmrBPhzFguS7PxOZ5/L2YSirvsw4/Y1h8af0iG5OT/AYJdyY39TFXvKXZx7swqvvC1dc9wDdrVu3i5w0DnyvfEjfp1PgWHY/iRc66e005LWXpVmnviGeeT/ikCGSXr2P4UmA3yx7D3ys3aidx0nzfih/zQ95Vj4KJU1rozRGbluseh6nTRH5sH6DNgQmzbteXtaGQAnz/H1aFPbRFjSNPSLcvlQ7jGlAN9a3aKO0ae6P5K+VtwjPM2k4jjks3L7kPfpD+E/KNwwPLmdcNU4/ZvorP/hNWHH7I3RvenJL0saVdHpjHFO0XDY+FSAn9eqCGdpomDD68DBxLuS0r0D3T/Owh+XYIhGuG8dqo2LBtBNiYykm170BvOdyl9rC6qT06nwvayx//m5K/9iJpwtIGsQrbvlt+OLKFroffUobvpSmCbeEX/Z9QTqQBgDpaLJG0erLdAcjfoei7PKh+apf0H359Q+Ere2aF5AzP2CAlEc07AD/hpWkxZTkg4ajKIaZp7+ZrvkfGxtGDDdDkUNfNyR1J7YiqmwQ7z1cRsn3DPeSdF204j5eUZfE+ASepgun/32YP0Pru3QYSZ4kqG76hviwMpPrER1VP9xdKZ2AKA8FYzbZId2xzQHdMD3JS0enZOW2Z40amqomfpPyBVDHlPxob/GXmG3wrsaHnZb8OP1j7fjkj55+TDh36t/R3TCkXyIv+Iv1RJrf3WWQ4cBGlksZMmTIkCFDhgwZXnN43oVx0i0KTw/7ezpLtjCLYO/cejyp15MpEt0h1GtPatiKJaHfmU10o1fvNpCdzbr3bPtCXDUsWH5hhwaK0lWOfXnpztU26+4Igxa4FREdMX1eat8ats6cTff2G9fGxV4H3fe/ITfiCLrR0UysCxpH2vrKO54U+E2cCSpuKs8Iw/1AlLHnKQ63nHWt/1nY0vRBuiVyXuqvvDQMmDGZblo70mHvyS3gsKLLXO657QOxuUUBPHivPM2fh5UevgF8kRD65LmyWjPxUuuUf6azeJ/uyZs7+rAwbK1Nh2BP2JxClVYAxa51Pw0dUzWMgRdq/g2ZfTZ73AD1xfMEbgtv54prwpZZOr0leQ6+dJRALT6aAAwrxvTtR7h1HlqaWFhhlXAdKgWeRCaomTOD19rFC3jd35g450dh3UYdCUkv+HKLHKaPuIx0WomW0x4uXPL8hrVQ/buFE8OGDYN1eHb1ZaeFca8fRnfaUgMdj5YZ06lfbHoy/Mv/+zHdv3z4GZGTPoc/t1DGVfcCL8ewoFWbFY45bUfa5sq+DFLcUpDrBupUhqWffmuYdrpOYXD9Qx64JRfvrL/vGbonnv+/4kn5yJv1FyiaLJrGHBrWLFZrH4QVuRP9u2ujTmWYMFfCcNBaru/6ZYKEse4y3aUmSDowDQJArGs3aP6QDwvdpwVBFEWc5CaYNPqIcMcStyaLQGyagVr4Ve4YTP/atTpKs2g5pleE8NwOLRuE6GTOrF46IkWn8JMaxfDnIuP5046je8LYI8LEuTfSva9ILPKFCh0EtwDiXmgW/Pkf06vLBzAWCfJsd9J1GTQS6D2i5Z8w6qFl3NqWP4ePX7ye7oef2iEPLc9N1/QkQr0HS6CPoJTCLvmbhN84Rkfu1iy2KWFC9z+o+jDtknVh40M6VUYSLnFr/ii/xgiVw+owqytQHn0aWJFDH5YuCdzzp3ZwVVjyaV08PeM0m6ZDYehzlDv/Pu72HdsHJLWawFkWLLr657wuXGlTuiRt2AmJyPfIN0jL5oXTjw/zp4+hW3XNCkPMK6RI3blJy0LB0q1rLpVv3FM5iH/qjuWR1RuK9HMDAnG9E7m4HpRv/wSvuUn/Jc+tDPJR6l0Do3CeSxjd0ZEeXyTbI3VPQ63WgRdOGxvmvG803YBP61GrMJ0CvVfx3c1wQCMpPQ4Mi0pGkkRzqke/gUQtQgGksmFOHYYOMG0Aiq/Kx0pFqGrcm8Mha79P6n/WKRIWGiqF0LPhgdB6/LtI7TiIQyitKD2ir1AhEFSoqq6GhEMHBkvjF4SnZEVox/+uJj19zElhxw3rSagoSq2tpOcmfih0b/wNCeUKBVQLKZKtSuoEoECAMOyT3McvJUzL4NQM3tcwCNxg+PjIKxEmL20koLoRQkEVap+3IOSk8Q5ieEmELOgs7BpRBXSqiVR/oFL6SFoheR+EYLSKtIJo/PGHEFdbmhukIQihAYx4hbavuDb0rL2XNPiK+STAw+W7Fq5mv8oDw4wOymPMG0iDZ88gIV158C2EAT3Pk1J7W2idNU9p5hwJU1IkhLnmoHLYiQBJ2lnSA7g1f5Ik7i/SzwQGS5Evcgf8IQ/k6lQl+QsqjDmOtL/heglpQC84ZQMVsn2MnS98KDCcDsLHBo0oEPInhzLMcpzKN/m4kORVzNsFvXPezeFXD7WSqGfiD4Sy7+77Nm0hnT77tvCLh54lMQ4jAEOWJDTG5eMHwhxlEOLrlisol6sOVVJcQJw/iXSARG/atu8gzfjS+jDvaz8heSnVtozqIpwlaVyCAE013NA5HGWMDyR+W/o9DvmPd0mim0XhFcThc3TghJD3MV1oqAqhzozloyzhIxwNTr6z4h8keZMXLQF5OdcGgcaI3MS+CyB0QkJe0i6E6R4dnbtIH77w9jD7q3eT0PgFMbX4cBuhbQBSuavughc0wEgocyBwB6FRcOD0xcF1Bp0sVRDUR+AD96BL+bBgxX2khStbSHxPOFC5JeD3RN4FgasEyK9EriB0UvwbhJ+XX/tr0sTzf8jGL4j7dFi58Dxj/Wp5CfmjbQZCxwRTz5Qglh4S+AC1PPxcaJKOAui3v8d8c9Mf0RtPC+BH9KO2iqUTMoFsJM4e0QUQy6fkgzfEnI/2zu4w8+I7SXO++nMSGoUeB78xpq/OG2hfAQ0AIQcYpJHLy7/zpdClCsVGp04ZAaFcyE2S6pojKYMeFjqO6OhyWo7lAYjTR8wPZS5tED90SgEPCi0/9sWSuPGb94qY5qX51iONdBDKt5ZG6Ab0RL81zpvyh7IlMmS7Bz7R4e4W3/qvUOjHXT1A8772y/ABKXug1k6sZ7BwkA57L8OrD4l2ZciQIUOGDBkyZMjwGsHujWD00OSi/bB8qJ44jgQ3jhoEsUclv9lzkm4je7fSweo/7X2kg9Z8JxTGvpEEy/LWL1xOeuqE94SuDQ+QtE+vDGCxDKjcowNdoOqmt4eGTfeS+k34+8hTua0jtE45h9Q25eMk7MNbyneTsAgsnxNehXo2PRo6Jn6YtG3VbRaA/Jc0kKR/GwMWoNcKQsr8Nvy51cF7ldrfRQ8YPVH+IGATcGDKgffacyXpU+arSHULziUNPPOM8GzTR0mYzhEjJLyHKTFIBG59BpFHcZCYe8oHePb44NH9QP7e46aRRkjzzWWQgvzoXvtTUsf5zWHIiotJ1XUNJFrrLA685+HKjQhoRuSfpPzFXjjNDEpYeYv9mUGtTR8Ou5avIgVa6DD0pgtWSLgn/IJolzGrhB9g8koBw7pMO8gsqCT5jR0tQAPH/wNpfwOaCKIly8gtU5A5pmtwJ4ui6EeumqQHihSViqLPeSkrQrAOshALFQvdJKAgugtq27ozfOziO0nwmYN1DCM/kh/YBxU0afYNpNaOXVzgBlJNUSQu5D6OJpe4qBeoU9JP5V2WGViJTKctQGQ7rEUgyP3y728k/d8VLaTKUEqhIDoLgtsBObklC9MrQCWkxS2iSKAB4Uk0pLiwRqBWL/wuhapSnkRrloEH+sAL3oU/M/EhPLeueabxSFF5QMpjwZDWs8K5MiDUun1naJp7E+naex6TW1obOcol7JhdTYJlDMP7pJQfLj4VXsiPE9INqxstYbj3YoB8UcJ+wB4HpS6yB6GeKIiOgTDEDvIpPAqJ29KqPBvZ73Q60tAFfur3/K/ew51SQLhdKPeQiqwxYKnXxZYgIC8yA4G3tA4yH4RotRS2QBsf2kJqmn1T2LKtROqq7uZ3BoQ3nU/Uc667pXKXBAY5V8ZhL6jcRNdBQOJHwhEdAC29biNpwdX3yTuQicgZumXllbKT/6R9hYUHzj3fJEr8JaFaAKG85lFfCEFXvHyzHHjcCCvCbwpZ+vOo/w349jiYH1gQLwSZl6SuB7mFnD5jxolMpRyB0tEVRdchE1BVuYpED1YdspxLXoAUyhssxLAoKyUy97qgWIR/81vqCtfcu4k06fxbwpbOLpIyglFJIdQDQvJ2hlcJUmqkUIVXgi70azyJxK1E8DFBgReF8Q+po/6bl4X6FYtJ+frasGvj/aRn//7doXPBUlIeFb81c/0DyF0I+MEohiqJdNC5M0nD7rg6FCQcELDz+ttITx89Puy44TaSg4XElI+VZe1A0rC13w9Dll9K6jzns+Hpif9I2nXDHSQqqicWfCAgBpa6zYILMSHd8lGBgATeiIwehdLC1NWz+h4ee2NiUPNcUt3yS0J+7BtIz4x7V+i6814Sqh7UgVpXJu7knvAhFQobn/K7p72d1DnnorBt6VUksmgVD7b8iXzIff12pxtvqAg02VsvWswtzUC1lzaHgZNPJZWk8IOYJhR4klQW+IBryyvKQ38p0Pj3/IZ4QYjTg9ghHZPnJO2gro2/ER50SImNBKSTskOYwp3cszYDq32Ezc4Fn8vv/UzgBFSSNLobaYH0VIKSyiMPJ+VHHUHa30Du4R8qcP8weEOD5cC+VJS5CA4kghS5SUMJhCFZ+Q1iGu1j4KqjUAngzIP7H3qOtPLWTRIMPjJVoa2zHKbOX03CEC4Iq9+TsoKw0TVCYxdz7iQ0IXxwxAMpkaHwKhfVczzSxiI7T5I2EJKADdRBmIfqnasLr9pAuoHbVJmyCX+xnEp0iAukDQ3Nv4IkTAkeFODGQX5wFUJnIQaNsAw9ch8EuTv/lLk8U1/QFg0DQ/NebrzBo7JG/FrHJA2hBHO/dm/Y8NDTJDzDtmwgHw5GfdAjDT4QGPRpD3jmA/JoWMSpVMIMCBy6DDE94sUAbRPMadZ5zdBHnQpQYhqNhI+ixAvyaXMXSX5hDjeIrBiMLRJ5NHfFPSfJ4+W3/oG0+JoHtOIV0gY5+AJ/0D7IAQ1ykQ7fhS5pA10D9oytlryUZrMQGkOd23aSplx4O2lrJ+YX6/cK+eZD6VorKUqYWyq3QLwrvIC8TFTxt4QBEl6x/gWkOqik9bs0qkCm+19cfn9Y3/IkiVxLOkBci+Cv7isoCzg8ADTq5a/wA0IaQOA7n68ioTRjOhOIfGK7NCF+lyQEUKzkQRYukpHUBYluiCRjWhif+Ab5tAisX0nqL8hUQ4FBwpF+zzJGCS+DRLY68UNyRHjyNjW0wvUADWgUaxZtVxQpMwW5AQKv0FTQxt89FT73Xz8jaaQGSy6CyPDqALIsQ4YMGTJkyJAhQ4bXFKSzy35PBH7AvqU/fNglhGdzR7G3CqAvVGW7LtTFAyveFN/buvDLYXvz5XRjD0btbQfpAaNzZdGh28dLIVTV6X6INcsuDQOnnEo3GCm16Ub3HbObw/arrqObcdh+rH5oAQZzaF0QVE94R6hf9V905+vqYiet1NoRts65iO7Oq3T/1uq6ISHfqPsgDxo7OhSO1D0hi8cOD/1g+hKkxWMdUcJ3V6Blw+UlQH8TwOKe6Kfl16Ft3hfpPqy4iVfp/4tfjWP70m+Grc1X0F01dkwYOOMsuquFt+qRypNa1SSZIr9da39J987/vSnsXHYN3ViMWNykx0xj1fWg2bPo7t/41lA92lbQpyw9PRt+w+uu9T8JnZfrccTAMMvPqrFvgrCJHcuv53Xbl78Zhiz5d7ppCTSwo41et8FX++Oo6J033E63H7IBX53zdNeEbUuWyW/VDVpprP+MnjYG5oACRiAEmGaAIWIAowcxLWVck7j3FywraR1R6wbuyT8O0QkkzQNn6F7Q9cv+g1dYDvYrLOoVt/4hPPr0Nv3hsoAVHouqBFjp7Ed9czqEyREqxfQI1rY8Hda3PE63qZrkIxYhwbon9wo9AUPHwJknjwrXLXwn3bP/855w+TW6UwFsOoDuQqCgNTLmTy4cZftvzn7fm8JZJ46ge9QhQ3hFzjuuv3tT+PIq3V947S+fDFVWh3CMwOSPcQDYhIByXqdvjDykNrT851S66+r6S5psV4bZN4ogVAa0MHsa7X1s+r96ie0OIYgHLYSqGEbj3BtDDtZgQRlTTNxt9RD2xL1j8XvphvUxiaMU7rRDBxrn/FDuq8x9dwjAR9V0lwrdrxhYZQcwTF1wM68Arfy2n7pbsMvCSywzws6Iw1Sm48e8Lhx1iO6Wg6d5VxoDrIgTj9PDMo46fIjo0u/p3ifAdGhl/tGntoerb1Z9QJl1XcOoA4fSBZgyAeBY5g1f17w67vUHiSfXk4RL5DEmywFeB0rBivmz+amuMO6T36e7o22XyMH0gbqk4aEc6oJIRKE6MLSmKrz3pKPoHvk6yErliDoeVkYArK+8TY+73/xkUr7iN0HqIFi4iYLU55a+I0XHZ0/V/X7PkjhGHlJDd6IPPeGaezVfv3bNr8M6L3eMWfkE8JswuUBtRgzX8rPhm2eFusG+ewr0IZHdPsGSgrosQuR10Ur9xjSv3MAr7vnxyAVpFPg3vXn6uDDfdv2oiNvDlTR7+V8kYXGqgQAWWdd5FCOUcWD9xqclDzUeKya02Hq7oXHs4WGClFUipXeMG78FF07THRz6NS2XsPQ5rfAWH74ZztOCaceHzc+0072u5cnw6JN6gE/ZdpCh7ljdmS/Kl4ejHYgKFmT1c/2C94TJJ+suIkgZwTxRZ4YDGymtzZAhQ4YMGTJkyJDhtYHdLMHswcUeDHq9+qN96j+HHTfcQXe/Cf8Qhl73n3TjKF2gvOmx0GpHF+9cjz1CtX0NS573bRP7EKLRHlO/0WPC0FUWVmoeZde6H4e2mZ+ju7T5j6l+KuynagXBZHiilA+156rlc/DlFyTxpNKybemy0LFwif5o056f7j2rfLAnbGkpjDlWnmgvu1t6oL5noFtduqWD3rPuJ3RDfJhpBOCv72HZv/EtoWjW0oL0GL1XO9ROXMNeuW4JBjrnLOS1/fLlct+YlrBdTvF0I8mPQkMD3f3f2xSGzPwQ3YXGv/e3wtbZXwjbL19Gd5nS0DBw2hmAuYs4yQ8YMvldYcBZatXrN/39Eo/ehyVlu1mn2y9Sqz7n4RrPhRGY93oY3ZrXGgfSWcqrpR77u1ZhcaRAt7cLoWPK2WHXOrUyALDRAOhVY3EkQZVUrSnn7V4pZVFEOkxtYRmPFqL9CLd0Yz6f67NarFVe2PKq3k4yHOCjGa8YYENPyhYAiy/n8BvS81w1v+AHf/Q+3j/7S3fTvfw2HSWA1SZaoyBv0x9Yqx799kfoPuqfvhfLR3qkxA3kiAsLk4BZZ/xduOzTumCw3o7WBTz7mL9uWUuyONxw72NhxsWr6e7YirKvD9Ry5unyCAu0TgEXTDsh3GWLr5rm/q/4UD+uwwDnNAomjj08rL40sQQjfgcsREDTnBt4BXIF0VwfJrPENo05LKxZnJz2VhmGWaTn3STP1D/mXwOYt+oWxQnjXhfWXmKWYLk16iM6gvLok3rcL0DLmJ9+mcO+tiqLUWZxnD9jTJhx6hvoTiyEgMmW0DyBpdtFB1mk6+i9Rq+0+j66Yz55rdy3B5K+RE88jlK49F/1VM85U/9O9VFAPlwPgBi2vq/R6fNZX7ozrLhVLc8wKVr1xXnpERIWt0kTXGCnm533vtGhfrDrgYTl3hGXuWEhPPaDWl/7Prah1CPR+EgkRhSSF2fasdtXfr4xJQ7hOZ0WICUrxHX9PTo6OOuSe7gFHoCRwhh0BTSsRaLb/98MtXim9Tkd9IsFol10ldbRC1ek6urUNyhnOo89n5un61kCuBPjN96Rl8lon/yO9bbX/AKR40Urf0Vn81U/lXc0lCT9mE+tPxZIXM0z3PIscD/Qc5ezMZE/5ZscsaGbIyXquVAqx7ZDz+pPGHca3/JbdCTki1fpSXkPP7016iLS4t/m9AjXMcPrw4PfeT/dnj+IKcoiwwGN3RrBzDy/A8WyTN1xw+2hZ6NWNjXzPyV/tXGCxiWvC5eGYptuHN6TmgrABQRx2C/5WA+ePY3XusWLRLnoDOW21rDVjsntvGKZFBoLRJTQh/qghL4fX1WdNlprVlwWqidrQy6pDqTi2vyn0D5Lj2TevvYeeVef+hAwh0hMkQeNPznU3vBVunP19RKLNwar4nek61ea/o6Z88KuFh2qxWfYG2FYxFez9AK6B077R3lX4+Eil1iQeGFquiyMrTP+jYsIFVVh4Ew9RKN+2aWhe6MWyvyWLbxWNZ1ooSKMpJOCSmXn9bfQ3TH9/4SerXq4Se3ss0O/aXpQR6ldG/8DxsoH0g4zQZ54HgNF87Nlyj+H7rV64EEadXZoCRu1kREsktAw8NcbFvhQdW/UgzZaG/+J12Lbc/KaNoCwUMobAiWsarfhqleiUbvvsPyjXqgbXHrDr19tbTi41fPQ8JdMBlTO4uclUZroxvPkQyN9Q+59KR21s/6bV+SKN2Y5ncLO7M/LB2S2HSW6+BppMFt+e0cNkfiUGDTwzrbGwTfROPDpFRhKtrIXhSiRJWwmQ+LgseVhbVhNmn1z2LJjB936cdIwfBg8J42UEcN1Me2m73w4aXzyoAvNN38njQljDwtrvQHbCz4dAg3pFwzjMgvDRWFI+PhRLB+eEelpERPGDg9rLAwMxc+yjkllw1A60PYOpocAY/9mqLynUzEaMExu8aN+Sz7i+Ktxx7B68fliAA5iXkq43jf45y/dFa60Bioai+nvAADdumDGWLq1IWV8io4k052E+uCx3RqL9WdeHao8aqk//PATvOJ1S33NgHCHTXUZe7Qd+AIPKjq63YkGmTcq533tnrD4OjsoyKZRqK4n/PsxwDPOGBmWfW4i3RU8020MevqEkiT5M9HxB1vDKfP0QJYtnViuqqj0q2EcdejgsPnbOv0KHmMMieeXhIUr9NjkhdYY3B3Kx/zpY2Mj+KWgeaXGt8j2jwbid4SC2Pf48hO/Ya7e0LCA4ppzovC0b6Y/2ju1npo453/DBqt7eteXHg5urfjceLqnn34sr+k4MhzYyHIqQ4YMGTJkyJAhw2sOu0+HoKVLe7d4Eju04nCrQ9XmP4dnZ3yW7p477+E1bb2DLz+6FD2nHutZFxpqQu3iC+keNON9vAK+0Kv17Lkhb4u7emCBtV4Z7ccWPLZlGXC8nsZVc4329PphkR62aQHK+bDtim/RuXXh0lBu7aQbgxe+OIIL6QRYuFHTrMctD57/GfFhfQLh2ZODYeVti/SI545mnU6Bk8oSS3EuDBirw1KDV/5H6D9aLWSAWg0Rt27VRLd1Jbc1XxG2LtLwMLTiGLri4jBg2j/ar92R8irhIg5Nd8fsL8QFblVHHxkavqWLs7i9nedFX+nTCwGrbftZeuRk96OPC9f6Xt7SRIv7uDfRDfi7SJsPlSF13lvedvmK0D6nmW7PS1hZIDOAm3PZ0CjuY/qE4kDsm7nOYGqLujHEikkcwMCZ7wv1yy6jOy3TVwaQbS+ZIY/xR+A6p0j8wdYEeywAFYHVFqia+DVeC+V+ck/zTZRUPJmVTfJaFxOFsPlpKV+m22nLjY/4NI4dHq2j0Ln0CIsjlktMNzLTcxkyNkHCegzLMXDFtS1hzlf1qGAsPvOh9STufKgy5b518RnCqz7X44DVrfKqxMttCda0JujTEmwWcOwT7L4njBN5XarTIaY23xZW3fUY3XgnsQSjRtQwhmI7SMHPvv7+cMzrdIExUFHmPfsliug0By4aP+DhvxhoGBix8wWsi67aGBZepRY+bLYb2be0QkYLpqlVb8H04+WGvoe62lEpx4TPK36wka7z/kt0waad5bC9YhyNkN+WxusXnR7ee6IugksfqZ22kCdvAern6I98Ly6Ic3li0aEuhpZ3JK7xot/AusvOEE+WQPi1uBEwdVmdCt4zDxJGOu6l1+ho0pyv/YzhA14+WK7Mml6V7w5rLlXL/8njDpe/yt9Ly8MEfzlLMOLTsJMyjb/7Ht/zWYI97PLqc2JeYPTBs811ERbhUf90Fd0dHaJfBZuGxP2GLX/kMuWkkXRft0BHpF82k3yG/Y4+GsGSqXbVbPTCFUKX7c3bNu3zoadTpz74PrEozBhKAnC47C6bslCNfzYvtGb5xeLWVbPeON2+6LKwdak23lDonR1OQ4g1NZrfWtENmv6BMGSp7lBQqNM5cHxvk34snpv5udC9XufrKk8aBmbzYFdUIDdMpwIM/cZloWqqKi0GX9NTC7pbdBpC+6zZoavlD3RjjiSgHyCVy+AzTw91Ky+hu1xXK55UBmgiOZCMHpv60Dbr33jd1bJRpGQFatRhYei1Op+035g3Sl2q8aCSxtxhIM4TBqxSLT36WNhy1r/QvetX94ea2efQPWT+eSFvU0W0IWSVicSoDvy2ylKc267QKS1b5y6Un+oXY0M1nzmbzgGL5vBaXSPytsoD73tKNVS939PWKTLTDtKu62+VusBlZvJgg8b0RCqdIjaPNMRG+gEIbyxqw1F5xtEsXm0evPb7oTDhrXRT73Dh3/2JRHauE165o2b2j6j6s+dCsVil9UCw8paHeD3nS+t4xcCwl0H4jR/lIvb01lzvkefemIhzXEV3fDoUhqEbxx6iPyQuu923bPjQtMrCT2BhSxjH2jzZx57aLm1z72iqf/Co+1OHcMHMfwhNow+mu0kan0laTUYp/CUawTEfJEzvcJ4oDZp1l+nQfVXTt6L8IWcH1iZ45+SEY3R4nzsdWF3MhqixmXqN9ZuvD3CU8oUw/jjNn6ZxPsd/XyFhRv3jhThG8mnzk7rDDzpUPo0Nh3gAKPoLZ51A94UfHZfoK3iOziTsdGP9zAX6LfqhdBISeUptZ9MW8tJanTBa07Nm8enyVwNMOt14R906SU8Fhe/PxoeU53H/cl0o2I4PXg+jQeu7gkDPbjedUdkpHwjNxVAxtcPAb1ysIxI+AM8ulV3lji/4LHgDHG8uRMdBcIE0DJOSlYT1UvDX3gj2eqa05uPMLwDfysSWpvJE3bboKt0h4yLhzdfSaH1j+S35WWX5uXONGpF6114ZDlxo7mfIkCFDhgwZMmTI8BrC7pbg9K/Y88btfOjeoHsmPnv8u+Sv9dL4t/I19pGsZzRo2vvD4KU6BaKqrjZ03alW2o4ZuvPDrs2bQt724aMl2XrNYCvumdjQEOov0zAGzvhAEqnxsG3piriTQU9Hq9xNenEOWFoKZoWutX2Eq0foEJnD07Bt0eWhfcFiuqvZT9B4fOgb1s0hl+kw/8A5M+PwHywZZgzXSfbG5/ZFS0LbAtuZwvodPDmq6W10H3S99FjrBtGdwwlBaaTygJA04aQ1oO3s8+OK64brrgzVTWqJ3H0xjPZeE+u0PG/VxUWtZ88OO2xBHXq3hVG6d2vdsotDv0YNL1qTevECixPAiSa273DHzH8LOzeq1TuHU4TMMuPW0x4Jw/d5rQBk10sVDyQkVgnhPZmbE/rbKEfDhh9Kukx3TZMSS+z+gueH8GSiS91BxhCcyZDKu2hxT4kbew2f/zUtmzgiGYBhMaZFcjDmj6QrSRlKm+YxhqMBDEmPPERHWzZ954PpaESF9BcsLUkYaX1I66ry7JYaAJazuV/7Gd1LfrARrPRCcqNp3KHhwmlqLZs458CzBLuFs4DREdsFZfzooWHRNN1BY8L5t0jatULBwizfPxXvedieJ8hfnzKC6SB6cpwAuurljfFabpiuIpzmj+n0svkz3yJ/E1nvNVIZvPmpbWHOV3WK3Kp7N0n4mi5WU3k/slbjDuV+4bpFE+icgukKu1n/xUtfllSR/agP697A2DXDLbOlktTQJhiIZeW/6UK1fzrt9R5jAnnuOdh75Prae3RK3vsvkHrW4sbxywAssT61a+ShteGRb/vUtfQoBxNLN95SCQD6Hi3FVg4Qub+Hp15Pzvvqj8OSa3VRngOjrnHfWwlj8km6N+31i05jeoheaXmxcEtwM45qFqRHFBSavv1jCVb4qML+sQSrnEurP2EuZoVEankULe7yTevUem3Ye64MRSunyONkv2/xb1NysH8zMPbYg3jNcOCjj+kQ2JxFgQMM4lNREC/8WyZ+NOxaq6uWkyLeHStybNRfv1wbfZj7W25tpbvjoq+E7babRFJ54+NqMbLC1somL0pVNVrnnzasvDjkx+q8VFQe5c1/pvvZc3Tbra6198qrFre8n5emK1DCR9lquIHTPig8fYluLQQKT14JB1rM0GH/no1/YGMNwDB40T4Y+aHaUB32g2+Efk16yEbFxw6B2Xs4jGLL2Tr1objhfrmvYXhah8z+ZKj1gydSoFysJmfhssD9IIyt8xaFndfrARQDJp8R6ixN+fr6lEyTBiWbK56JJovult+G9rM+qe7HNoknld3A2R8L9ReoTMtDa+N7L7RSe+eK60KHzf3taWuL/tE58A3yXOI4mtXzKl/qkiDVL6TmQ8Le2TiQ4NM6MOTqW/7A1bBM9XzAjMmVcgJeoWRMmvejsMY23MecRQBTGSQD6K6WC0oFgDtVNgUFR/3Grfd4pqlW9iFv25eVuuXjr+9h7q0PzdcN6R9aO9RvLocJIp5gzVfUE2edeDTd118kDZHUlKl0Z6J3Z8FDAYwr/oX2+DPcv/FOPWhgcvNNdicBy6N1vCZII3jBNN194JXeHaKiXhD03QjWa0HqOl9v0Xj8IWHBx7QR3DRXOlbmV+eVallisbS8wLsAtwTzhpXwaFkvjbaeUJ3TaVelnmLcOsynfmE6z4UzNL7GMQdLnOgs7Cskf2JihV/Tr6pctYSuDV8cOODGCW/C1w+qCo9896N01w1JOv/wl+S4y1vCiNdiGDhJvyNdEpdPVdJOm8lWdHHTtz9A14hDa8RHZb5VzDnHb7sPf19cocPfF171sxgntpUENA4Na/KJI6UBegrd9Gjh4RvgdRiMHck0u77T5LfhzcvEjXc9FqYu0Ho+vhXfl3uiOxPGYi5w2KPevhS8ZhrBa7C1qpYhRONtHI8PZdT5OP6TN4aNDz+tP8Rb5A/1jZVT3yKxcezr5G+SzxkOXGS5lCFDhgwZMmTIkOE1hz4awdhNV4k9I+ntqKEGPR14z4cBC87DDQKLzUDYMaFw1GGkg1tuDoNmTCHtWndPePb495C2L10hPWr0qvEmwpNefBl9ZtgGMEQEu6W6q886JTTc+R0SrMBgAbTzquvDU39/Gql77U9JBfS3pVumPW7YNvRfaBgWar+5lFS/7JLoB9GTBfnTuXAp6Wnhr3vjgyTd3lulgMVPA45/A2n4Q/eSqieqFRigZVquDE+wdeEVpGf+/l2hZ8MDJAqwtpY09PorSWoFVhkk1guBdHuxgh6E5EBmoGdOOIvUdf3qMGTpIlLD9V/nAjgQ4odFjVZguiUcdKEhEliAhWCxBT3bNDV0//FRUn7kyNCwVuQshD2beWCIEF7DEDgo8ombkecQ2mcvIj03a27oaesgIf58GfuYFnXqg8kR+sFdNcr5kMeG80IIqci9PbHcSS3AII37wCLXHViykRpQv5GjuCsESEc0RBdA8oLK6pWBGhSRI6JJOSym1MU7zH4h3cNZ8w3WJOwCwQMa8IbxzDPNuVBTCJY8WNjKVTE8PK0f1I8089RjQq5QIqG8IceYawhHCFbIsa9vILHOwA0hyARxMt4cSpa9Z7zBZclQnqgVILyD50xoqK8VPoQw7UJthglB12jRFirE3UYOVMACBZJ04ThWoUJJ9EgEAUJeYeEfCPoWyxBGHFCnCKGEgcrix2WAco+FXKBcuV/oLhVJMBpjURool68iIW9dUbQU7juw0BU7eHAPaIkkn5cyL4QpGcXQn4T8RNnnCACsa0LnfeDNtACDNL9VD/AFiHmP2wbc1SeFgDEkkI4iwJPvdGI6LHXPyENqSbgbgbIAkpu478/8u4P4u/LdJMjaEcsBXjA9H/v6uiQQvGpucIO9jUDykvzVf16HwINyDO+q0wqkHblQDA01ar1Pg18K8Q5CrZpEjrB6fUdeJphqvMJA2kD7ExoHdtuw7FTpuX4Y0tMihg6WOkeED8K7GBUEafsHeYBw7Buw3/nP8HJht5yivsccTZP8MfegCW/hoQ0gqAOo/9RJoWHDTaTq0X8X2ud+kbSl6Z9C92N/JmHCLKpFECpyEE4x8zDwSau5bBFp2Co08OpI5daO0Dblk6TnZkkDvHWbkgHVt4YgJOFhNwrQQWu/HQbPmkrC2ePeMOxp+T3p2RPOCNubl5KguJgIopNBUDi0wmo47+ww7Oc/IuXqpUIFiS+oOf/Jxx1TKUDPHX9G6GxeTEJtqdVqLvQb83dh2Pr/IQ04ayJJXhXSAqeVryJXyofuR58ktTZ9ILTNWUDyymjY2v8JNedNI5ELqexBqAote7TSsrDRMH1u1udJbbPmkErt28LA8z5OGrbh5jBg/D+Q+J4BjVHW1yCTBeRb3PwE6bmxZ4Rdly8nkTeRuzaAwRPehVuHmQDITD/ZkBpyGlQlDRVpVAohLYgBdCADcsC8QNCABefKDdzUZ7Hj8QqDskceMGotB9Rj6/z4EC4IcnamtQGh/qvQbhSXkuYV0ui+0ahc/Om3k2oHS+MAgQphRwgMLYM8/XjU8nAbSVmSvzZUryGjSYAGnYVtuoofYElJ9MQ+KAqUES0nz3XuJKHkKL8gDRnzQmO60XQUJ1X3QAQbjWiswo0WKqZFSBmReyB8a/O5/iTch/RABX6ENdWx/JfgT/JDCFNbsDUcCDkugZGY99g5A4QOghDfx1XI56PuK7TcKzEFEj+n10h2eb4AzuuY1x9C+szUMaxtQaqLCZDrnvOe7oTEf0mamJz2An0TzoV6IE8cGcdtDEN49KntJOq+/KYqqdgiT4RHBpL7hXI1CXPcc+hM2pxjh+s59NvzEO/GIBif6S7yg2VCyxvTKTKInqH3+A0CTA+2dEoTX8LlnGi5HaXD97FaJic8SsOfidLn0U+GFwQatyDNS5QX5Ls8cEFa/mCLVNFsUmvnLilf1SS2OTCtT0hzSAGNBGV49aCydGfIkCFDhgwZMmTI8BrAbo1g9pC9Z+q9IiHtwdpvea3+wtmkuiXNpGHXfjPkHv0T6dlxp4ftS64koReO/RRB2mc1oAcrVCU9repRR5CGbrwxDJ4znYQ4dl13O+nZo08KO1bdTOIp8NaL0/4ZGRKgJ10KA86cFIau/R4JFmnr0Im/ctjW/FXSM8efQura8OugkzlUDN6Lw7HJDdf9F2kIpi2YZcmtSgiv1NFJ6pj7xfDMuPeQdrXgiFANpVQuhP6TTyVhqgH2/wVhIItTNkS+ToBbobd9+VvhubHvIe1c9/MwcMxxpIM3/JCU544N4BfTChJLmApXZQAee1p+Q9oy6YOha/l3SYURR5AOWfP9UL/kAlJV/SAJAMOrGHBF+pQnDOXBZot/brftWvdTSee7SV33P2Cxafw8+II2fgzmoZ9MKYWShAVK86ZP0ZPuljuabo1PntPfgQtM2CiMeQNpCA58QdqYPkDzJebJfofJVMgtf5EHKa/5ohEsVQZMb3GrXUnKn1uIMT3C3co9dAtTFtSSN+u0N4Vpp/8NafSxB0c90bjUkuJAHm988GkSgSONhXKiEq5LtAzjHYaj78gDaAUJqQIH+EermtwD4cndG/9EwsE5yX110cKMnRRgKcwr76ADEbmCyE6IMsRv3MS0EREGCDKNVlXJN09LD6oQk5TaBFHqesSfEifsQGZCRTyXqxLiQUmrQjQkTk+CTuAd+ftiUMYhJ3wXZV90CwsuOR2HOR3zh/kvNO7oelLDEOFD0kNrNYBwhOA/ygN/bKQg0c9SGDl8MAkePA6NUwlYu/FxEoAFnKAEGg8oRiaE0anRx9STUJ7c0Is4Qb7wFGj5/XMImISjon1KCIOihRF6C45FJkJeR0qF6K/FMhSJL4dwz/2PRz+Yckcis0iDhCPv1db0J5E3k1GGvUMO0zAxhUjKRZQd8kOeVeoELMBdpJaHnhH/ap1HxnAKklBeChJ2aQLV1A4k4dUMrw5kpSZDhgwZMmTIkCHDaw456Qmx4/PioV3jjoVfDp3Nl9OtM0q1fQ0rVZUtMFA7Ic0Y0nPWRSv9Gt+u++QKcrV1IbS3090683Nhx6pb6Qa8ZwVbQ9HC8HtIQN2S+XQPnj1NfiezcopYmCZI71/rPMACmQ6j/1jdkg0n2/Xzk+34V+F+u9b/JGyZqaei5Tb9UTr29gS9REt37eIFYcicmXRr772vmUIqu+6Nvw3tM/6PultaIv/YXq5u8f9Hd64ei4wkColKLQIGZ8qtAYIdK34Qts69iG7MCR4w+VS6ayVdAPZrRg+XkLDUzia3aLnQ+whW5yGGsMv2YG5buDSJ7q8AfnId5i5DF+imRUxT6VZp/nKhS3EZul73KO1/8ttoAQLifLJXEsZS0/k3hnUtT+oP0wHsPVvECIZALWOaFuxtmbMt/3DP97ok8/YutnUChgzpFxZ/+kS6Z556rPxVGbU80haO//j1dMMikrf5vn6KGayOLow1l57Fbb8cXt1A13brg+sjBaygxg9tfVbGYAk9+sM/oHsTTiODOVPgycCc9GJO65sF00eHxjFH0D1x7g/lr/IHm2pS8hXY0si3N0rzhWB9i7R3zv5RKHIBodwvYS671mFe/rFl1drFZ9BN+19Z40NZW79B86fxszdAUHS79Rz7S3NesKBp7GFhNU84k3xo+qZkifqFzbvg86phhTL/Y4/W/UjPwrGtLiPM+bW0chRLeHXk8sZzSRdeQRLjx6mM5GaYeD7khDCkDoqWU8SrYfse37R8WhxIa76sflUWHp/U1KZrGA2ClR7gKJAA28mNH4etpCQshKtRCCRciye5J7A8hhX0fResofuGH2+K8i8wWOWpKH4mWd7fviTZQiwWY8re8iFJHqNosW2wTvj4jVHOMS/TuiFh+Ol+3K7Mwq7guQK7h5HcE6RkcHTqxDjlVdIHK7mVMczBb7Yjp+fP0G0AiVRaEuAdi1N0yE/sw33/TvdGs21V9gXbKg0qC2s2UJK6BfNigQunjYl8uKyARM5pd5JW8J+Ouflq3ZZu0Ypf8gq4f31ffb9cW6R52OXVesIb0afssF2cyuKilb8QvfLvuFp+ASvOREV4DgnXZcMvbFpQBswZB1zGGV45vORGMPaFBTBloWRHIaMR4eUMeeuNKb2nSlSHRUWCQamdJnZdf0fYMkv36s21bZfCqhW2DpFpxclPmJeqWj0a+KB1/xOqOdVAlc0fb1u0WBrn1jCXZPriC08wV37ah4UNzqXakM5hMZ6VV3qxNHYu0j1hty1ZLlyo5hclMvsuhqI0VIdd9590+8EVABuW8eNvPMjvzkXauNzefJkUJP1Y4ANWa3wMPk+PQSYsDlz846lDpkma2m2v3h1LV4RcwxC6G65cGvpN0b0s0xu0xzxhsbPEMk3qRl52WkO/84abeeWq9JemLgcM0OiIx/xiqB4LqgRoBCfy9QrPGwM4rCW13zQ/WuY3Lce+PuD7ERPn/Sis3aANNecHZcDah0xrsrE70mpuuefHsGI/2vFjdPP9qW/HEbAh/NO73hyGDlK9RKPCdR5vv/7DenTxw09tkzKi4ZWLln4UdGt4NZ4wPKy9VBsKqrzqBPSt5BaGiv1wBYjSP/jpD/Xl1/w6zLPDGIqI19NS0PiwqKhc3kXn2qVTQr5H640Jn8WewlqfUAbQZYFXf41jDpVGsPFJhiwtEnfc4/f8GySNFk++KOXeOvemR5PGHhruSDW4PH3oGv/YGsHjpTFeZQnGxAUCjU1LR+O4w2NjHPvErlqvx8FXiSx8v3KoV6Gkaamt1T2dN337n0LdINdXicBFhmAtPnUm6QI0Vr13Z8tToXHujXQjEgzzAqVyP3nPD7rQe6iHkzpZ5GBGDcjW73PBq8cNOcdOEi/S8UBacfASAH6Mt93KlSPhfeUtepT9jC+tFXlqumEecT1HvVbiNI0QVnz+xDDttDfQjelM6pB3PCmMIAnb7x985orw7Hb1jwYoUMxjGN3ikPSNHzec7tWSZ56udHiQhTf+PVw0hGLDnb8V4G3JNXog1dz/hI6bflhYCN8NFlgAufqyM+luHIuOkOc9/Cqvrtv+jVBgCF/D5VQjewS98HzDlKnmlS10f3GlNk572CFSz+TDXrxIGqQXTB9HN2HhxTTBkYre7wPJ7VJYuPJ+uhauxEE4xn+qLvN7L9s+wVZHl9bO4BUgq3bf5dK+bad0SP6HbkyJSOe9t0NQ/qeceAzd131BD2hBHOZV/Ok1QaJr5iUtogyvMDTHM2TIkCFDhgwZMmR4DeGlT4ewt3euui20TdVTyLRHaT2qvPQ3zU+hbnCou/6bdPe3I3nL7VtD6wy1OO6SMHyoplDC5AntsWK/TGcTUwUGTHg73UPt+ONQPzg+L238Q2ifMY/unRulVx3NYVh8peHBMgNgQcbgJXoc8+DZZ0tvLOkT+Mlu3Xf+PB7xXNysVpkeYdF7jOgNFsb8Ld3Drv9GKIy0oUWEZVFrN097f7ta9HjhrTP/LfRs/BXdsF7l6gbQ2XDDlaF6vB1XjC6kWZlotRagx45BLHWXQ2mzWqnaJn8ydNl0j35TTg9DzVoJq/buSA01S2/b0w0Z9tyv/G2Z/IlQelRP5ot4iapyIIF66ZZxgYlXkgiZm0XEuvDwVagdRvfBm9aFXEMt3Zqn+iKCiqd72T19ez/C2G+c+8Nwz0bNqx4zYcAeV7YhS0z1WGtWzgljD4n5jffdspS2FlmwAtGNOCTikyTEKfKZ+58/pXvJNb/h1AsA21QB8BdPoiv3hJmn6SjNss+fFHU3bd9Lpp0YX0QiW7g3PKSnTk6a97+hbataesGTWzY9L2GxPna4jhD94TsfCndu0KHtpnk3UiYAbHPJ0Kzeaxp7RFhzWXoqA51gKqzZoCfUnTLv1pAv6oNSNeokOmNaJo45LNxqw+NajWkc0Kk7N6olOH3qnE/HqSrm4pDqhHHD46lzK25+MMy85C66aakz/9wOzcL2OMa+/uCweonyXzdY6xIAb6SlGqVuvCP/Pe/XCo+T5qglGPdKxlQhJ3Wx1ctNdkrZakmny14tt+pcdfemsOgqtSJuePBpkbnqBPYshlYCLvt8uTr84htqzRx3LMpXOjx1V4yweEqE97btanluOFO3aASg+m6p43C7ea8d3E+PFhZM4Ele8IchcTot/CRsTwuOf156nR1dbPVlxbfI/AEzTn0T9RvAbV2yCTf+Kf/4ogE6PVDvwZ9Pz2t56NkwcR5GLEJo3dolL6t/8yrpwbQttUwffciw8PB33k83o3KeUK/RhduJ3JJ7MXn8kZR/XE0GgkUrdVpCenoCJjYCyD8PY8zrG8J9X5+iP0QgST1iccOC7qKVesK/m1pAXAa58AWzPDev/Ln8VT/70xKsqZa415yTyAPR2Y/2bVrHTJx9U2jZtIVueKjIe3Pn5ePxrfPH0z3jjNfzmp7eg3yI6Rakpz44H67DCTMZXim8bI1gVFpbZp5P566VN8hvraSwctjn2g5b891Qbqihe9eq1by2zzg/lLbqB44FxoAhmWS4Db9VOwYtODfU/v/tfQmYlcWZbp1zuhuwd3C9c8OixtE42jTeTBKNAmrc7hjBZWYyN0A3JCbxmQmLmGSuaDeN89yJSgM6k+dOJkA3ZjJOomx3shCFBqJJZh6VxUxujEaW6BiN0BsNDX36nPu931J/nabjjREIS71Q/X+n/vqrvvpq/2pr1CUUNtdGBW/fAln20NWAJQviTyqd1Z3LBCp0FtV0lXRiRqx/3JUob+DfpnhcZ6/rmi+dSFxUkQhICyUZs5Pp8YeYLqhMGeI+v3e/635gIdM95B+DeDH2IZ8RK7/GdH7kmcSqTm3xe6n0bJ0wW2ngB1dvcJ3TZVkJwq1cLmGUTPoY+w+EnRvjh3lMIuXp3hUr3Z7ps5jmAhrW8gQ5vL/Q7kQFolGsMuJOEVMiXznNgppsne6G3Krbvs7UkPFXUEeLSWrE0YGwPGrTkccOxvPHZn/brd8qHTVr+aXS1fxHqWlXqx5+nae64bhoJ8XyjuQ2BuSV/HLuVazHJZz/F1Sm+bxWgg444Q67poEM/bIOVP11F7rmuz7MdFWZXGgA+EGDRQjgT+T9mmd3u+l/u4npvT299Mo4ocZMC1GqKIlH0yelkZxXP86v58W1yYNlXWuccGHDzm/8hdIkB2u0yL/5/6RTtct/TFEUTxAs0h/oV7kNL02TH1OYPq0cF8MwybFr1Gnl+Y/9O9kn/MuD6h6V4cSas9yGRdKRRr/+/Z+Uqdgdb3RSeBKOnEQg3/o6kmQ/6kxZAtX6pWvclTXS2ePmXvnkU2AMaiXpKrLbuPUtXTsNe+ryaHhYpGL1+YQavapXO+oAR8cPHDM0SOll+oOfWete+ZUskcOSD1vTbGu2cVHSw38lCo1Zky8BIx7KHlv5QZLFmXkWzHiozS3TpRFsa/mB6z0rm+baufvqxvFzzq21lM5ij9OBzAWfpKJy2v1Gtzv3E99gOl+kYefQZZP3yGvW0cZJJTbYe/iuD7rhZcOYBiy5LT9gQGBpiTKw+hm5En/6Q5tIdnbNNP6K50XqQRYpoW1Dw5Ra16BxQSwtZTkITW+/bNDyGQGl0pbvhXLEJ0YDbdte4+c1c6VTjnY0GYzAA3OddkvvGc9U/Q3SAQQszoCRIZ8kBQpT3iCtmrR8NFDn28IxPyQaEocjd22y5I3c+s8U8LrqmVf4Ofcr6Ixj30GP5wfr4f214/2UD2hQAow5o9T94vE/Z9oXNdRtml9l/by8QP1RKBuVqdU3wbuIY4OkdEREREREREREREScInjPmmA/SifT3ym7WTsm/Jmemetc2ew6V7GwgelsZ5ffbHVgzff5iVFesjO/mCxEgwRtiZ3fm64uc9XLmpkeesu1XhOX0+UEnfVfdH1bZBofkfEjSTI2LYvNACW6BGPEalmS4SpFc8Igx72bf8Rke91sl9FlBrjRrkSHblkdzbnqCjeiWTavFdfdSuHpWAKDPx19Y3Sb3fRDpt+mOKd2iH8yLUggfobhnFlC5eJ7XapSpnD5aw2GhepH9Rrp9k7XPucBJg+2rHRDoPUlVLR82WVwugZAo1DvBY0ww5EnAPn4UXjnPtdhG+oee5JGuGKPEzwNNo3H350k4ybOI6rxweDe8hQS0UoEbr0DKhpmuXIygkINxkAtFcP7dXRhRffquf/HbdRpf1uawNoH1Rrhiuqnm29mekLtf/F5I8RgLMNdYk/l0jYKUhm1mYnZX/mRe+QJnTK2fIKlE8oHplvthADgfefITNDMWy9yt1w5hukxZ4odAtvbfYDJZ7fucc2rtjG9cdtrXB8wKM38aRSIo8of1/ACY86udi98VcpVVXmR2/GmaKzP+8Q3KT3FDbQuRXz2LsXK8gDxOfUm0WQt+tzlrBkGNrz4n+72v5a6qv0ANkUxyX75NNcnWJx8pSyHapl7lSsvl2UJm7a97m6b9zTTe7tJjkVSx1nBFH+En0lXjnYrG6RMY/Zq1TM7mLy9YQPFUb7jZFftut+whdpSN9fiXOEx58hs1+TLR7uKCuFDzjiVCOBMXQAzO1fXnMM0MNE2xpFkbSVZP+VzWwwzXjXBT6m2GmBO1K1o98XvhhXPuQWtkoZASjdOmvYUaTav7oNMN04TrSaAMlW4NEZgZQ3+8xXNhI79OXfen8ssTXtPX8IzCKs7Oa/Kt5aNRgwb4q66TOJdO2Y4uZEXfMKJauWx/KR1ncj/tV/JbGWoNcYNe1kNo5hkRKEzjfOLZ94upwtNunwU/dblU5pv2/cfpDwh5fWRJ7e7Nl3KBJ9TqsmW2ShxL3+lTv6v55zG9COfu8I9/6rOoJIsbBYHy/4sjuMvlQ2uOHFkl5aD1nUv+zyADa18kAgBpz2MPEfyybTrLnTduiGw8ual/EQd6Zc7EY9YIgOYHVB3w7nufVqWvYYc0tdky1GetfIjLYkwOm/qZa5pBTbEYRkGZl0K0+poaIKtLsCs0Z6e/UyvffYNt/NNWfpgVUUOm6aNH/oOs6FMgzfdJLtywXi39dVupm12iE+e0rjyudwpWV4xb1qyYV6gAWn8Io49juByCDLasBx68SWX3yHTKUMmXeMOrJZGpLt+ruvvsOkxyeFcGDwHlDnTUrjQ6JXUyI7eqlVLg7W2znU1SYd4X8Pf8RMVdJ92LjFlYRUauih2CkLl7Dtd6cJ5TCfroCh728kPOOJtsXSO8XUiFEwoit9DRuGYKOoUrX7UFddczLSEpQ0+VQj96l9P06PuwKJlTCN7G39WZZQvut+Vfl5Pf6AkwPXLADeIVgKJtoqgp1WOhdo/awGFIRVaVcuDbui0P2Wa10RqwwhofctiRvUs0EqMPM3vlEPk9952pzu0RaYT866XKkYpjGhccaAdw/NGf95jdjluEDR2DKvcqKOBNV5AZsLl/Dxj/T8n8Q5kDJtA4vRbvrP8lTSXRxcT5/yr27RV0hNrIQFM1dlOeKwib9Od5OPHnjMoV0kHI4hTkP+kIdD4UfS0+PL07bjPPMn0zl9ZQwB34h+OFLKjxLAswhoGIDmxQjxDGbAjuNDJzucOX/uLrKj9BKKpZOrUelrLFzr7Ey+VHftcjtTxuf/jm9TACX+cVuaHPCjAYrIVP3gtZr/kjVRa7Qw6EMDxSNnw5gSA+LGTReCfdVoBuchEoX74NY8UKe1TuIdnXuFmT9YlWgFmPLjJLfu+lNMU1bPJsgyVF/llsuVpW/WbnWllgFMU0FkGfDJQQjZOkU4F8sbEu7Fmmaw1HRKIHPgoMAKW15gfygn/lfM9xGZ+y3OuUdcH43srV3L5B4Hqy8a6y5i8f2qtT2NBKC97CiHrXjV+xOfaH+5kevL9bWQRpJflJWpTbC237Tnhul9liLS0PIVwbRlBmuqHD1wgR1P2dMngDHncH4kVyAif+/Skzy0fg+7XPJQhyQBZyl9+bXlRicso7XJ91K/SFoL4zPRLWtlyG4SxXgcfm7e87uavkKO7eDCup7EYD0BDvZza0Dillpe6ABNnU/ryBS306McxihI2+JygR+XJ2nhxM13XpC9f93N2LwjzVzAYJFgd6EHpYQMudDWs3PE+GM2L/RvupE6wLD9YsHxLQZ4GJDnE7sgthxC/pT4RGSAvDbaExGy4XtBBJwbNU26U/sDyL0ygsGQ5o32Hk4csT6Uobeyilmwb9k1pGlF4Jg8TS8SxR5LSEREREREREREREacI3nMnGLuxYXi4hBEcGZzZCw0wzN5Jn+NTI2D6O00TI6NvGIyYsNOZdzvTSAsaTRhoOEe8sI5NZuQfuP4tL7F5u/ZP3P7GJWwwHcVTUjz+LGaDURY0cfiXqqpwI1b9I5thzfdiSMYGZzTC9G74d7en9kY2PYv/kUZjGJ0WqbYAo3bRQA2beAWbqq1r2OAiDYy+WZvAG0YwCs+4g2vWufaxN7PpWSTTSADkU1I1gk3Vhm+xYS0wgiEjo3EkBbTOECWeade3e7drn/BnbLrq7maD+J3R9jibYSQjDFx58KojegDTnvgJIyNMyIUMnJA5uOZp99ZlN7Dp2/ITGo2SBMlk0iUOyi0YaNAxUmdDacSnBIRalhMdeZx6a/kukR3kVHzJB9icvvKrbADkCc4XJAMVIxn6Cy0bDLQIZAcjqQcXxwiUv7B0AwZn0PI5tPlDrOmCKQJvFF82iK+ZgEWZfrY8qIb88fkLv/EJxEX2sILBBreV869jU1VewgZaImjLRGMG/arMKuACBpwWYCcGsFaFDLRmojmj1CD/WVFI/BelMmygAQQvMDjX2K5NByyPzpsyls2EmrNhyQZhMrNkpl9/gS8TiFsKWlsyuX6qDzBNT/kfsmH5QE44D5ZnpSQcQHiArKnOSSd+JIB+SEy6HxowemKJQqaYw+RwmR/ylw19Aj9zfa6ichib+mvPFa8Y4IUeZB6+6yNu7JgRbKAFNvkiRWGgdjK5QJvFsz1kMKNj1xhn8xQnfk/Gf0mGeOK6jIKCVg+GtXAqMDmVQpjNwE/47W0gZ3CKuQTEHOESy2R4Spi+hynKUU1N37H2FWlKBt9a8QHtQXExewSkD+KFXJERt0gXpK9zt1wxms3Sez7Mcef4U9jQAMNABhZHBA+DPAZ/YEzzKIAUBNnUIXd6WTGbJx+4jg2Wlvh0hzzJHYxpLQH2n37D4CxopBdMltIchssUuYHBJSM435jPOKaC6/Mg8iXJSJYbQML9rmHqWN44CcNXbpOcYETufWxQeUOzDMNtKwqs5j0YVspSmDCIt+UH1B24bEQuHAHwXc7dT2UKprKUyibHC/kO/oJ3uNN0UEOv2fjf5K/JgtNc8xdmbiwt0LZguSKMnVt+tIHlIzBSn1DYZFBvGk9WziEDnyb0F/KDufiCM93iu8azgVwtvvYdNlsb8kWoD3E1PbkhmZmPqLfl7HIyElTE7wFIufeEDGVoGE5zJConLKU1VRIw5bd8jJ6YGoShipLeS+UgzVeeGgkcXgaTrqhwVS1LxOiJC0D3giXuzXEfY3NoK3XaKJfCIKvBMNBBI4NKvWTcB9iMoM5m0aTr2XAl1NHFpmvyZ9m0X3O769/5FhuZYqPKjXMpIiO5sqJhjhu+4XE2uGmNb1sje5R/mFRHr+sgv2D2Tvq0y+3axQaVNapi/CupudhVtX2dzdAJH2KDTid7QAbys4KGkPfNX8xmz9iPu4Ob/o1NprKaTXUbxWnCh9lws0MfwMg0jZYkFGqUN5ig09Y5+wE27bfe6fId3WLIvpg8gME0pe+wwA8UamQRH8jJAzRE1sjw+lVtGHDJSPWmf2ZDPToxFHVuuMigsrSOF6RjDTPWekOWMFKsYI4NkEbYQQ6DEgCDhs3KZhZlLk1lhUxYYSNeAdP00/Jgkhf5DxmUXT5Ojww71/KGbDH2/dQ5I7N+4c1sqktxgYN4DH+s4cAJAxiwwuA78w/TxTxlTP+tw4ZG2eoIDHTJIRvenO15TrmZt13CZn7dZWwwgLbXMsBhZ+4v77iI1yPDME/EAEwqM4QNdvcbEIZ1ZsPODXplNngXP9DBSRp23TjOwOy0dVIgJ7xjf9Hgw4pMEckUBmum59XVsKkqG+r55xRA+GSqabDRtvhmNh//6Cjq69CAggym1mGKOEOTAMlwA6y9FNS1VhdjiQxST1KQ3JJBZxHra9nQZwac5GD1LOUuspE8Y2kVOGW3qMFg6ANLKkrHEvqJ8GXpiOUrkyFiiCUtto7SwsDHvi5mvySfwL0YkQ8MW6t93Q0X8UkFMPDByixkIDHFFwLtgrORNJawOSaabqwCwfdkLj13OJsND/93qhKGsOELN9QPyQMSnpzmoHHJ0GCUfsJgcAWDMPKUGWA4GdDPxSv4gbizkVSCmXPbH7FpqPtvnB7c9lGwWD5ky+iwbhsG7OAoNT5ODe6YF3AiNXsOeUT5YMcaQfBvacv80VuY0WeVs3n0s1eoPcWJ3CdKAZRVkSE63Bgw8aDJBnqETH8xG5R8DpMMD0KQV8ggpc2eIkfPow/rO3C5JJnAQK4DEXb0Ud5uvmIkm80Lb+TTRWCQ5j7e5haSsrzdD4WLvAF8WeG/xWx4eR5MxDGHpUtERERERERERETEKQMaiL3HoZd9jdE0jQoBHlCZtzQ67V0um7rap99N78RNEWsCaESWyrjisXK+YtXSB12mVnbV9m35meuYMYfpLJ/8IO4xhvJBqp305YUeVneHK18sJzdkcFGEOu791++5jqlfYto2w8Ev1hYRMIYzP4qqhrtK1UTL6Qti78OlePaulauEO+q/mFwXjdGwuaKR9jA9uaG8pZl4kXMjeSRN4DFnEhHX1yYnU3TN/ht3cJucSwo3RaNGMV21Ri4GKb70Yg6HQYLGPwbbqfz5ryDV0el+fetnmc63/ZifGOsHQZ/wMJnyFJsfzaucyc60fNBomezCUT82Vub1dI7hm75OMr6E6eNeOJqIE+eudRu3ymUM0ErwE7zbZqCitGt7SE6HwGUMRxtbX253n364jennXn6LeJHNa9C0Q7sKgD1cEc40M0vsQu3CGiq8hwZR7HkW0VdTaVdZXsJU82c/5OpvlItqrIxKug9O4zICABcS2Fm2qkijeghaOPkB7VlStxTCL8MgpzLVjG/5QaDSr3yKX+IW7swNooT6g2n+69z0G89zS++ZKD9gaW75r4Rh3zDo/eJvycU4C3RD0d79os0VQEMt38lSK2OQ4mhlQQOHTrdRr73FprdrsXGKIJuFJC2QmWyT38RBNk8JzyoL8s/qpAUtW11T63NM5x00opJunh1y3TRlLFP31f1xIhC8t7hQ+/C7YMsre9ynH9zI9PO/6KT2RvyzK65TGar9NQhMiVt6Q2ttV3AjLSfWyAkLG/RcZNQfP3lZ2o+pD29y2yh/C8g/TSOcJevZD/KB1T2Slhoe/bMNgwjPTnmoKs275s9NYPqTugGLFccquwUk16YWaSfSrs/bQ/amWbeTNxqmjXMb9Vp1nCSj2ZxQ2JZOGCtxfbr5RvLD0l4e4Lf1e3KGbv2Dm5N8Ts6MxrKTJJ9L/FjLrOUb9bR5h/e8pISAs3oX8HXJzt2/YnvintdFIRfCnbidV1dL8aG8orA8j/Jrvqu3LnP1MnKgMqdIUykUOqj7uTzmZMMia6V5CZSFRnYU+nCcaU64b+plbubtsiEe770v9CMz8R+EtCJBgrF9s5CJzGRQ+q3XzfAE1vwbrYT3M+KY4T13gpOPMX0jSZgkrUEy1oHlq6hjKx1RrPkDhk26yVUskw5nurrC9TQuZrq7aZHvvCBryHpfCiWdo8wloWLiD0DBr1yOSzLQCb7Nh55r73Jd0+VItv2rv0vZWTK7TFvQ9+S/VUBoNIrGXcp02dKH/CUa4akL/TvlxIvOWQvcwbVy4gVKHIoXgBWPfVrDVDbOdKX3y6Ue4N7DBEaFor+9k8l9C/7O7V8kJ1OgwNiRUumxF7rhbf/CdJFe8AF2vHRRsLT0WMXBIDd92+SIuj1X3+FS2knHBBAD8VEZFvB2gsIaXd75rnJIOhpoZJikHxikiGy5QtQGJzXqLDd89XKmS2r+kCsnwCqusPI+nmD57po533FtW+R0CDvAHcXadumjnNgFDHbZwdGE5Cw5EWJB60/ckiekse7ogdSl3COdko6dypnYtQaalzXoBQVhQzr1+vO4MQLOPYsGuUEaCYFaSNwGbV1B+qGDNLlByi8uRDDYcWNZY4vAnXH1G52QkeeUMr3ygWvd6h/IJQdNrbJLX6AfUy8TB+oDmO60I6VkqZFw8/lbpY5ZdNdHfCdGux4C1H++g4TlChovzo/i99vdUpf9/artrvW70kmRUzDkPXbhYyEAgDWPWd8704af3DVoZ2n8H51NnaRvM12IfupESkdgvF7C8dRi5CcNA3HWdAN8R+2x513TcrkEwXeKAkDe9+nRaPPqxvm4o0VSLwLi3cNYal33M7dkpdSHL/58Dz9Rz1o7kMoV+84Pd4g8r/3u2pr3MbVu0U38FLlrGlMA87WT/+jKn7q9+2RgJRA36KDawM7WHqcwGDQadZDmEyypmnKTKIGaptS40WeXM83LtQjokNkSg6bWbf4CFgwmcZQXA8LT0x8ap8oAo2Fqrdu09U2mcSMg9sMA6CzbSRfoGFrdwHWFDnosnwAmTwwmv/AVUdqs3/JriSMB+TOrbSwoIYgv5R91EpZpMMgqpwuQc+vvpLhIGfqblheIJ5GHz+/Em3UokV/skpAwzzHsd1r5uXop8SERRDuQ1AtUftStdMaFxsDQOvGjzpbjRutuuMDNnCxKuopy7DuyQBK50Fcufa3sAbLLe7Dcx8uWrPL90n/Jt9WTa/EDy7GsjjKFgLN0jDhm0GSKiIiIiIiIiIiIOHVwxDTBPEI2zQ6PbmTohvfJaMy53hbRbLoOGTUPnTXNZfVija4Zc13vCzLNZxpaBg2X/PW0FEbORp7njebniCf+tyupkRE0RvEHVsmVzPvIv1y7HH6doxFtMkUjfmPzkPlVOu0OV9E8n2lsjtIBGqO7Wc4A7H3g7/nZ174niBO0yeI6VVHhqlWrXTL5BrJgkkfAXlupdodWfd913y2XXuR37FZdDXjKu0yNaIjOaPumS1WJ5smSibUBfpQNLY+SImjG/sXL/AUYKVdCfkocDTLde/LAZAD9GEb8Qgsw/Y4NEAabboQMiy+RPDNi0+OyAQ6gz00DjKldQEb/QX48TmB5YsW6l91OvcbY1N7QFvopcYpH3XUypWqXKBxVWIIQoOnQUuce++7/dWt/JLMpG7e97tr3iVbYa+0RH73TNUNZ/KpamZ79+EdHukmXn8c0LiLwCMJJMjRCC9LK3BRk+MRNC/EEPLLqJb9cYiBq3i9nxc6cfAlrhoCwTNv5w/NXPO9W6RW4nT0HKCoSBnJfZRk2Czp3O8Xlrltlxqn2fPG3MG+F/GNJiNBaxTBQ5/ifJjtOZcnbL76y1z31E5FzdzeWCIkQkI+tDsROfH7S74mXigZw9NllrvV7LzENe5s1YU1kWjRZo/QyBFyM4LmgRPazLcy/ANrHjXptNeq1hA9xk3NFbqIuz7kSp3oE8U7wu87CkB8qG7QJtrRmt17j/MIv9roXyQB5PsdaNZgkaOMT6yVGnyFpNFWXJAzkxbIXlph9Y52c4/zED3e5Z3R5UjuuQVaZ20xDf4Zyjmr+sARl8kdlydvNl49xY86265bhVr7zsxyABrh5+5tuwzbJayIh4Z/TV7WRE/S8bFyQY5fGYElDomHNu6ZWWU6DzyaME633+oU3+YjabFOqn3IPCiUDYUmbsuOtPrd288tMd/RgtsIkIsDFNv7EB1GJMom81a9tOjTVm7f/mulNL7wW8KdPPJTGcq7xnFfIO9iJNRz775yeSz5/xX8Q/8Kz5WUA8fZ9AWRczSfVpRl3lS5/qT3/dH5iFoo3ABIQNWWDgw1j2rhCZgRwcgqAsmFaY4SHbZbA/dOw1E7LFcqsb4+UnzCtI44JosQjIiIiIiIiIiJOObz3jXEeNJLRERXGNDbal5Ga2POIyEZr+r5n8QrXM1uvVSZTpCMmnNGIY9UAaJltDRxGxSVXf5jp4U/IGa7pynKX65L1te3Tv+QOrvoO0wjXRnxY/2SbcsJRYXnz/+Rn6ewZBSO73Ku/5OeeGfe47Ga5/jhlGmT6B98ADLqHqua2vGWhy9TI+iGsHzRgcJjfJf51zRLt7/7V3yH7hB9bQzV0ym2uqkVuxGOYuBQyqlRLjpvwlO3ocN1zFjDdu/xJeiduWIujo/O0ruuT1dsSXoGW4QSFaR+wxsqve/ZI4ieaYtE+DJ10kytf/rdMZ6qqSJSaYDTqt6QL89yAZDi+kGQDzh+AlLPfF/9Y+yshIuRAtMSM8oR1eUw5t0vX5e54s8eNrzmL6aSeAP9IC4FoQTWy8DhRQTJCt6Fg+LtAM+gF5iF8Adte6aBf8rv2/OH0V/2AbJUv5A2NVhKe+U/Y03PIrz+95MLT3YjTdHMgBy1+m6aLy7PWU1gzHNYd5rnEy3ikek3JZMIM5dn4hI/6Ifnry3ggnDC/hwlkJEpBolmj/0qanFiWmtekzCS8hXwa8q6P7FUGCpREayfgn3mXIvl42QT54N0AXiVfIoyEF4MPryCIxG1h9rI4wV7ey7sgrgFpPyD7LS/LDEP3Pqlzr6o9m+Ir9RAfueiFTh5qPuC8FNJAyCd9YxpKtEWo+xh4qN+256FAGJxxxL+N295Irsmm93XXS9u1/Asf5SegnNFr5CPVlpNJ7AkFPxRmB6i9sGFCAjReQIEfA+INeD+sZiGwjJQmFKydVmCdNSC5UgJhWYUzzQFCtg2D5ecCh2F9EsQjrIttNpJLZpie6j6r8RAJRxxLHLnlEESE5TCoVz3YSu2t4sEFGp23yOkFhzY/Q+8lg2CqpEQ9xFmh9kFp41+5ivvk1AhD75qnXVf9LKZxpTD2iRrsykk+A1bDxHnEwIg1/+CKxsvVuALJ7AcWtbh9C2SjXbYdDbT5p4WBIysRKb3lRnday5eZLqLOVAJyq272LW5x+5vEv/4OuaccZ1fabmLEcNjU25mqam3W4iKTJiqu34h+PjmDOtf1c93B7f/BNDoYtnkQsCJsnUXeCa/Tcb6BPAkgU676QyXHHSaNNxrWysbPM11632yyt/REIy5y4CziBSZE2GE7njBYPgkrbF/pH2vuKdiEnz76Y50f8Kb5jRx4Tk3OZAo5HSxvFnaQkoZGnkhHS1b2LPRwkM0nOK8CsE2EBrHF53BhjX/CP4qX1ScadGFYPPiUcMDjwE79QHg/AO+UuuJaR7CMwsbTMFjYBCsHsrQnkbl35ytoTOQnTe8AbwaBphXx4qMU+kswloAC/8IXAL30VuRt0i9JeJYNgUl6/dZgj4VX+JW0TYld+H4wmvNSgT2B/PV+ET3ohkZ8o2kFNrwMlPBxBuhHkDUScP6RFxgYATwwSXwjKuEt7HAVxmUAD/SjvUeWIl5z97epgy7KIywhaP3itUxOueG8AveMMB+x/xIGltUkeTt0IygIO/gOJc53Peh7X2bpcx+kPrn8BL6EpF+uwXRh2EgfU3qgLBb4ZwWOedDUC/z1fPo2mkh6n/iRpI/8VXfmbeCW7TSCkqcMqMvkg0SGhXGIOPqIEo+IiIiIiIiIiDjlcASWQwRDOAUPfAJf5cxJckHDo3AULQS+l2+7mprdvgY5Ig2bzWzzRqaqzJUvf5DpYZOuwwp8pt+un8vP3Orv0XhPPBStRsJTEU8Tymi6pEY2pFRu/id+FpWXa/hypFhXnRynhlvpbGSWYx7UPzu6JZd2ZU2zmS67dya51Y1nNNrM65KJvm0/dft041tf2w89RzZyxZFvtikP2snSBolLwjsoGjeqDGTESo80jWJ1dHrwBz92e2/5NNN5lonyx8IVN9gEZ2NgPyXDslVa3Z3ISLQBac0FIl9G6pBzI2Xjz/DWZlcyXpbSAD4LkjF5IA0tLyXbDo9XGUneDrUqoUY0xGEaraOIQu1doLmlf3zFOkHeKi8FCSGk1RMGW36EOiSZ4gzKplVjKINCKURGvDFFX0B7Z9z55Rn0z0+j0nvvB8dFmOFNasoXP9SRaZvEXRAn8wTWXtVFz7xqXtWvUOuH+gPLAQRJfk7Sj/gny4yqTUNNUhicyaVA8wQH/oegIK2gHbYDhAm2KQ/fDPiMvEI8LGwvTfUjce2bF+LvMD/wSuUSvkN+MZlDsoHv7wpJTIIlNCHMQUHgZMLfXmOuT84DSVp4jS/slC7QvlP+y/ncrh7DK6tvQlnx34RPayOtLEge0PDwW3njsDUNBroB4E/H/oNMr/zBbvfAY88zvfONLoqWuH3fOaVuxzc+wXSI0A+/mQwxsRew9ywHSxVCPpkimhLc0rUwm6CMSplgN/ZF4tngCD0JAwoBe0KYIogHQgFEu+4jkKS38glnasMIy6HVsSIbJtVXvAtCDOINv8K6zH9ngZgHEccMR3BNcAD46AuM/AQ4fZMSIxiQ6Id0en8fdXBx3SswYtXXXHq0HNLeu+Yp16md1XxnOz9x3m+Rk/WuUhlJBYMOMdaiAWXT/tRVtCRXMQMIuqfxEaY751Pn2zcAVMi1MMgUu1ZilbIzvYI6U0M/LlNH8l4i0d/Z4w4skZMkuhub6aV2xFjEEhdfGMjOTpIYWn+HL1p8HmIoImXJCgtgBRFVzsFFcr5t54LFLs1LNyQkPjOXUEwySM5Tlnjg0mpbe20dvpMCJNukcy8YNutTrrLhbqZTFaX+7EYsFiio/EzOJDzfpoeiCeR/3MD4A28hbbA4kd2xZt8GXOH6+98Kej6pLEHR9OEyIXm+oP6gSKE5Awo6GEFjHcrFBkvww04AkbIJUOdZvRgoK19FUv4KGyuf1zTD4FUScpK/ZIe6lDf+fkAAsPINI8ktp51ktO8+OHakv5DPB/LKr7TeA58aNsN7ok8gsAtfWx8g6Jvx+6Tx1ziBF63LQm8Z5mEIcp/sshc+ReaWDknHl6E7/JOlNO8OwkKY3kIOCoq0XT8MuRn7uKwBV3gzzX8lruGg2+c/4t+7oThZm4CAwzyTQPzgjpSmq+/8ASwXTUP/PUIzfvooTBvow7fDy5tlF7zfvEVOq5g499v0rbjFaRXl5eLH5oU3u0veb8v5wsGXAhb+h8qVEA62B+2Aw07LLERismDa+zNwsKfuTS4kQ3s/EJ4lQrLuVmQQhs0Ow7B9gIfzDCT+JjJnu9APX1hQejUcBfz3WYD/SlwL5ZWEqU4jfg8oTLmIiIiIiIiIiIiIUwBH8JxgIBnt2Mgm9JxHXzby9/1v+w2QnX4gU5b6rqPH7Z10J5O9m54NxrriB9+A47ULSZjYqGZXKA+ddrvnSa5hJm9nzHWHtvyMaX/DDZDK+JFifyrrhoyVa3Srly3kZ3rsRf49OMxvkuuI366/x+V27mQa0682MsWmG9tAYVrl6mVfdsPq72CaYUzD3SB0MqpEiCo7emfSS3V1us5ZTUzvb1lJTnRUrFdCAnldtgHe/Cib/54syLmiiVcwVb3wXn7yNdyhpsXyXz5N8hBaZDDYeNCkO9i74weInaWjZhf9/fvkPwg7ZErpUBOUaFoKtS5e45bPuayq8nArY4LEvUHqGKGFVD4ovcNlFIVyGgjjXXizsi5lUHkie/PD5y849Jon8KYkeHxHzSb5GWqsFPy9Vc+hKpOs7Gei/YLGMZCFvsfXCf/h7IfEI5Qf5AwNvND8YHBa2W/PBrn18Q60j2S8zAMZ8fdBFAyht+GSpEGcvjtweAkfSXwFnH4+PEhP4s1RKqgXBOFmzEKmhZT0VtkhrCAtCutu4oTeeU07h3cYqQj5B8KNkvxTkARFVpxj9ZeCPMZJEMDVc9Y6W2J3Ve2ZbsldUl9+4PwR3hv+OoiXoDAtbebiMHl4hMwJXcjZAHn50AcBhyeQfD+Yf4C14eJX+B7fF+ThgE7I38BH+J2FzYVCfC9Ib7EqBAcupNDiB1VI9Jn6URBGxLHE0VkOcYSB649xAQTQ/Sg92+Xu9iTfgJKCjYxfPFqOWapc/TVXUiN3fbMfTUuY7losVxRL91SnX/mvTkOyj3KQ/9DJN7hKXbaQ0quL0dj0dQkPPTP/l9vfKheAyLUMUhjSlKuxHleQ9tceV7V9nZ8lY3FRgxZaXG2qTv+/FcI7QQXSt3u366j7a6azGzeTtcjGOhB9FDe7jARrnq1yBv9ZtcedBVnjwxoFsrNqxSpBAE2I/60VA4BGxqbn7H3yFb5LAD9QLQKQRbIET1zxaRba2EolHDRgo0cyWd08z5VMup7ppFLJkktJV1lqohXQ7yrjiIiIiOMVqBu1Yk3q15x79Q05lejZbb90F18g7eO4c3H8X0TEqY3YE4iIiIiIiIiIiDjlcEJogjGStamT/o4Od7C5hekDj63kZ9+uX/LGBKBowgdd5WrRGmcqSl1244+Y7pz+RXdw1w6mTWvs98ERsMUB2+uEzrphsz7DdPnCe5PzK9X9gRVPuH0zZelBX2e716pClMnGt+RUhnzVUFfd9i2mRQMsbk1dmUxRAuE00buDRYe127q5pn/Xa25fo2jAu1u/yU9sIcyqDMJlIPg+4T9HtPKlsoW21q66LCY70ZXLN3ZFbwFSGYknSP5bCAnPuEaYQmc0NQQqW3qmNWzKtJTOVzJd1vCXbsj4jzCNQMw3H17iPVuatnngRFpERETECQ9Ubzpz95tP94izYRERhhOiE8zl2rik0uw7Vtph6139FHWE5R718pmf4qUPQPf8xW6/ntaAAm9T67YDPZUvdri0AkAnLlUtu2PLFt3nSqdNZprX9u76T6Y7psmpFL2bfkD2QedMO1boICa7c9OuWG+Pq2z5MtGyLCMUd9LhBB10It9pfdFvBfg1SAXXJXLpWvakyy2XTvmB7T9F4ExDxtZJlFMvjNfEL1s6wasLfec/RzST/E1yCgW+FzfJijJy4932ezkCiYtwZ72gZNQfuKLJstShYtYMl9Jjz5h1dYQlFybTwcDh+fdJuBEREREnA6AmsBbIV55h24J6z9vrMyLiFEbsCURERERERERERJxyOEGWQwDvpClNpv+xAzq39SWmu5csc9mN/8Z0dufrNACWHdrQVQLFqYzrU61wZvQod/qqrwo99g/pr4TR07jEdTXJBR5ORQUtac7TGaLFD2w861c+S8Ze6qo3ySa4THkVORQ3yVIHeureLtmsK9+FmtF3i2TgT9QgGlF/aQkHrPIiuexf/RTThzY+4w6uWc80zhm2JQP+EgECdLcA9tf7zXAEHzaFa1kKLm25g7ej98mGQXEzEMW1F7niq2SJw2n1t/GzqObiAW5NI43UtDeJ7MyGww1loYwOIp6IiIiIExo4UeWwNgR1ntZ3Wv0x3tMm7IiIkwSxBERERERERERERJxyOHE0wcYljWgDksHniap2GBq+5H2yySy3c7c7tEU0xPnt8ty/caNLVY9gunrpQpeuPo1pnB3c/Sld/7tluyvWcxX7bP0w+ewViRRuZuIfM4kjuIZMUA3mrBnOVZYxDaZUIeqZZqkrzY/gqqaB8fttYSkZajlDTanxwIpYr5mFPldlByuNY3bjcxT3F5nO/fI1fmZf+Lnr2yXnILudr7t+PW4M8bZj2KCHwF8B/dJzUTMadraqzA0dewHT6XNHOTdSjjcru/JDLnXZhUxnKivhYSGIL7Pi81AtsrYYGSArUzLb2mXOF2qHL/zyOIlyRERExEkEVHDvVLlRPaqVZIo3GsuMYETEqQnn/h+fHtImF9ByxQAAAABJRU5ErkJggg==;" vertex="1" parent="1">
          <mxGeometry x="235" y="120" width="85" height="16.04" as="geometry" />
        </mxCell>
        <mxCell id="icxB6pZpVLlcg9UYm4ng-15" value="" style="shape=datastore;whiteSpace=wrap;html=1;" vertex="1" parent="1">
          <mxGeometry x="180" y="230" width="40" height="30" as="geometry" />
        </mxCell>
        <mxCell id="icxB6pZpVLlcg9UYm4ng-16" value="" style="endArrow=classic;html=1;rounded=0;entryX=0.5;entryY=0;entryDx=0;entryDy=0;" edge="1" parent="1" source="icxB6pZpVLlcg9UYm4ng-14" target="icxB6pZpVLlcg9UYm4ng-15">
          <mxGeometry width="50" height="50" relative="1" as="geometry">
            <mxPoint x="210" y="200" as="sourcePoint" />
            <mxPoint x="290" y="150" as="targetPoint" />
            <Array as="points">
              <mxPoint x="278" y="170" />
              <mxPoint x="200" y="170" />
            </Array>
          </mxGeometry>
        </mxCell>
        <mxCell id="icxB6pZpVLlcg9UYm4ng-18" value="Crawling Module" style="shape=process;whiteSpace=wrap;html=1;backgroundOutline=1;fillColor=#fff2cc;strokeColor=#d6b656;fontSize=8;" vertex="1" parent="1">
          <mxGeometry x="123" y="176" width="57.12" height="25" as="geometry" />
        </mxCell>
        <mxCell id="icxB6pZpVLlcg9UYm4ng-19" value="DB Connect" style="text;html=1;strokeColor=none;fillColor=none;align=center;verticalAlign=middle;whiteSpace=wrap;rounded=0;fontSize=8;" vertex="1" parent="1">
          <mxGeometry x="210" y="167.5" width="60" height="30" as="geometry" />
        </mxCell>
        <mxCell id="icxB6pZpVLlcg9UYm4ng-21" value="" style="shape=image;verticalLabelPosition=bottom;labelBackgroundColor=default;verticalAlign=top;aspect=fixed;imageAspect=0;image=data:image/png,iVBORw0KGgoAAAANSUhEUgAAATgAAAChCAMAAABkv1NnAAAAw1BMVEX///8AYYrkjgDkjADjiQAAXogAV4QAW4YAWITjhwAAVILookT//fjjigAAVYK9zdiMqb0sdZlxnLTnnkP01a5PhaPwxI345M778N+2zNjnmyjqq1uqwM7mmTBrlK711rNEfp/hgQDl7vIqbZL89erO3ubb5uzz+Prf6e5/pLpajKjss2ruu3767N7wwpH///yZtsf338MATX7yzJ4QaI+bu8zqqVjtt3TllBj448mqw9EARnrnmi366dbxxpvssWXgeACRaoHrAAAOlUlEQVR4nO1d6ULqMBZuKWnTsDMg4kWgbBXkKrIoMnqd93+qSdI2SVdarAq23y/FRMrHSc6aE0n6FZj16vXd1Pzpx7g0jIZI1TSI0HA1+ulnuSSYsiZbAFBdzH76cS4HQyDLGtQA5U5D7Zy6eJghTFdzNx8jS/DAuplvdnGwgjLqkh/u5ppKxU4D3Z9+qEtAHwua83NPtqhD8598ogsBJk7jvx1klTCntvPlegx4qVan4u9U6DS4bQzbi+bh7sce7NyBlQNoiy+MGpAqCRkATVOr2/4ht+4C0QAymrpe6VdlDqCpqHH4oWc7a0yxyG3dL+0AQkiFULOtO6CC3c883FljgdXDwv2SaY5q3d5q3m8gS8/KamMaPDvDMPF+Vl2F/HG0si1jgPq5pvUAL1Z5HS5Q075KqdNgbhh7sMPMgQh5GjUtqavm5p0HeJtz2yRejBaICp2aC50bW2yThG1zFqZjat6h/jc90YVghj0tdMRLsHwKOM7jTiJ2VRkMXa+MfPvZXYM4sqCaL1cRQ80OL1k4rNWq31+oI5AHTzwYqTJoCL8voLz2EzSlcXY1UpFkDXXo9lmxD7v2u/fmkCxXbZzbJQwmlDVRZZqqDIPWZJMYJmCbh0wY2kBWRUFaQRhooewoc1oeqXOwgrLLvjW1dbDl0bWM4Zw5GzPkiZLMFyEjp1TmQL5abRD3Qfw9XAFYzMm5hrCA9apaizd0Sk3hbc4cxd3arVejQGVOG37l41wQsOkG4o6lGgI2v/JxLgc7T6owEivCHMpzEQQjrFfjy1CTxJlQnoogWIDISLAHQ40YJbmCwKhVZdiLPdoEpEIsd/gJtgCM44+mqrWab3OSUPQVD3Nizqm574UBfWn9SGADxh3GyyyIpx+dtXHhjopcggm/F9hhVROkY1aUudzdpx5BIh90LOea1UIbJGKOalYUMzbwq2Fqybz3BUl8JbBhfi9mIJEIjdRc5GxMVTk42xCMOfZZPcnsjOIukeNF17a8zq1gWsFfTVIgMie7Yp7dlyRSO51k/Ixmvb7qaS4HJNuVTH6I45VXzkkH7OgnK+Xa5eqBoKkl8vMxTGoEZ75uTk5kjFBQ9ZD1Ws1Z9Whtpg93RJ+gjAfRezDpSpVo9bWs1b/gaS4IC+2ERUddffgFT3NBGIPEW5xEYyrJt8ZfBROcZJIRkTthif8ijNBphgU1grN8PHNaPS0SnnmRq6mydpJdQUQuy0cgujBJFYQ4sZptkTuobuKGsdftlkSOsytyXfdSra9j2xjU1c9u8gEvVciFrIbiRz1MWvaVWZGrYXOEEUcSMfGNE+LqZzffNUNCVWabuKCxSw1HmU6xmojbsVZMHMZWsk0tyyU4QpijTk/ix3dB7zItckPAjuc37G43sef2syxyc9YXzVStJkvxXVCa1VczGpfDhpytSKckrjscgwT+QJ2YJLCdydWKpcbe5HqQ7HeYyARxJqsXU1VeZTCOTrqN0h/IosXLdJtE5GZrqxcTRPPMVRtiQbM0Iyngqs6I95ogtjtt2F1KNbTI2OER02nFRwJF5BzmNtGxEWna1BDtn5a53rh4idKTRrIdJzqEnM4Px3QuVzXaAixTtTh2Jw2Sn7dED5skKOmONe3T7rhwm6X1WseKtW2OkOOo1tZHelYFwjw0aJ46S2bdGMgaIFucXWDYVE/zpLqAKOZGdvQr9QBoNyD7Mw8TF+LYaCKsWTIUpJvSJkoydHL65hYk1A8OaqSpUIZ0xGyLIER8YxslLppzYJKefXCYHU+iVl+JCvFOOzmfcMDqVZOzZdIJuAMn68fRsJrltnOjbUTr1iPoQS1bdokLZiN2cw3/3LaaJRXhRX94+lzSny67RTmrT3RoaWpZLrA+JC0enHXrzXZjjLHNdh+rQ4KmD6PVkHTp1wAFjZYMv+zBzh5xZW7UayMI2LUQQINIa++y47b6MYslczvnQgN6lYbWWDR7+SV9cdC3A+gq2s5rOWPxQQtJ5G29m+XFeRJIwY4Ms2t/nAwT5d0gT0PX6kCay1xizKvUdIs0X2a1w+6QSN3Ourte95d/G31kXbAU8jFHu7ZaVSFUq6gdM+5y11QRxDPILbppt08od55am81VFFr+We9Pg1YABk+vE/9g/t/fo59ljqwLlgJvHm2K9nG8m0lWSGMzIFqkqLA7yxtD1/ViJPQP15zHp+WtHg6j8Ly5dr/LrfMGRsBX4EINWBcsBdw8at3UxwCHxz+d9T0waKn1vt7s9YpSOArlXphz/aIcmaQoRf3WxdB/nPH6MeKkEb3GIOCum7kqu6EeDbwckGdKSn2I3/d6DNY8xC1jUV1Q9P0rn5SAOLa84NgtHl7ejjd4NQOmpLHPDWLSJhI32esx5xQU44q9VSLiyNVUtI4EisTMvNJzvI/EXPNNSeO44qsRlwJOXLkQl2vK0oPzXsmIk6QppQ6IxQA1v/gcCXOaft5kmEIaQ+BAqRQjNnu83TvK4U9FpFMJmFVUBGp1R4cmJQ6bEX1CncAcJ27Mt6zIXW7FlAlosBmfJ67F1pyi3yw3T50o/LXmdIR1qujKn4fWwIPW5r7AdwClZL9ZcuLINXyqJmxjnLhhnYmSGmUI8yXdnoP0iCuxj1d5ijvnXhBSpfUYMmrAZVm3zZJTiKN7HWBniBlxoGGy7S6q8LPLRqEp2+0+T9wj+3TFh+Ojbey5LBUCzFwHEzZO31ivnEYcseqgUw0gEEd7b1g/RxT2NAAf1EyPuEnFKxXHUeYrVY+U0idnYOXFeuFU4iSzvbaPj4jETZkwhWf7+RjYS5W4IuMgQnbcuObbYiFsnVpwNITyx/r9ZOLwFm8zJxInSNMwbN6Ce2fSGRF3Gz3yJj3ipKl1oZCLOGH/CrFI7th94MQCySRx2B4jCsJFnCQzNRni6zOq6FnGAOJGDFGa2Zwy2K9cEHGSScx9N3E7ZpwEd7bi3ha19QKI2yIb/40qiuquqxaQc7DvkoijcBPHvYJgX4Abv3QtBxA3dGQ28p6nrvN/WK3fhRMn+qFBo3kUjtaIfg1xg7jPfk7EjdhaDPLbD3wl070pReLKzKdkftFRnBNxTv46+JwwM1dk648pEie4XPoy5rOfFXEzwaPyjuXGry2OaRL3xKNKxf3V67ULk0mQgXtWxPFPrvmuimwL3hZFmsRJ99yBCogPGZXScuBRG+dFXI2ZuN5jY3e+IECqxEl/IoO5ilLR9ZIrBHJexNHWTB42LDR9Yad0iZOujGPxXEUvbPj4MyOOq07NNZJHnVigM2XipOtnvXiEO0V/Ywv2zIjjkUroskjqzPhld4GnTRzm4upG1ytKFHtK0QmAnxtxjCG3RcLDIkxrpE8cxt/Wy/O+ohsCdF3MASoVW+bOjTjTY+Za8Bq/BF9CnI0yx+OkM1gqzLUoVOxczbkRx/kAgkXCcjlCrO4rifNhyZVusUxfOTviuN3BLZJaUHQ4gLjGlxEnLXl03drlzo44buny+yR8xi/B9xI3YTzpHfrC+RHHfSvn9nTuialCrfv3EleunD1x/OM7lw31mU4VG6kHESd/HXHK+RPXrbo/mGD8iicPz5C4wZLVDC55njEl4gYvpdLSTkQGE8f9Lqtaghu/rpB6AHHjHyZOujcqNorFjvNiKsQ9KUbx7UY39lQ1hRDHYuRWqJcbv64kThBxX7jHxVuqV0IRipOmToO4B+OWMjYoGCRGHUIcTz6Q0reeO9XA8M3ERSiHQpmP2wjM2bzsP0/ck/Fc/vfv4V+rXL4hxQYhxPHkA9nUgoxfgu8lzmeOTHjsU+8IAwc8ymKVxLGZiu1z/HEGVOJGm6V94XFilF4+dGUyMZ7DiRutmZCJITo3G1HmiBZ1OuAk4l64xNllXjwY4E5UvPIYi06qRe6dmRW7KPPK8d8UpSzFwquxwV/UE/m2NtKLMQkljlfgwB4zfr1dmQOI42myqIrqz7lcimKHM5+55190FaK/C5VdH8Ku52TQOsLuGC8b+c+4tojrGC28bJ/CieNG8JbbcJ7MVwBxQmksOIQm82t+4spRmHQe9oKT71SytoSYcWUv1uSX33i5XYHPZDnbGy6rxfvB38kk4s3pt7Q0ynjF7/e3xk1ZesfkhRLH3XUOzTMkqHakyWtjVXW86AeCO3AOcX+NyIMNYoBTYR//USwBVop6pbC3cXMjjOfkMrEUUkP4/0UerDDoNnmFV+fEeBgYJALdwXo1nLiar6zaV28YWHQzFM5NAKAFgps3jLgE1eM8Y+0tuFY4gmYqfFkuY7+fVejYMl7pUl2SgrKN8R5BnJBFdejxLr3gaqW+v5A9FMmJU1wWxOZomkKYWRHPHy3jHg6oWIrZuKfEPZKs760SrlUlcZez4D9FF1Lm1QXuwzopEqfob39dj/BUKR6fZc0sudXAoHgsvyESJ30Yr+X/YVkf/O+9RVZvBHGek0fQ3ysxtD6uN65C/xb5WeIURd/7CkvKSz2O7Cj7jnfm40Mhzqkcm7iyUy77eGUQ26eGrJ4aQAsoeagLZ92QLz+NiYP2ZH9t02zVllFVVWEgND9xhhKNiq4X7l+9b0Mw2ZRogsfFgTWnyMWxuAmY+rp8I4qhEvXGzrGSyd54Hrx3WrdGidh+tcbQRgAx0myBEFJVFa2HQY5A3Zk7DLR2R9NatxcIHpxnxL2VovB8vxy8h9f5TgbL570i6sLCTenjZXm14dIYUpJSfh1cvdw/h7/1LWP8QSGZo31ML22GP/007YYbh1M8h5Pwroim8Gdx3enEron/EvS+jTjhkENBL0XXpl8Avk/iiBPBfNzKbUzP9GzB41TfcCfRY4l7pvvYdbLnCXZa4nuuCv8Q4gM/u0d9Ej2ewvietpPYTWDWRaBJcxGoLVh87+hp7LTwcPPmYH+ezNXbRzBm3cW+baVeBPqOMxEK0eE66QbZ34lmLBfV4S1LVyUcQQLi1HHaPXIuGXGJA6qcoMlnBhCHONJzsp3ZxuEhiEFco7+6/J6T/wdjoVLoGFp5+AAAAABJRU5ErkJggg==;" vertex="1" parent="1">
          <mxGeometry x="230" y="218.00000000000003" width="52" height="26.83" as="geometry" />
        </mxCell>
        <mxCell id="icxB6pZpVLlcg9UYm4ng-22" value="Ready to Preprocessing" style="text;html=1;strokeColor=none;fillColor=none;align=center;verticalAlign=middle;whiteSpace=wrap;rounded=0;fontSize=8;" vertex="1" parent="1">
          <mxGeometry x="218" y="236" width="130" height="30" as="geometry" />
        </mxCell>
        <mxCell id="icxB6pZpVLlcg9UYm4ng-24" value="" style="rounded=1;whiteSpace=wrap;html=1;shadow=0;fontSize=8;arcSize=5;" vertex="1" parent="1">
          <mxGeometry x="90" y="290" width="260" height="220" as="geometry" />
        </mxCell>
        <mxCell id="icxB6pZpVLlcg9UYm4ng-23" value="Raw DB" style="shape=parallelogram;html=1;strokeWidth=2;perimeter=parallelogramPerimeter;whiteSpace=wrap;rounded=1;arcSize=12;size=0.23;fontSize=8;" vertex="1" parent="1">
          <mxGeometry x="102.88" y="310" width="90" height="20" as="geometry" />
        </mxCell>
        <mxCell id="icxB6pZpVLlcg9UYm4ng-25" value="" style="endArrow=classic;html=1;rounded=0;fontSize=8;entryX=0.5;entryY=0;entryDx=0;entryDy=0;exitX=0.5;exitY=1;exitDx=0;exitDy=0;" edge="1" parent="1" source="icxB6pZpVLlcg9UYm4ng-15" target="icxB6pZpVLlcg9UYm4ng-23">
          <mxGeometry width="50" height="50" relative="1" as="geometry">
            <mxPoint x="290" y="350" as="sourcePoint" />
            <mxPoint x="340" y="300" as="targetPoint" />
            <Array as="points">
              <mxPoint x="200" y="300" />
              <mxPoint x="148" y="300" />
            </Array>
          </mxGeometry>
        </mxCell>
        <mxCell id="icxB6pZpVLlcg9UYm4ng-26" value="" style="endArrow=classic;html=1;rounded=0;fontSize=8;exitX=0.5;exitY=1;exitDx=0;exitDy=0;entryX=0.15;entryY=0.05;entryDx=0;entryDy=0;entryPerimeter=0;" edge="1" parent="1" source="icxB6pZpVLlcg9UYm4ng-12" target="icxB6pZpVLlcg9UYm4ng-15">
          <mxGeometry width="50" height="50" relative="1" as="geometry">
            <mxPoint x="290" y="240" as="sourcePoint" />
            <mxPoint x="340" y="190" as="targetPoint" />
            <Array as="points">
              <mxPoint x="160" y="170" />
              <mxPoint x="186" y="170" />
            </Array>
          </mxGeometry>
        </mxCell>
        <mxCell id="icxB6pZpVLlcg9UYm4ng-27" value="Clensing" style="rounded=0;whiteSpace=wrap;html=1;shadow=0;fontSize=8;" vertex="1" parent="1">
          <mxGeometry x="110" y="350" width="77.12" height="20" as="geometry" />
        </mxCell>
        <mxCell id="icxB6pZpVLlcg9UYm4ng-28" value="Preprocessing" style="text;html=1;strokeColor=none;fillColor=none;align=center;verticalAlign=middle;whiteSpace=wrap;rounded=0;shadow=0;fontSize=8;" vertex="1" parent="1">
          <mxGeometry x="90" y="270" width="70" height="20" as="geometry" />
        </mxCell>
        <mxCell id="icxB6pZpVLlcg9UYm4ng-29" value="" style="endArrow=classic;html=1;rounded=0;fontSize=8;exitX=0.5;exitY=1;exitDx=0;exitDy=0;" edge="1" parent="1" source="icxB6pZpVLlcg9UYm4ng-23" target="icxB6pZpVLlcg9UYm4ng-27">
          <mxGeometry width="50" height="50" relative="1" as="geometry">
            <mxPoint x="250" y="410" as="sourcePoint" />
            <mxPoint x="300" y="360" as="targetPoint" />
          </mxGeometry>
        </mxCell>
        <mxCell id="icxB6pZpVLlcg9UYm4ng-30" value="" style="endArrow=classic;html=1;rounded=0;fontSize=8;exitX=0.5;exitY=1;exitDx=0;exitDy=0;entryX=0.5;entryY=0;entryDx=0;entryDy=0;" edge="1" parent="1" source="icxB6pZpVLlcg9UYm4ng-27" target="icxB6pZpVLlcg9UYm4ng-31">
          <mxGeometry width="50" height="50" relative="1" as="geometry">
            <mxPoint x="250" y="410" as="sourcePoint" />
            <mxPoint x="300" y="360" as="targetPoint" />
          </mxGeometry>
        </mxCell>
        <mxCell id="icxB6pZpVLlcg9UYm4ng-31" value="Outlier Elimination" style="rounded=0;whiteSpace=wrap;html=1;shadow=0;fontSize=8;" vertex="1" parent="1">
          <mxGeometry x="110" y="390" width="77.12" height="30" as="geometry" />
        </mxCell>
        <mxCell id="icxB6pZpVLlcg9UYm4ng-32" value="" style="shape=image;verticalLabelPosition=bottom;labelBackgroundColor=default;verticalAlign=top;aspect=fixed;imageAspect=0;image=data:image/png,iVBORw0KGgoAAAANSUhEUgAAAYMAAACCCAMAAACTkVQxAAABIFBMVEX///9kZGRdXV1hYWFbW1v8/PzExMTIyMhYWFja2to3c6U3dan29vaurq7v7+//1UU3eK7T09P/3E3/zj3/00M2b563t7eIiIj/2UmBgYH/3k+SkpJTU1M3e7P/yjnr6+s2aZRtbW3/5VeioqKXl5fi4uL/xjRzc3Po7/V7e3vPz8//99X/6ly3ytv/8sy7u7v/+OX/8Kv/4pL//PNsncgbbKiHobxckLz/53MmZ5r/0lP/7oT/243/0mb/wyTY4+6VuddPh7mGq80hc7Jtl76nwNbH2OhAgbaWsMn/8LX/3lX/2Dn/5Yb/78CdtMgkYI7/zylwk7L/5p7/3H9Kd53/0Vx2nLz/7XT/674UX5b/9Nv/5nz/zUr/6Zj/5KX/vw29VWLWAAAMOUlEQVR4nO2d+UObyB7AgYGEWIjikRjjJqVADm2MrVqb7npXe9ju+ur2ve6zx///XzxmBpK50EQN4SXz+cE1FIZxPsz5HbKKIpFIJBKJRCKRSCQSiUQikUgkEolEIpFIJEq9PukczDZGMVd17UnnYqapVzUd6FPtoNU66hyf7u6fQHZ3T487Ry1r0pkiKQBVVbUpdtA53v/t7OzsN8wCZG9v4e15hiwU1Gl2YBy/i0t/oGBh4Qnk3Jh07mKm28EpZYBS8OTJ6aRzFzPVDrCCuCFaoBXM9bIiYZodHL2DRX96cX4iUhDSmXQOMek5MBAp3KhPJ6wAZxfw1rtCBXNzaeaGwNgIyI/pOSh5nu95QRnd1UtjWHIcPv276LfWGW0gUtC7SCEXLFbgtfUceSQ9B5ZVKBmWoxbC3+12Gg5OQwfH+N7vRArmeucp5IIhqGgamJSD8PZdRdmwPUUp2uU0HOwO6sGeSMFK730KuWDIm2GBT9hB164ruUJqDs6O4G+nQgUrvVcp5IIhr2fAgZNXfCU1B2FrdHTxlu+NoYKZdVBSfCeXpoOFhTOBgpWVmXbQbRaVSmoOhGNSrGAWHRTDIVHgKFaoopvGRGGXW56gFcyig7TZ32NgFEgH48dieU8ruK+DB832H8PBUOsNaa9KDMn7HqXgHg6KTtf2fN+zuwXRPzulO1PYQA7y5CHOQbFYTCw+yymFGfC9buGWEi6GU4DwJN/uBsknjY/WxfHufgIntALoYPM15tOH7btStgKvCYAWTnPRD7dEjyuKBc/V2txVJQ2WuYN+z8GA2QDg4hQIB0Y977sA0rYFxWcUfHhzgH94wgK2HM+NToI/m7nUo1XnJ0lL1UxfEDt4toZYvPz44faUN8qqRpYh0NpUGTThn13hLivB596MHGh3ONiouibANwE6H+W3fECmoKn8spvRbQM6m3ol3R0brZNB0ObWERHnYG1x8fLTLSk7bROggjc11wXo9/BDlzhjHR4ROCDrgQ7iEkYwDgqRgPgck5lFOaqGS9U0TVzOmktXBasLdADPCDPpol9ROlTLN2aOTriYmXBeEPH0KVEPFhdXVxNrgmGr8E/TwhbCCer1uuPjcgLO4BzzbgcblXK5jUq5XYZUCQfA9tA9gOo2XTUqvTKZUgEdBWq1GwQFu4J1uUQO4HoggCn4eZjJeq4c5dJNr1cweAW31YKnyEGsYDVkPqFPMKo6qvr2oCMOcFm6g3o+hANIUp+Mnn4N+HmYYr2LLZhd8ix4yOx3ExsVjS5fy4aVg+qnnCaWUElthHQ8qoK/YgdYwerlS3HCXVS+PtWuFtGfB6r9A0M6SBqbokfcr8eF5bgo+Wb/nhY6oBIXGmV8SlzkKGVQLZJJ1/FVpnAUNwZaoyqIHSxGClbn34grgg3L0WQqtIPKbb1/9MEO9Ap5hw2TrgiextSLUAuSoHvRRzTq0jeYXILBoCsFjs9u7QrmWAORg8WBgvnLz8KUsQP2WfJxRYif3Ic6cHP0hTj5eLDrMLUOEeBRUpQx7IDtf33RhWNjf/jeOHbwp7JJKphfFg+NxA4K6ElV49bigQ64RxU/wWr0qYI+Ocw5qHLEPbfYQU7nOvfx0Xo3woAoctBRPl8SCuaXl4VJix0YbWqP4mM7sHCHg5v3QJx64KL2EJ8jdlA3U3RwMWotCB20lB+rlIKrHVHSYgfRUxi3Fo/tAD/6kQOUiuaxp+BzNLxCInaA5y0pOTg/G6E3xgr+pSiXlILlK2GHkOAAT3tBNC55dAfVgQPc+wpGNyhnUZ+UAQenQyoYOPj7KGyK+gagguWlL6KkExzgkRGIjo/TQR21OVqRPUVx0F3b6B8m78DYH7EWwN5g+yOjYOlalHaCgwA5iBcsxukAdwcuv/pmraPHAA1qJ+/AejfMmJRoiP7uKMoNq2DpQNQhJDgoumThjdMBmlwDQQDYQlnAWcuAg6TeuEfwV5+n71uK8umSVbD0dSQHgOgpx+kgGmCKHIB+chlwsCdSsLKy/77DcxQKULZfk70xVrAknCnf6gD4eJY2SQeoOcyOA0pBb/8iKYKx/eWjQEFtFAdKUzqgc7Mn6I3hftLNzy94Pn28XBUoGM2BlZl6gAo+Aw4EtSDsdTd/f/78WcRaHK6Bhb8oUjCag/Taog3z/6JPNk64ne2hghfPIc8YC4v0+gShoDZan5zWuCiAF6misamZpbGp8fYJo+Dfoyqo1WqNUcam0fwgBQd4jmbyczQ8ccBRhsk7UE5pBStz4Sx4VAW1xh+ipG+fJ0d/9fjXKtjYgNKP22RlraKzR83Meq+Unf+MqqB2+FOUdIKDrjZoCMbrAOdAsGaHlg2jSzPg4IKZmnWUraEULBEKGof/FSWdsHbtUyv8eOWGa7Ifx4Gjiw2j+hHF8jLgoHVCrU/0jpQXz0ZV0KgJkxY7wGOS/sPJRNhjHseBgmxzMRwUPwBN/CEDDpS31Cpdr6X8PrKCQ2F3kOAAvdWkavFhPGHjmuxHcoC2inGNEQ4rRIllwcF5j1ylgw6ejaig0dgUpiyM6Udxrn48GRcZ11x0GQdotZku8GEcFFHQTme2dAFy2pAFBy36HRvSwbAKDsQp4x6xRG/S8ZhdI+gBj5YNBhRRSRIOcGzRJ88ZxoGSwzFJKg8e5TcLDuht1aSDvoKBAaGCX9/ECSMHql4hm+MSbokGGxasNt5PRZal1cXbEwkHCpxcE/uGlCEdKFVuaGRr1HWZcNAiowUDB2vDKjj8mpAwdqAC0M4VUcW3gkq0gY2YNqFFfqjFseDTaliB7UZbR0kHZPgRM5yDYhkVeX+nWR1VRK3aH4llwoHS6RHvd8QORO2QUEHjcCshXewgLE+gq2WvZHsVvJ0WqFT77GEJwGz7tl3yKzrae8g6wP2IVs73C284B2GXgCSodr5QKOQ8FzVExDpeNhwonbke6yBJAWkAK2gI52cQ/Oj6TfQfDb58gJ/uCtNNl/q7qtFbCqjEKkx/ED7AzXhzdZl7/4CEdaAUffQsoDcL0CZ4AMjN7xlxoBy9/ScKmf2DHVAKRDNj+PxDftUSOgOlPy4qeroO4r39QDN9bv1mo//6ABJhAr+A+mDKgVKvrGt4x3DkAJapyTuAO+WpOL7R1YgMANOlRsJoZz2/z30dppKmg7BT6Pz5ChE6WGMU3Lyk+IPgp3hUiumPTY1S1dX18CHX9ab4LZhc1TV1XTd1t10twZJHK5vsuDbwKqpumip2EFRDyjk2KbsMj9MTbyNXbYY3D28A2j4zY3Pg+WV2Gqego/wqR0rcrNENUcJu0rsh5mhGvZCzvVIu4NcwMUY9yHdzQVCPXilDOyL5FU8rgEQds/hrhRKOhunncl2Hz4AxSjJpccP0BfM/thiEq0M8SbHMYXDEDmaFG0ZB3Bv0uwPxSjXPwx3c69Jp4Eas4K5oAc9DHOCtQfe6dBq4uWtakIYDuKzW3xc8e9wsDl7woBRcXR0epuUArunQy0Mzxc1iQszsg6F8+96oJS1VczzEAZyjsQt5M8TNorAvqKH58LfkcAHHAxzgKEtar+Rlj5tVYXccbV85CB0Id7rzPMABaopS+bambPJDuJGrFm1fuQ4dJK4Q0dzfQQEtrN39TSJTy5Z4/8QS2kq3873R+DXuOVoevXrvZvE7bFJi57V4XgArws4fh8nxApZ7Oqh7AC1ec0s4s8TW5bxoanb45svPg8NGozFkNbiXA8OxUQwNCHZmzRSfk/ZPhAYOG0khG47RHFj1IG+XVfw1N1pldsdEEVsfr5Z5BSh2/P221Wqa0RyUVE3HUR6gmfbMrtYR/Dy4WuIjx4cHyREbni6MnA3twIlCmprelgYwO1vX/Zhl1A7VrreE74InYcDo/PqwDuouimQ2fUcaINj88PL66/dQxZuv11++DdsVUxTEcTMBhu3ZXUf+L+d4dnZ2tre3d0Z6/mmGHuXP8HRAIpEkgOLZhoCsfg/ulCEqeoEMyZigy5n75mtLihgzt5Z+golJ53nK4AUUOQQaJp3tKYIz0C/3OobVICU8OgkK6gSMBSnhsWEcUAqCgJLAOJh0zqeHxLYooRbIajAG+EER3yWLOuVJ53uqGHpoKkdF48QYwgN5zqTzO6UYQzPpnE47svQzgxEHVgzyg0QikUgkEolEIpFIJBKJRCKRSCQSiUQikUgkkhH5H+ifDVGuXJYRAAAAAElFTkSuQmCC;clipPath=inset(9.41% 6.33% 13.37% 12%);" vertex="1" parent="1">
          <mxGeometry x="229.61" y="296" width="106.79" height="34" as="geometry" />
        </mxCell>
        <mxCell id="icxB6pZpVLlcg9UYm4ng-33" value="Normalization" style="rounded=0;whiteSpace=wrap;html=1;shadow=0;fontSize=8;" vertex="1" parent="1">
          <mxGeometry x="110.32" y="440" width="77.12" height="30" as="geometry" />
        </mxCell>
        <mxCell id="icxB6pZpVLlcg9UYm4ng-34" value="" style="endArrow=classic;html=1;rounded=0;fontSize=8;exitX=0.5;exitY=1;exitDx=0;exitDy=0;" edge="1" parent="1" source="icxB6pZpVLlcg9UYm4ng-31" target="icxB6pZpVLlcg9UYm4ng-33">
          <mxGeometry width="50" height="50" relative="1" as="geometry">
            <mxPoint x="320" y="400" as="sourcePoint" />
            <mxPoint x="370" y="350" as="targetPoint" />
          </mxGeometry>
        </mxCell>
        <mxCell id="icxB6pZpVLlcg9UYm4ng-35" value="Creating&lt;br&gt;Summarized Data" style="rounded=0;whiteSpace=wrap;html=1;shadow=0;fontSize=8;" vertex="1" parent="1">
          <mxGeometry x="219.94" y="350" width="91.06" height="30" as="geometry" />
        </mxCell>
        <mxCell id="icxB6pZpVLlcg9UYm4ng-36" value="" style="endArrow=classic;html=1;rounded=0;fontSize=8;exitX=0.471;exitY=0.993;exitDx=0;exitDy=0;exitPerimeter=0;entryX=0;entryY=0.5;entryDx=0;entryDy=0;" edge="1" parent="1" source="icxB6pZpVLlcg9UYm4ng-33" target="icxB6pZpVLlcg9UYm4ng-35">
          <mxGeometry width="50" height="50" relative="1" as="geometry">
            <mxPoint x="240" y="440" as="sourcePoint" />
            <mxPoint x="290" y="390" as="targetPoint" />
            <Array as="points">
              <mxPoint x="147" y="480" />
              <mxPoint x="200" y="480" />
              <mxPoint x="200" y="365" />
            </Array>
          </mxGeometry>
        </mxCell>
        <mxCell id="icxB6pZpVLlcg9UYm4ng-37" value="" style="endArrow=classic;html=1;rounded=0;fontSize=8;exitX=0.5;exitY=1;exitDx=0;exitDy=0;" edge="1" parent="1" source="icxB6pZpVLlcg9UYm4ng-35">
          <mxGeometry width="50" height="50" relative="1" as="geometry">
            <mxPoint x="301" y="410" as="sourcePoint" />
            <mxPoint x="265.47" y="399.9999999999999" as="targetPoint" />
          </mxGeometry>
        </mxCell>
        <mxCell id="icxB6pZpVLlcg9UYm4ng-39" value="Integrity Check" style="strokeWidth=1;html=1;shape=mxgraph.flowchart.decision;whiteSpace=wrap;shadow=0;fontSize=8;" vertex="1" parent="1">
          <mxGeometry x="215.47" y="400" width="100" height="40" as="geometry" />
        </mxCell>
        <mxCell id="icxB6pZpVLlcg9UYm4ng-40" value="" style="shape=datastore;whiteSpace=wrap;html=1;" vertex="1" parent="1">
          <mxGeometry x="245.47000000000003" y="470" width="40" height="30" as="geometry" />
        </mxCell>
        <mxCell id="icxB6pZpVLlcg9UYm4ng-41" value="" style="endArrow=classic;html=1;rounded=0;fontSize=8;exitX=0.5;exitY=1;exitDx=0;exitDy=0;exitPerimeter=0;entryX=0.5;entryY=0;entryDx=0;entryDy=0;" edge="1" parent="1" source="icxB6pZpVLlcg9UYm4ng-39" target="icxB6pZpVLlcg9UYm4ng-40">
          <mxGeometry width="50" height="50" relative="1" as="geometry">
            <mxPoint x="281" y="430" as="sourcePoint" />
            <mxPoint x="331" y="380" as="targetPoint" />
          </mxGeometry>
        </mxCell>
        <mxCell id="icxB6pZpVLlcg9UYm4ng-43" value="" style="endArrow=classic;html=1;rounded=0;fontSize=8;exitX=1;exitY=0.5;exitDx=0;exitDy=0;exitPerimeter=0;entryX=1;entryY=0.5;entryDx=0;entryDy=0;" edge="1" parent="1" source="icxB6pZpVLlcg9UYm4ng-39" target="icxB6pZpVLlcg9UYm4ng-35">
          <mxGeometry width="50" height="50" relative="1" as="geometry">
            <mxPoint x="300" y="380" as="sourcePoint" />
            <mxPoint x="350" y="330" as="targetPoint" />
            <Array as="points">
              <mxPoint x="330" y="420" />
              <mxPoint x="330" y="365" />
            </Array>
          </mxGeometry>
        </mxCell>
        <mxCell id="icxB6pZpVLlcg9UYm4ng-44" value="" style="shape=image;verticalLabelPosition=bottom;labelBackgroundColor=default;verticalAlign=top;aspect=fixed;imageAspect=0;image=data:image/png,iVBORw0KGgoAAAANSUhEUgAAATgAAAChCAMAAABkv1NnAAAAw1BMVEX///8AYYrkjgDkjADjiQAAXogAV4QAW4YAWITjhwAAVILookT//fjjigAAVYK9zdiMqb0sdZlxnLTnnkP01a5PhaPwxI345M778N+2zNjnmyjqq1uqwM7mmTBrlK711rNEfp/hgQDl7vIqbZL89erO3ubb5uzz+Prf6e5/pLpajKjss2ruu3767N7wwpH///yZtsf338MATX7yzJ4QaI+bu8zqqVjtt3TllBj448mqw9EARnrnmi366dbxxpvssWXgeACRaoHrAAAOlUlEQVR4nO1d6ULqMBZuKWnTsDMg4kWgbBXkKrIoMnqd93+qSdI2SVdarAq23y/FRMrHSc6aE0n6FZj16vXd1Pzpx7g0jIZI1TSI0HA1+ulnuSSYsiZbAFBdzH76cS4HQyDLGtQA5U5D7Zy6eJghTFdzNx8jS/DAuplvdnGwgjLqkh/u5ppKxU4D3Z9+qEtAHwua83NPtqhD8598ogsBJk7jvx1klTCntvPlegx4qVan4u9U6DS4bQzbi+bh7sce7NyBlQNoiy+MGpAqCRkATVOr2/4ht+4C0QAymrpe6VdlDqCpqHH4oWc7a0yxyG3dL+0AQkiFULOtO6CC3c883FljgdXDwv2SaY5q3d5q3m8gS8/KamMaPDvDMPF+Vl2F/HG0si1jgPq5pvUAL1Z5HS5Q075KqdNgbhh7sMPMgQh5GjUtqavm5p0HeJtz2yRejBaICp2aC50bW2yThG1zFqZjat6h/jc90YVghj0tdMRLsHwKOM7jTiJ2VRkMXa+MfPvZXYM4sqCaL1cRQ80OL1k4rNWq31+oI5AHTzwYqTJoCL8voLz2EzSlcXY1UpFkDXXo9lmxD7v2u/fmkCxXbZzbJQwmlDVRZZqqDIPWZJMYJmCbh0wY2kBWRUFaQRhooewoc1oeqXOwgrLLvjW1dbDl0bWM4Zw5GzPkiZLMFyEjp1TmQL5abRD3Qfw9XAFYzMm5hrCA9apaizd0Sk3hbc4cxd3arVejQGVOG37l41wQsOkG4o6lGgI2v/JxLgc7T6owEivCHMpzEQQjrFfjy1CTxJlQnoogWIDISLAHQ40YJbmCwKhVZdiLPdoEpEIsd/gJtgCM44+mqrWab3OSUPQVD3Nizqm574UBfWn9SGADxh3GyyyIpx+dtXHhjopcggm/F9hhVROkY1aUudzdpx5BIh90LOea1UIbJGKOalYUMzbwq2Fqybz3BUl8JbBhfi9mIJEIjdRc5GxMVTk42xCMOfZZPcnsjOIukeNF17a8zq1gWsFfTVIgMie7Yp7dlyRSO51k/Ixmvb7qaS4HJNuVTH6I45VXzkkH7OgnK+Xa5eqBoKkl8vMxTGoEZ75uTk5kjFBQ9ZD1Ws1Z9Whtpg93RJ+gjAfRezDpSpVo9bWs1b/gaS4IC+2ERUddffgFT3NBGIPEW5xEYyrJt8ZfBROcZJIRkTthif8ijNBphgU1grN8PHNaPS0SnnmRq6mydpJdQUQuy0cgujBJFYQ4sZptkTuobuKGsdftlkSOsytyXfdSra9j2xjU1c9u8gEvVciFrIbiRz1MWvaVWZGrYXOEEUcSMfGNE+LqZzffNUNCVWabuKCxSw1HmU6xmojbsVZMHMZWsk0tyyU4QpijTk/ix3dB7zItckPAjuc37G43sef2syxyc9YXzVStJkvxXVCa1VczGpfDhpytSKckrjscgwT+QJ2YJLCdydWKpcbe5HqQ7HeYyARxJqsXU1VeZTCOTrqN0h/IosXLdJtE5GZrqxcTRPPMVRtiQbM0Iyngqs6I95ogtjtt2F1KNbTI2OER02nFRwJF5BzmNtGxEWna1BDtn5a53rh4idKTRrIdJzqEnM4Px3QuVzXaAixTtTh2Jw2Sn7dED5skKOmONe3T7rhwm6X1WseKtW2OkOOo1tZHelYFwjw0aJ46S2bdGMgaIFucXWDYVE/zpLqAKOZGdvQr9QBoNyD7Mw8TF+LYaCKsWTIUpJvSJkoydHL65hYk1A8OaqSpUIZ0xGyLIER8YxslLppzYJKefXCYHU+iVl+JCvFOOzmfcMDqVZOzZdIJuAMn68fRsJrltnOjbUTr1iPoQS1bdokLZiN2cw3/3LaaJRXhRX94+lzSny67RTmrT3RoaWpZLrA+JC0enHXrzXZjjLHNdh+rQ4KmD6PVkHTp1wAFjZYMv+zBzh5xZW7UayMI2LUQQINIa++y47b6MYslczvnQgN6lYbWWDR7+SV9cdC3A+gq2s5rOWPxQQtJ5G29m+XFeRJIwY4Ms2t/nAwT5d0gT0PX6kCay1xizKvUdIs0X2a1w+6QSN3Ourte95d/G31kXbAU8jFHu7ZaVSFUq6gdM+5y11QRxDPILbppt08od55am81VFFr+We9Pg1YABk+vE/9g/t/fo59ljqwLlgJvHm2K9nG8m0lWSGMzIFqkqLA7yxtD1/ViJPQP15zHp+WtHg6j8Ly5dr/LrfMGRsBX4EINWBcsBdw8at3UxwCHxz+d9T0waKn1vt7s9YpSOArlXphz/aIcmaQoRf3WxdB/nPH6MeKkEb3GIOCum7kqu6EeDbwckGdKSn2I3/d6DNY8xC1jUV1Q9P0rn5SAOLa84NgtHl7ejjd4NQOmpLHPDWLSJhI32esx5xQU44q9VSLiyNVUtI4EisTMvNJzvI/EXPNNSeO44qsRlwJOXLkQl2vK0oPzXsmIk6QppQ6IxQA1v/gcCXOaft5kmEIaQ+BAqRQjNnu83TvK4U9FpFMJmFVUBGp1R4cmJQ6bEX1CncAcJ27Mt6zIXW7FlAlosBmfJ67F1pyi3yw3T50o/LXmdIR1qujKn4fWwIPW5r7AdwClZL9ZcuLINXyqJmxjnLhhnYmSGmUI8yXdnoP0iCuxj1d5ijvnXhBSpfUYMmrAZVm3zZJTiKN7HWBniBlxoGGy7S6q8LPLRqEp2+0+T9wj+3TFh+Ojbey5LBUCzFwHEzZO31ivnEYcseqgUw0gEEd7b1g/RxT2NAAf1EyPuEnFKxXHUeYrVY+U0idnYOXFeuFU4iSzvbaPj4jETZkwhWf7+RjYS5W4IuMgQnbcuObbYiFsnVpwNITyx/r9ZOLwFm8zJxInSNMwbN6Ce2fSGRF3Gz3yJj3ipKl1oZCLOGH/CrFI7th94MQCySRx2B4jCsJFnCQzNRni6zOq6FnGAOJGDFGa2Zwy2K9cEHGSScx9N3E7ZpwEd7bi3ha19QKI2yIb/40qiuquqxaQc7DvkoijcBPHvYJgX4Abv3QtBxA3dGQ28p6nrvN/WK3fhRMn+qFBo3kUjtaIfg1xg7jPfk7EjdhaDPLbD3wl070pReLKzKdkftFRnBNxTv46+JwwM1dk648pEie4XPoy5rOfFXEzwaPyjuXGry2OaRL3xKNKxf3V67ULk0mQgXtWxPFPrvmuimwL3hZFmsRJ99yBCogPGZXScuBRG+dFXI2ZuN5jY3e+IECqxEl/IoO5ilLR9ZIrBHJexNHWTB42LDR9Yad0iZOujGPxXEUvbPj4MyOOq07NNZJHnVigM2XipOtnvXiEO0V/Ywv2zIjjkUroskjqzPhld4GnTRzm4upG1ytKFHtK0QmAnxtxjCG3RcLDIkxrpE8cxt/Wy/O+ohsCdF3MASoVW+bOjTjTY+Za8Bq/BF9CnI0yx+OkM1gqzLUoVOxczbkRx/kAgkXCcjlCrO4rifNhyZVusUxfOTviuN3BLZJaUHQ4gLjGlxEnLXl03drlzo44buny+yR8xi/B9xI3YTzpHfrC+RHHfSvn9nTuialCrfv3EleunD1x/OM7lw31mU4VG6kHESd/HXHK+RPXrbo/mGD8iicPz5C4wZLVDC55njEl4gYvpdLSTkQGE8f9Lqtaghu/rpB6AHHjHyZOujcqNorFjvNiKsQ9KUbx7UY39lQ1hRDHYuRWqJcbv64kThBxX7jHxVuqV0IRipOmToO4B+OWMjYoGCRGHUIcTz6Q0reeO9XA8M3ERSiHQpmP2wjM2bzsP0/ck/Fc/vfv4V+rXL4hxQYhxPHkA9nUgoxfgu8lzmeOTHjsU+8IAwc8ymKVxLGZiu1z/HEGVOJGm6V94XFilF4+dGUyMZ7DiRutmZCJITo3G1HmiBZ1OuAk4l64xNllXjwY4E5UvPIYi06qRe6dmRW7KPPK8d8UpSzFwquxwV/UE/m2NtKLMQkljlfgwB4zfr1dmQOI42myqIrqz7lcimKHM5+55190FaK/C5VdH8Ku52TQOsLuGC8b+c+4tojrGC28bJ/CieNG8JbbcJ7MVwBxQmksOIQm82t+4spRmHQe9oKT71SytoSYcWUv1uSX33i5XYHPZDnbGy6rxfvB38kk4s3pt7Q0ynjF7/e3xk1ZesfkhRLH3XUOzTMkqHakyWtjVXW86AeCO3AOcX+NyIMNYoBTYR//USwBVop6pbC3cXMjjOfkMrEUUkP4/0UerDDoNnmFV+fEeBgYJALdwXo1nLiar6zaV28YWHQzFM5NAKAFgps3jLgE1eM8Y+0tuFY4gmYqfFkuY7+fVejYMl7pUl2SgrKN8R5BnJBFdejxLr3gaqW+v5A9FMmJU1wWxOZomkKYWRHPHy3jHg6oWIrZuKfEPZKs760SrlUlcZez4D9FF1Lm1QXuwzopEqfob39dj/BUKR6fZc0sudXAoHgsvyESJ30Yr+X/YVkf/O+9RVZvBHGek0fQ3ysxtD6uN65C/xb5WeIURd/7CkvKSz2O7Cj7jnfm40Mhzqkcm7iyUy77eGUQ26eGrJ4aQAsoeagLZ92QLz+NiYP2ZH9t02zVllFVVWEgND9xhhKNiq4X7l+9b0Mw2ZRogsfFgTWnyMWxuAmY+rp8I4qhEvXGzrGSyd54Hrx3WrdGidh+tcbQRgAx0myBEFJVFa2HQY5A3Zk7DLR2R9NatxcIHpxnxL2VovB8vxy8h9f5TgbL570i6sLCTenjZXm14dIYUpJSfh1cvdw/h7/1LWP8QSGZo31ML22GP/007YYbh1M8h5Pwroim8Gdx3enEron/EvS+jTjhkENBL0XXpl8Avk/iiBPBfNzKbUzP9GzB41TfcCfRY4l7pvvYdbLnCXZa4nuuCv8Q4gM/u0d9Ej2ewvietpPYTWDWRaBJcxGoLVh87+hp7LTwcPPmYH+ezNXbRzBm3cW+baVeBPqOMxEK0eE66QbZ34lmLBfV4S1LVyUcQQLi1HHaPXIuGXGJA6qcoMlnBhCHONJzsp3ZxuEhiEFco7+6/J6T/wdjoVLoGFp5+AAAAABJRU5ErkJggg==;" vertex="1" parent="1">
          <mxGeometry x="291" y="468" width="32.62" height="16.83" as="geometry" />
        </mxCell>
        <mxCell id="icxB6pZpVLlcg9UYm4ng-45" value="EDA Ready" style="text;html=1;strokeColor=none;fillColor=none;align=center;verticalAlign=middle;whiteSpace=wrap;rounded=0;fontSize=8;" vertex="1" parent="1">
          <mxGeometry x="281" y="483" width="70" height="15" as="geometry" />
        </mxCell>
        <mxCell id="icxB6pZpVLlcg9UYm4ng-47" value="" style="rounded=1;whiteSpace=wrap;html=1;shadow=1;arcSize=5;" vertex="1" parent="1">
          <mxGeometry x="450" y="40" width="280" height="480" as="geometry" />
        </mxCell>
        <mxCell id="icxB6pZpVLlcg9UYm4ng-48" value="Unstructured Data&lt;br&gt;Raw DB Control Area" style="label;whiteSpace=wrap;html=1;image=img/clipart/Gear_128x128.png" vertex="1" parent="1">
          <mxGeometry x="490" y="20" width="200" height="50" as="geometry" />
        </mxCell>
        <mxCell id="icxB6pZpVLlcg9UYm4ng-52" value="FOMC" style="shape=parallelogram;html=1;strokeWidth=2;perimeter=parallelogramPerimeter;whiteSpace=wrap;rounded=1;arcSize=12;size=0.23;fontSize=8;" vertex="1" parent="1">
          <mxGeometry x="470" y="99.47" width="90" height="20" as="geometry" />
        </mxCell>
        <mxCell id="icxB6pZpVLlcg9UYm4ng-53" value="Twitter" style="shape=parallelogram;html=1;strokeWidth=2;perimeter=parallelogramPerimeter;whiteSpace=wrap;rounded=1;arcSize=12;size=0.23;fontSize=8;" vertex="1" parent="1">
          <mxGeometry x="470" y="136.04" width="90" height="20" as="geometry" />
        </mxCell>
        <mxCell id="icxB6pZpVLlcg9UYm4ng-54" value="Reuters" style="shape=parallelogram;html=1;strokeWidth=2;perimeter=parallelogramPerimeter;whiteSpace=wrap;rounded=1;arcSize=12;size=0.23;fontSize=8;" vertex="1" parent="1">
          <mxGeometry x="470" y="172.5" width="90" height="20" as="geometry" />
        </mxCell>
        <mxCell id="icxB6pZpVLlcg9UYm4ng-55" value="Column" style="shape=parallelogram;html=1;strokeWidth=2;perimeter=parallelogramPerimeter;whiteSpace=wrap;rounded=1;arcSize=12;size=0.23;fontSize=8;" vertex="1" parent="1">
          <mxGeometry x="470" y="210" width="90" height="20" as="geometry" />
        </mxCell>
        <mxCell id="icxB6pZpVLlcg9UYm4ng-56" value="Article" style="shape=parallelogram;html=1;strokeWidth=2;perimeter=parallelogramPerimeter;whiteSpace=wrap;rounded=1;arcSize=12;size=0.23;fontSize=8;" vertex="1" parent="1">
          <mxGeometry x="470" y="246" width="90" height="20" as="geometry" />
        </mxCell>
        <mxCell id="icxB6pZpVLlcg9UYm4ng-57" value="Crawling Module" style="shape=process;whiteSpace=wrap;html=1;backgroundOutline=1;fillColor=#fff2cc;strokeColor=#d6b656;fontSize=8;" vertex="1" parent="1">
          <mxGeometry x="610" y="169.7" width="100" height="25" as="geometry" />
        </mxCell>
        <mxCell id="icxB6pZpVLlcg9UYm4ng-58" value="" style="shape=datastore;whiteSpace=wrap;html=1;" vertex="1" parent="1">
          <mxGeometry x="608" y="238.03" width="40" height="30" as="geometry" />
        </mxCell>
        <mxCell id="icxB6pZpVLlcg9UYm4ng-59" value="" style="shape=image;verticalLabelPosition=bottom;labelBackgroundColor=default;verticalAlign=top;aspect=fixed;imageAspect=0;image=data:image/png,iVBORw0KGgoAAAANSUhEUgAAATgAAAChCAMAAABkv1NnAAAAw1BMVEX///8AYYrkjgDkjADjiQAAXogAV4QAW4YAWITjhwAAVILookT//fjjigAAVYK9zdiMqb0sdZlxnLTnnkP01a5PhaPwxI345M778N+2zNjnmyjqq1uqwM7mmTBrlK711rNEfp/hgQDl7vIqbZL89erO3ubb5uzz+Prf6e5/pLpajKjss2ruu3767N7wwpH///yZtsf338MATX7yzJ4QaI+bu8zqqVjtt3TllBj448mqw9EARnrnmi366dbxxpvssWXgeACRaoHrAAAOlUlEQVR4nO1d6ULqMBZuKWnTsDMg4kWgbBXkKrIoMnqd93+qSdI2SVdarAq23y/FRMrHSc6aE0n6FZj16vXd1Pzpx7g0jIZI1TSI0HA1+ulnuSSYsiZbAFBdzH76cS4HQyDLGtQA5U5D7Zy6eJghTFdzNx8jS/DAuplvdnGwgjLqkh/u5ppKxU4D3Z9+qEtAHwua83NPtqhD8598ogsBJk7jvx1klTCntvPlegx4qVan4u9U6DS4bQzbi+bh7sce7NyBlQNoiy+MGpAqCRkATVOr2/4ht+4C0QAymrpe6VdlDqCpqHH4oWc7a0yxyG3dL+0AQkiFULOtO6CC3c883FljgdXDwv2SaY5q3d5q3m8gS8/KamMaPDvDMPF+Vl2F/HG0si1jgPq5pvUAL1Z5HS5Q075KqdNgbhh7sMPMgQh5GjUtqavm5p0HeJtz2yRejBaICp2aC50bW2yThG1zFqZjat6h/jc90YVghj0tdMRLsHwKOM7jTiJ2VRkMXa+MfPvZXYM4sqCaL1cRQ80OL1k4rNWq31+oI5AHTzwYqTJoCL8voLz2EzSlcXY1UpFkDXXo9lmxD7v2u/fmkCxXbZzbJQwmlDVRZZqqDIPWZJMYJmCbh0wY2kBWRUFaQRhooewoc1oeqXOwgrLLvjW1dbDl0bWM4Zw5GzPkiZLMFyEjp1TmQL5abRD3Qfw9XAFYzMm5hrCA9apaizd0Sk3hbc4cxd3arVejQGVOG37l41wQsOkG4o6lGgI2v/JxLgc7T6owEivCHMpzEQQjrFfjy1CTxJlQnoogWIDISLAHQ40YJbmCwKhVZdiLPdoEpEIsd/gJtgCM44+mqrWab3OSUPQVD3Nizqm574UBfWn9SGADxh3GyyyIpx+dtXHhjopcggm/F9hhVROkY1aUudzdpx5BIh90LOea1UIbJGKOalYUMzbwq2Fqybz3BUl8JbBhfi9mIJEIjdRc5GxMVTk42xCMOfZZPcnsjOIukeNF17a8zq1gWsFfTVIgMie7Yp7dlyRSO51k/Ixmvb7qaS4HJNuVTH6I45VXzkkH7OgnK+Xa5eqBoKkl8vMxTGoEZ75uTk5kjFBQ9ZD1Ws1Z9Whtpg93RJ+gjAfRezDpSpVo9bWs1b/gaS4IC+2ERUddffgFT3NBGIPEW5xEYyrJt8ZfBROcZJIRkTthif8ijNBphgU1grN8PHNaPS0SnnmRq6mydpJdQUQuy0cgujBJFYQ4sZptkTuobuKGsdftlkSOsytyXfdSra9j2xjU1c9u8gEvVciFrIbiRz1MWvaVWZGrYXOEEUcSMfGNE+LqZzffNUNCVWabuKCxSw1HmU6xmojbsVZMHMZWsk0tyyU4QpijTk/ix3dB7zItckPAjuc37G43sef2syxyc9YXzVStJkvxXVCa1VczGpfDhpytSKckrjscgwT+QJ2YJLCdydWKpcbe5HqQ7HeYyARxJqsXU1VeZTCOTrqN0h/IosXLdJtE5GZrqxcTRPPMVRtiQbM0Iyngqs6I95ogtjtt2F1KNbTI2OER02nFRwJF5BzmNtGxEWna1BDtn5a53rh4idKTRrIdJzqEnM4Px3QuVzXaAixTtTh2Jw2Sn7dED5skKOmONe3T7rhwm6X1WseKtW2OkOOo1tZHelYFwjw0aJ46S2bdGMgaIFucXWDYVE/zpLqAKOZGdvQr9QBoNyD7Mw8TF+LYaCKsWTIUpJvSJkoydHL65hYk1A8OaqSpUIZ0xGyLIER8YxslLppzYJKefXCYHU+iVl+JCvFOOzmfcMDqVZOzZdIJuAMn68fRsJrltnOjbUTr1iPoQS1bdokLZiN2cw3/3LaaJRXhRX94+lzSny67RTmrT3RoaWpZLrA+JC0enHXrzXZjjLHNdh+rQ4KmD6PVkHTp1wAFjZYMv+zBzh5xZW7UayMI2LUQQINIa++y47b6MYslczvnQgN6lYbWWDR7+SV9cdC3A+gq2s5rOWPxQQtJ5G29m+XFeRJIwY4Ms2t/nAwT5d0gT0PX6kCay1xizKvUdIs0X2a1w+6QSN3Ourte95d/G31kXbAU8jFHu7ZaVSFUq6gdM+5y11QRxDPILbppt08od55am81VFFr+We9Pg1YABk+vE/9g/t/fo59ljqwLlgJvHm2K9nG8m0lWSGMzIFqkqLA7yxtD1/ViJPQP15zHp+WtHg6j8Ly5dr/LrfMGRsBX4EINWBcsBdw8at3UxwCHxz+d9T0waKn1vt7s9YpSOArlXphz/aIcmaQoRf3WxdB/nPH6MeKkEb3GIOCum7kqu6EeDbwckGdKSn2I3/d6DNY8xC1jUV1Q9P0rn5SAOLa84NgtHl7ejjd4NQOmpLHPDWLSJhI32esx5xQU44q9VSLiyNVUtI4EisTMvNJzvI/EXPNNSeO44qsRlwJOXLkQl2vK0oPzXsmIk6QppQ6IxQA1v/gcCXOaft5kmEIaQ+BAqRQjNnu83TvK4U9FpFMJmFVUBGp1R4cmJQ6bEX1CncAcJ27Mt6zIXW7FlAlosBmfJ67F1pyi3yw3T50o/LXmdIR1qujKn4fWwIPW5r7AdwClZL9ZcuLINXyqJmxjnLhhnYmSGmUI8yXdnoP0iCuxj1d5ijvnXhBSpfUYMmrAZVm3zZJTiKN7HWBniBlxoGGy7S6q8LPLRqEp2+0+T9wj+3TFh+Ojbey5LBUCzFwHEzZO31ivnEYcseqgUw0gEEd7b1g/RxT2NAAf1EyPuEnFKxXHUeYrVY+U0idnYOXFeuFU4iSzvbaPj4jETZkwhWf7+RjYS5W4IuMgQnbcuObbYiFsnVpwNITyx/r9ZOLwFm8zJxInSNMwbN6Ce2fSGRF3Gz3yJj3ipKl1oZCLOGH/CrFI7th94MQCySRx2B4jCsJFnCQzNRni6zOq6FnGAOJGDFGa2Zwy2K9cEHGSScx9N3E7ZpwEd7bi3ha19QKI2yIb/40qiuquqxaQc7DvkoijcBPHvYJgX4Abv3QtBxA3dGQ28p6nrvN/WK3fhRMn+qFBo3kUjtaIfg1xg7jPfk7EjdhaDPLbD3wl070pReLKzKdkftFRnBNxTv46+JwwM1dk648pEie4XPoy5rOfFXEzwaPyjuXGry2OaRL3xKNKxf3V67ULk0mQgXtWxPFPrvmuimwL3hZFmsRJ99yBCogPGZXScuBRG+dFXI2ZuN5jY3e+IECqxEl/IoO5ilLR9ZIrBHJexNHWTB42LDR9Yad0iZOujGPxXEUvbPj4MyOOq07NNZJHnVigM2XipOtnvXiEO0V/Ywv2zIjjkUroskjqzPhld4GnTRzm4upG1ytKFHtK0QmAnxtxjCG3RcLDIkxrpE8cxt/Wy/O+ohsCdF3MASoVW+bOjTjTY+Za8Bq/BF9CnI0yx+OkM1gqzLUoVOxczbkRx/kAgkXCcjlCrO4rifNhyZVusUxfOTviuN3BLZJaUHQ4gLjGlxEnLXl03drlzo44buny+yR8xi/B9xI3YTzpHfrC+RHHfSvn9nTuialCrfv3EleunD1x/OM7lw31mU4VG6kHESd/HXHK+RPXrbo/mGD8iicPz5C4wZLVDC55njEl4gYvpdLSTkQGE8f9Lqtaghu/rpB6AHHjHyZOujcqNorFjvNiKsQ9KUbx7UY39lQ1hRDHYuRWqJcbv64kThBxX7jHxVuqV0IRipOmToO4B+OWMjYoGCRGHUIcTz6Q0reeO9XA8M3ERSiHQpmP2wjM2bzsP0/ck/Fc/vfv4V+rXL4hxQYhxPHkA9nUgoxfgu8lzmeOTHjsU+8IAwc8ymKVxLGZiu1z/HEGVOJGm6V94XFilF4+dGUyMZ7DiRutmZCJITo3G1HmiBZ1OuAk4l64xNllXjwY4E5UvPIYi06qRe6dmRW7KPPK8d8UpSzFwquxwV/UE/m2NtKLMQkljlfgwB4zfr1dmQOI42myqIrqz7lcimKHM5+55190FaK/C5VdH8Ku52TQOsLuGC8b+c+4tojrGC28bJ/CieNG8JbbcJ7MVwBxQmksOIQm82t+4spRmHQe9oKT71SytoSYcWUv1uSX33i5XYHPZDnbGy6rxfvB38kk4s3pt7Q0ynjF7/e3xk1ZesfkhRLH3XUOzTMkqHakyWtjVXW86AeCO3AOcX+NyIMNYoBTYR//USwBVop6pbC3cXMjjOfkMrEUUkP4/0UerDDoNnmFV+fEeBgYJALdwXo1nLiar6zaV28YWHQzFM5NAKAFgps3jLgE1eM8Y+0tuFY4gmYqfFkuY7+fVejYMl7pUl2SgrKN8R5BnJBFdejxLr3gaqW+v5A9FMmJU1wWxOZomkKYWRHPHy3jHg6oWIrZuKfEPZKs760SrlUlcZez4D9FF1Lm1QXuwzopEqfob39dj/BUKR6fZc0sudXAoHgsvyESJ30Yr+X/YVkf/O+9RVZvBHGek0fQ3ysxtD6uN65C/xb5WeIURd/7CkvKSz2O7Cj7jnfm40Mhzqkcm7iyUy77eGUQ26eGrJ4aQAsoeagLZ92QLz+NiYP2ZH9t02zVllFVVWEgND9xhhKNiq4X7l+9b0Mw2ZRogsfFgTWnyMWxuAmY+rp8I4qhEvXGzrGSyd54Hrx3WrdGidh+tcbQRgAx0myBEFJVFa2HQY5A3Zk7DLR2R9NatxcIHpxnxL2VovB8vxy8h9f5TgbL570i6sLCTenjZXm14dIYUpJSfh1cvdw/h7/1LWP8QSGZo31ML22GP/007YYbh1M8h5Pwroim8Gdx3enEron/EvS+jTjhkENBL0XXpl8Avk/iiBPBfNzKbUzP9GzB41TfcCfRY4l7pvvYdbLnCXZa4nuuCv8Q4gM/u0d9Ej2ewvietpPYTWDWRaBJcxGoLVh87+hp7LTwcPPmYH+ezNXbRzBm3cW+baVeBPqOMxEK0eE66QbZ34lmLBfV4S1LVyUcQQLi1HHaPXIuGXGJA6qcoMlnBhCHONJzsp3ZxuEhiEFco7+6/J6T/wdjoVLoGFp5+AAAAABJRU5ErkJggg==;" vertex="1" parent="1">
          <mxGeometry x="658" y="216.03000000000003" width="52" height="26.83" as="geometry" />
        </mxCell>
        <mxCell id="icxB6pZpVLlcg9UYm4ng-60" value="Preprocessing&lt;br&gt;Ready" style="text;html=1;strokeColor=none;fillColor=none;align=left;verticalAlign=middle;whiteSpace=wrap;rounded=0;fontSize=8;" vertex="1" parent="1">
          <mxGeometry x="656" y="239.86" width="80" height="30" as="geometry" />
        </mxCell>
        <mxCell id="icxB6pZpVLlcg9UYm4ng-61" value="" style="strokeWidth=2;html=1;shape=mxgraph.flowchart.annotation_2;align=left;labelPosition=right;pointerEvents=1;shadow=0;fontSize=8;rotation=-180;" vertex="1" parent="1">
          <mxGeometry x="560" y="99.47" width="50" height="165.47" as="geometry" />
        </mxCell>
        <mxCell id="icxB6pZpVLlcg9UYm4ng-62" value="" style="endArrow=classic;html=1;rounded=0;fontSize=8;exitX=0.5;exitY=1;exitDx=0;exitDy=0;entryX=0.5;entryY=0;entryDx=0;entryDy=0;" edge="1" parent="1" source="icxB6pZpVLlcg9UYm4ng-57" target="icxB6pZpVLlcg9UYm4ng-58">
          <mxGeometry width="50" height="50" relative="1" as="geometry">
            <mxPoint x="450" y="210" as="sourcePoint" />
            <mxPoint x="500" y="160" as="targetPoint" />
            <Array as="points">
              <mxPoint x="660" y="220" />
              <mxPoint x="628" y="220" />
            </Array>
          </mxGeometry>
        </mxCell>
        <mxCell id="icxB6pZpVLlcg9UYm4ng-63" value="word2vec" style="shape=process;whiteSpace=wrap;html=1;backgroundOutline=1;fillColor=#fff2cc;strokeColor=#d6b656;fontSize=8;" vertex="1" parent="1">
          <mxGeometry x="485" y="315" width="100" height="25" as="geometry" />
        </mxCell>
        <mxCell id="icxB6pZpVLlcg9UYm4ng-64" value="k-means" style="shape=process;whiteSpace=wrap;html=1;backgroundOutline=1;fillColor=#fff2cc;strokeColor=#d6b656;fontSize=8;" vertex="1" parent="1">
          <mxGeometry x="485" y="420" width="100" height="25" as="geometry" />
        </mxCell>
        <mxCell id="icxB6pZpVLlcg9UYm4ng-65" value="doc2vec" style="shape=process;whiteSpace=wrap;html=1;backgroundOutline=1;fillColor=#fff2cc;strokeColor=#d6b656;fontSize=8;" vertex="1" parent="1">
          <mxGeometry x="595" y="315" width="100" height="25" as="geometry" />
        </mxCell>
        <mxCell id="icxB6pZpVLlcg9UYm4ng-66" value="TF-IDF" style="shape=process;whiteSpace=wrap;html=1;backgroundOutline=1;fillColor=#fff2cc;strokeColor=#d6b656;fontSize=8;" vertex="1" parent="1">
          <mxGeometry x="595" y="420" width="100" height="25" as="geometry" />
        </mxCell>
        <mxCell id="icxB6pZpVLlcg9UYm4ng-68" value="" style="strokeWidth=1;html=1;shape=mxgraph.flowchart.annotation_2;align=left;labelPosition=right;pointerEvents=1;shadow=0;fontSize=8;rotation=90;" vertex="1" parent="1">
          <mxGeometry x="578.75" y="252.5" width="22.5" height="102.5" as="geometry" />
        </mxCell>
        <mxCell id="icxB6pZpVLlcg9UYm4ng-69" value="" style="endArrow=none;html=1;rounded=0;fontSize=8;entryX=0.5;entryY=1;entryDx=0;entryDy=0;exitX=0;exitY=0.5;exitDx=0;exitDy=0;exitPerimeter=0;" edge="1" parent="1" source="icxB6pZpVLlcg9UYm4ng-68" target="icxB6pZpVLlcg9UYm4ng-58">
          <mxGeometry width="50" height="50" relative="1" as="geometry">
            <mxPoint x="330" y="400" as="sourcePoint" />
            <mxPoint x="380" y="350" as="targetPoint" />
            <Array as="points">
              <mxPoint x="628" y="292" />
            </Array>
          </mxGeometry>
        </mxCell>
        <mxCell id="icxB6pZpVLlcg9UYm4ng-70" value="" style="shape=datastore;whiteSpace=wrap;html=1;" vertex="1" parent="1">
          <mxGeometry x="569.85" y="472" width="40" height="30" as="geometry" />
        </mxCell>
        <mxCell id="icxB6pZpVLlcg9UYm4ng-71" value="" style="shape=image;verticalLabelPosition=bottom;labelBackgroundColor=default;verticalAlign=top;aspect=fixed;imageAspect=0;image=data:image/png,iVBORw0KGgoAAAANSUhEUgAAATgAAAChCAMAAABkv1NnAAAAw1BMVEX///8AYYrkjgDkjADjiQAAXogAV4QAW4YAWITjhwAAVILookT//fjjigAAVYK9zdiMqb0sdZlxnLTnnkP01a5PhaPwxI345M778N+2zNjnmyjqq1uqwM7mmTBrlK711rNEfp/hgQDl7vIqbZL89erO3ubb5uzz+Prf6e5/pLpajKjss2ruu3767N7wwpH///yZtsf338MATX7yzJ4QaI+bu8zqqVjtt3TllBj448mqw9EARnrnmi366dbxxpvssWXgeACRaoHrAAAOlUlEQVR4nO1d6ULqMBZuKWnTsDMg4kWgbBXkKrIoMnqd93+qSdI2SVdarAq23y/FRMrHSc6aE0n6FZj16vXd1Pzpx7g0jIZI1TSI0HA1+ulnuSSYsiZbAFBdzH76cS4HQyDLGtQA5U5D7Zy6eJghTFdzNx8jS/DAuplvdnGwgjLqkh/u5ppKxU4D3Z9+qEtAHwua83NPtqhD8598ogsBJk7jvx1klTCntvPlegx4qVan4u9U6DS4bQzbi+bh7sce7NyBlQNoiy+MGpAqCRkATVOr2/4ht+4C0QAymrpe6VdlDqCpqHH4oWc7a0yxyG3dL+0AQkiFULOtO6CC3c883FljgdXDwv2SaY5q3d5q3m8gS8/KamMaPDvDMPF+Vl2F/HG0si1jgPq5pvUAL1Z5HS5Q075KqdNgbhh7sMPMgQh5GjUtqavm5p0HeJtz2yRejBaICp2aC50bW2yThG1zFqZjat6h/jc90YVghj0tdMRLsHwKOM7jTiJ2VRkMXa+MfPvZXYM4sqCaL1cRQ80OL1k4rNWq31+oI5AHTzwYqTJoCL8voLz2EzSlcXY1UpFkDXXo9lmxD7v2u/fmkCxXbZzbJQwmlDVRZZqqDIPWZJMYJmCbh0wY2kBWRUFaQRhooewoc1oeqXOwgrLLvjW1dbDl0bWM4Zw5GzPkiZLMFyEjp1TmQL5abRD3Qfw9XAFYzMm5hrCA9apaizd0Sk3hbc4cxd3arVejQGVOG37l41wQsOkG4o6lGgI2v/JxLgc7T6owEivCHMpzEQQjrFfjy1CTxJlQnoogWIDISLAHQ40YJbmCwKhVZdiLPdoEpEIsd/gJtgCM44+mqrWab3OSUPQVD3Nizqm574UBfWn9SGADxh3GyyyIpx+dtXHhjopcggm/F9hhVROkY1aUudzdpx5BIh90LOea1UIbJGKOalYUMzbwq2Fqybz3BUl8JbBhfi9mIJEIjdRc5GxMVTk42xCMOfZZPcnsjOIukeNF17a8zq1gWsFfTVIgMie7Yp7dlyRSO51k/Ixmvb7qaS4HJNuVTH6I45VXzkkH7OgnK+Xa5eqBoKkl8vMxTGoEZ75uTk5kjFBQ9ZD1Ws1Z9Whtpg93RJ+gjAfRezDpSpVo9bWs1b/gaS4IC+2ERUddffgFT3NBGIPEW5xEYyrJt8ZfBROcZJIRkTthif8ijNBphgU1grN8PHNaPS0SnnmRq6mydpJdQUQuy0cgujBJFYQ4sZptkTuobuKGsdftlkSOsytyXfdSra9j2xjU1c9u8gEvVciFrIbiRz1MWvaVWZGrYXOEEUcSMfGNE+LqZzffNUNCVWabuKCxSw1HmU6xmojbsVZMHMZWsk0tyyU4QpijTk/ix3dB7zItckPAjuc37G43sef2syxyc9YXzVStJkvxXVCa1VczGpfDhpytSKckrjscgwT+QJ2YJLCdydWKpcbe5HqQ7HeYyARxJqsXU1VeZTCOTrqN0h/IosXLdJtE5GZrqxcTRPPMVRtiQbM0Iyngqs6I95ogtjtt2F1KNbTI2OER02nFRwJF5BzmNtGxEWna1BDtn5a53rh4idKTRrIdJzqEnM4Px3QuVzXaAixTtTh2Jw2Sn7dED5skKOmONe3T7rhwm6X1WseKtW2OkOOo1tZHelYFwjw0aJ46S2bdGMgaIFucXWDYVE/zpLqAKOZGdvQr9QBoNyD7Mw8TF+LYaCKsWTIUpJvSJkoydHL65hYk1A8OaqSpUIZ0xGyLIER8YxslLppzYJKefXCYHU+iVl+JCvFOOzmfcMDqVZOzZdIJuAMn68fRsJrltnOjbUTr1iPoQS1bdokLZiN2cw3/3LaaJRXhRX94+lzSny67RTmrT3RoaWpZLrA+JC0enHXrzXZjjLHNdh+rQ4KmD6PVkHTp1wAFjZYMv+zBzh5xZW7UayMI2LUQQINIa++y47b6MYslczvnQgN6lYbWWDR7+SV9cdC3A+gq2s5rOWPxQQtJ5G29m+XFeRJIwY4Ms2t/nAwT5d0gT0PX6kCay1xizKvUdIs0X2a1w+6QSN3Ourte95d/G31kXbAU8jFHu7ZaVSFUq6gdM+5y11QRxDPILbppt08od55am81VFFr+We9Pg1YABk+vE/9g/t/fo59ljqwLlgJvHm2K9nG8m0lWSGMzIFqkqLA7yxtD1/ViJPQP15zHp+WtHg6j8Ly5dr/LrfMGRsBX4EINWBcsBdw8at3UxwCHxz+d9T0waKn1vt7s9YpSOArlXphz/aIcmaQoRf3WxdB/nPH6MeKkEb3GIOCum7kqu6EeDbwckGdKSn2I3/d6DNY8xC1jUV1Q9P0rn5SAOLa84NgtHl7ejjd4NQOmpLHPDWLSJhI32esx5xQU44q9VSLiyNVUtI4EisTMvNJzvI/EXPNNSeO44qsRlwJOXLkQl2vK0oPzXsmIk6QppQ6IxQA1v/gcCXOaft5kmEIaQ+BAqRQjNnu83TvK4U9FpFMJmFVUBGp1R4cmJQ6bEX1CncAcJ27Mt6zIXW7FlAlosBmfJ67F1pyi3yw3T50o/LXmdIR1qujKn4fWwIPW5r7AdwClZL9ZcuLINXyqJmxjnLhhnYmSGmUI8yXdnoP0iCuxj1d5ijvnXhBSpfUYMmrAZVm3zZJTiKN7HWBniBlxoGGy7S6q8LPLRqEp2+0+T9wj+3TFh+Ojbey5LBUCzFwHEzZO31ivnEYcseqgUw0gEEd7b1g/RxT2NAAf1EyPuEnFKxXHUeYrVY+U0idnYOXFeuFU4iSzvbaPj4jETZkwhWf7+RjYS5W4IuMgQnbcuObbYiFsnVpwNITyx/r9ZOLwFm8zJxInSNMwbN6Ce2fSGRF3Gz3yJj3ipKl1oZCLOGH/CrFI7th94MQCySRx2B4jCsJFnCQzNRni6zOq6FnGAOJGDFGa2Zwy2K9cEHGSScx9N3E7ZpwEd7bi3ha19QKI2yIb/40qiuquqxaQc7DvkoijcBPHvYJgX4Abv3QtBxA3dGQ28p6nrvN/WK3fhRMn+qFBo3kUjtaIfg1xg7jPfk7EjdhaDPLbD3wl070pReLKzKdkftFRnBNxTv46+JwwM1dk648pEie4XPoy5rOfFXEzwaPyjuXGry2OaRL3xKNKxf3V67ULk0mQgXtWxPFPrvmuimwL3hZFmsRJ99yBCogPGZXScuBRG+dFXI2ZuN5jY3e+IECqxEl/IoO5ilLR9ZIrBHJexNHWTB42LDR9Yad0iZOujGPxXEUvbPj4MyOOq07NNZJHnVigM2XipOtnvXiEO0V/Ywv2zIjjkUroskjqzPhld4GnTRzm4upG1ytKFHtK0QmAnxtxjCG3RcLDIkxrpE8cxt/Wy/O+ohsCdF3MASoVW+bOjTjTY+Za8Bq/BF9CnI0yx+OkM1gqzLUoVOxczbkRx/kAgkXCcjlCrO4rifNhyZVusUxfOTviuN3BLZJaUHQ4gLjGlxEnLXl03drlzo44buny+yR8xi/B9xI3YTzpHfrC+RHHfSvn9nTuialCrfv3EleunD1x/OM7lw31mU4VG6kHESd/HXHK+RPXrbo/mGD8iicPz5C4wZLVDC55njEl4gYvpdLSTkQGE8f9Lqtaghu/rpB6AHHjHyZOujcqNorFjvNiKsQ9KUbx7UY39lQ1hRDHYuRWqJcbv64kThBxX7jHxVuqV0IRipOmToO4B+OWMjYoGCRGHUIcTz6Q0reeO9XA8M3ERSiHQpmP2wjM2bzsP0/ck/Fc/vfv4V+rXL4hxQYhxPHkA9nUgoxfgu8lzmeOTHjsU+8IAwc8ymKVxLGZiu1z/HEGVOJGm6V94XFilF4+dGUyMZ7DiRutmZCJITo3G1HmiBZ1OuAk4l64xNllXjwY4E5UvPIYi06qRe6dmRW7KPPK8d8UpSzFwquxwV/UE/m2NtKLMQkljlfgwB4zfr1dmQOI42myqIrqz7lcimKHM5+55190FaK/C5VdH8Ku52TQOsLuGC8b+c+4tojrGC28bJ/CieNG8JbbcJ7MVwBxQmksOIQm82t+4spRmHQe9oKT71SytoSYcWUv1uSX33i5XYHPZDnbGy6rxfvB38kk4s3pt7Q0ynjF7/e3xk1ZesfkhRLH3XUOzTMkqHakyWtjVXW86AeCO3AOcX+NyIMNYoBTYR//USwBVop6pbC3cXMjjOfkMrEUUkP4/0UerDDoNnmFV+fEeBgYJALdwXo1nLiar6zaV28YWHQzFM5NAKAFgps3jLgE1eM8Y+0tuFY4gmYqfFkuY7+fVejYMl7pUl2SgrKN8R5BnJBFdejxLr3gaqW+v5A9FMmJU1wWxOZomkKYWRHPHy3jHg6oWIrZuKfEPZKs760SrlUlcZez4D9FF1Lm1QXuwzopEqfob39dj/BUKR6fZc0sudXAoHgsvyESJ30Yr+X/YVkf/O+9RVZvBHGek0fQ3ysxtD6uN65C/xb5WeIURd/7CkvKSz2O7Cj7jnfm40Mhzqkcm7iyUy77eGUQ26eGrJ4aQAsoeagLZ92QLz+NiYP2ZH9t02zVllFVVWEgND9xhhKNiq4X7l+9b0Mw2ZRogsfFgTWnyMWxuAmY+rp8I4qhEvXGzrGSyd54Hrx3WrdGidh+tcbQRgAx0myBEFJVFa2HQY5A3Zk7DLR2R9NatxcIHpxnxL2VovB8vxy8h9f5TgbL570i6sLCTenjZXm14dIYUpJSfh1cvdw/h7/1LWP8QSGZo31ML22GP/007YYbh1M8h5Pwroim8Gdx3enEron/EvS+jTjhkENBL0XXpl8Avk/iiBPBfNzKbUzP9GzB41TfcCfRY4l7pvvYdbLnCXZa4nuuCv8Q4gM/u0d9Ej2ewvietpPYTWDWRaBJcxGoLVh87+hp7LTwcPPmYH+ezNXbRzBm3cW+baVeBPqOMxEK0eE66QbZ34lmLBfV4S1LVyUcQQLi1HHaPXIuGXGJA6qcoMlnBhCHONJzsp3ZxuEhiEFco7+6/J6T/wdjoVLoGFp5+AAAAABJRU5ErkJggg==;" vertex="1" parent="1">
          <mxGeometry x="614.38" y="462" width="32.62" height="16.83" as="geometry" />
        </mxCell>
        <mxCell id="icxB6pZpVLlcg9UYm4ng-72" value="" style="verticalLabelPosition=bottom;verticalAlign=top;html=1;shape=mxgraph.flowchart.parallel_mode;pointerEvents=1;shadow=0;strokeWidth=1;fontSize=8;rotation=90;" vertex="1" parent="1">
          <mxGeometry x="556.72" y="365" width="66.25" height="30" as="geometry" />
        </mxCell>
        <mxCell id="icxB6pZpVLlcg9UYm4ng-74" value="" style="strokeWidth=1;html=1;shape=mxgraph.flowchart.annotation_2;align=left;labelPosition=right;pointerEvents=1;shadow=0;fontSize=8;rotation=-90;" vertex="1" parent="1">
          <mxGeometry x="578.75" y="407.5" width="22.5" height="102.5" as="geometry" />
        </mxCell>
        <mxCell id="icxB6pZpVLlcg9UYm4ng-75" value="Time Series Analysis Ready" style="text;html=1;strokeColor=none;fillColor=none;align=left;verticalAlign=middle;whiteSpace=wrap;rounded=0;fontSize=8;" vertex="1" parent="1">
          <mxGeometry x="612.38" y="485" width="84" height="15" as="geometry" />
        </mxCell>
        <mxCell id="icxB6pZpVLlcg9UYm4ng-80" value="" style="group" vertex="1" connectable="0" parent="1">
          <mxGeometry x="110" y="600" width="276.53" height="118" as="geometry" />
        </mxCell>
        <mxCell id="icxB6pZpVLlcg9UYm4ng-67" value="" style="shape=internalStorage;whiteSpace=wrap;html=1;dx=15;dy=15;rounded=1;arcSize=8;strokeWidth=2;shadow=0;fontSize=8;" vertex="1" parent="icxB6pZpVLlcg9UYm4ng-80">
          <mxGeometry x="8.529999999999973" y="8" width="268" height="110" as="geometry" />
        </mxCell>
        <mxCell id="icxB6pZpVLlcg9UYm4ng-76" value="Weekly Data" style="text;html=1;strokeColor=none;fillColor=none;align=center;verticalAlign=middle;whiteSpace=wrap;rounded=0;shadow=0;strokeWidth=1;fontSize=8;rotation=-90;" vertex="1" parent="icxB6pZpVLlcg9UYm4ng-80">
          <mxGeometry x="-15" y="55" width="60" height="30" as="geometry" />
        </mxCell>
        <mxCell id="icxB6pZpVLlcg9UYm4ng-77" value="Structured Data" style="text;html=1;strokeColor=none;fillColor=none;align=center;verticalAlign=middle;whiteSpace=wrap;rounded=0;shadow=0;strokeWidth=1;fontSize=8;" vertex="1" parent="icxB6pZpVLlcg9UYm4ng-80">
          <mxGeometry x="35.52999999999997" width="91" height="30" as="geometry" />
        </mxCell>
        <mxCell id="icxB6pZpVLlcg9UYm4ng-78" value="Unstructured Data" style="text;html=1;strokeColor=none;fillColor=none;align=center;verticalAlign=middle;whiteSpace=wrap;rounded=0;shadow=0;strokeWidth=1;fontSize=8;" vertex="1" parent="icxB6pZpVLlcg9UYm4ng-80">
          <mxGeometry x="162.52999999999997" width="91" height="30" as="geometry" />
        </mxCell>
        <mxCell id="icxB6pZpVLlcg9UYm4ng-79" value="" style="endArrow=none;dashed=1;html=1;rounded=0;fontSize=8;exitX=0.5;exitY=1;exitDx=0;exitDy=0;entryX=0.5;entryY=0;entryDx=0;entryDy=0;" edge="1" parent="icxB6pZpVLlcg9UYm4ng-80" source="icxB6pZpVLlcg9UYm4ng-67" target="icxB6pZpVLlcg9UYm4ng-67">
          <mxGeometry width="50" height="50" relative="1" as="geometry">
            <mxPoint x="97.52999999999997" y="55" as="sourcePoint" />
            <mxPoint x="147.52999999999997" y="5" as="targetPoint" />
          </mxGeometry>
        </mxCell>
        <mxCell id="icxB6pZpVLlcg9UYm4ng-83" value="Prediction Engine" style="shape=umlFrame;whiteSpace=wrap;html=1;shadow=0;strokeWidth=1;fontSize=8;" vertex="1" parent="1">
          <mxGeometry x="-620" y="332.5" width="650" height="200" as="geometry" />
        </mxCell>
      </root>
    </mxGraphModel>
  </diagram>
</mxfile>
